<?xml version="1.0" encoding="utf-8"?>
<svg xmlns="http://www.w3.org/2000/svg" xmlns:xlink="http://www.w3.org/1999/xlink" width="600" height="400" viewBox="0 0 2400 1600">
<defs>
  <clipPath id="clip500">
    <rect x="0" y="0" width="2400" height="1600"/>
  </clipPath>
</defs>
<path clip-path="url(#clip500)" d="M0 1600 L2400 1600 L2400 0 L0 0  Z" fill="#ffffff" fill-rule="evenodd" fill-opacity="1"/>
<defs>
  <clipPath id="clip501">
    <rect x="480" y="0" width="1681" height="1600"/>
  </clipPath>
</defs>
<path clip-path="url(#clip500)" d="M221.637 1410.9 L2352.76 1410.9 L2352.76 47.2441 L221.637 47.2441  Z" fill="#ffffff" fill-rule="evenodd" fill-opacity="1"/>
<defs>
  <clipPath id="clip502">
    <rect x="221" y="47" width="2132" height="1365"/>
  </clipPath>
</defs>
<polyline clip-path="url(#clip502)" style="stroke:#000000; stroke-linecap:round; stroke-linejoin:round; stroke-width:2; stroke-opacity:0.1; fill:none" points="916.054,1410.9 916.054,47.2441 "/>
<polyline clip-path="url(#clip502)" style="stroke:#000000; stroke-linecap:round; stroke-linejoin:round; stroke-width:2; stroke-opacity:0.1; fill:none" points="1953.99,1410.9 1953.99,47.2441 "/>
<polyline clip-path="url(#clip502)" style="stroke:#000000; stroke-linecap:round; stroke-linejoin:round; stroke-width:2; stroke-opacity:0.1; fill:none" points="221.637,985.085 2352.76,985.085 "/>
<polyline clip-path="url(#clip502)" style="stroke:#000000; stroke-linecap:round; stroke-linejoin:round; stroke-width:2; stroke-opacity:0.1; fill:none" points="221.637,145.69 2352.76,145.69 "/>
<polyline clip-path="url(#clip500)" style="stroke:#000000; stroke-linecap:round; stroke-linejoin:round; stroke-width:4; stroke-opacity:1; fill:none" points="221.637,1410.9 2352.76,1410.9 "/>
<polyline clip-path="url(#clip500)" style="stroke:#000000; stroke-linecap:round; stroke-linejoin:round; stroke-width:4; stroke-opacity:1; fill:none" points="916.054,1410.9 916.054,1392 "/>
<polyline clip-path="url(#clip500)" style="stroke:#000000; stroke-linecap:round; stroke-linejoin:round; stroke-width:4; stroke-opacity:1; fill:none" points="1953.99,1410.9 1953.99,1392 "/>
<path clip-path="url(#clip500)" d="M880.51 1485.02 L888.149 1485.02 L888.149 1458.66 L879.839 1460.32 L879.839 1456.06 L888.103 1454.4 L892.779 1454.4 L892.779 1485.02 L900.418 1485.02 L900.418 1488.96 L880.51 1488.96 L880.51 1485.02 Z" fill="#000000" fill-rule="nonzero" fill-opacity="1" /><path clip-path="url(#clip500)" d="M919.862 1457.48 Q916.251 1457.48 914.422 1461.04 Q912.617 1464.58 912.617 1471.71 Q912.617 1478.82 914.422 1482.38 Q916.251 1485.92 919.862 1485.92 Q923.496 1485.92 925.302 1482.38 Q927.13 1478.82 927.13 1471.71 Q927.13 1464.58 925.302 1461.04 Q923.496 1457.48 919.862 1457.48 M919.862 1453.77 Q925.672 1453.77 928.728 1458.38 Q931.806 1462.96 931.806 1471.71 Q931.806 1480.44 928.728 1485.04 Q925.672 1489.63 919.862 1489.63 Q914.052 1489.63 910.973 1485.04 Q907.917 1480.44 907.917 1471.71 Q907.917 1462.96 910.973 1458.38 Q914.052 1453.77 919.862 1453.77 Z" fill="#000000" fill-rule="nonzero" fill-opacity="1" /><path clip-path="url(#clip500)" d="M944.483 1436.78 L934.891 1451.77 L944.483 1451.77 L944.483 1436.78 M943.486 1433.47 L948.263 1433.47 L948.263 1451.77 L952.269 1451.77 L952.269 1454.93 L948.263 1454.93 L948.263 1461.55 L944.483 1461.55 L944.483 1454.93 L931.806 1454.93 L931.806 1451.26 L943.486 1433.47 Z" fill="#000000" fill-rule="nonzero" fill-opacity="1" /><path clip-path="url(#clip500)" d="M1918.99 1485.02 L1926.62 1485.02 L1926.62 1458.66 L1918.31 1460.32 L1918.31 1456.06 L1926.58 1454.4 L1931.25 1454.4 L1931.25 1485.02 L1938.89 1485.02 L1938.89 1488.96 L1918.99 1488.96 L1918.99 1485.02 Z" fill="#000000" fill-rule="nonzero" fill-opacity="1" /><path clip-path="url(#clip500)" d="M1958.34 1457.48 Q1954.73 1457.48 1952.9 1461.04 Q1951.09 1464.58 1951.09 1471.71 Q1951.09 1478.82 1952.9 1482.38 Q1954.73 1485.92 1958.34 1485.92 Q1961.97 1485.92 1963.78 1482.38 Q1965.61 1478.82 1965.61 1471.71 Q1965.61 1464.58 1963.78 1461.04 Q1961.97 1457.48 1958.34 1457.48 M1958.34 1453.77 Q1964.15 1453.77 1967.2 1458.38 Q1970.28 1462.96 1970.28 1471.71 Q1970.28 1480.44 1967.2 1485.04 Q1964.15 1489.63 1958.34 1489.63 Q1952.53 1489.63 1949.45 1485.04 Q1946.39 1480.44 1946.39 1471.71 Q1946.39 1462.96 1949.45 1458.38 Q1952.53 1453.77 1958.34 1453.77 Z" fill="#000000" fill-rule="nonzero" fill-opacity="1" /><path clip-path="url(#clip500)" d="M1980.31 1445.99 Q1977.75 1445.99 1976.24 1447.74 Q1974.76 1449.49 1974.76 1452.54 Q1974.76 1455.57 1976.24 1457.33 Q1977.75 1459.08 1980.31 1459.08 Q1982.86 1459.08 1984.35 1457.33 Q1985.85 1455.57 1985.85 1452.54 Q1985.85 1449.49 1984.35 1447.74 Q1982.86 1445.99 1980.31 1445.99 M1987.85 1434.09 L1987.85 1437.55 Q1986.42 1436.87 1984.95 1436.51 Q1983.5 1436.16 1982.07 1436.16 Q1978.31 1436.16 1976.32 1438.69 Q1974.34 1441.23 1974.06 1446.37 Q1975.17 1444.73 1976.85 1443.87 Q1978.52 1442.98 1980.53 1442.98 Q1984.76 1442.98 1987.21 1445.56 Q1989.67 1448.12 1989.67 1452.54 Q1989.67 1456.86 1987.11 1459.48 Q1984.56 1462.09 1980.31 1462.09 Q1975.43 1462.09 1972.86 1458.37 Q1970.28 1454.62 1970.28 1447.53 Q1970.28 1440.88 1973.44 1436.93 Q1976.6 1432.96 1981.92 1432.96 Q1983.35 1432.96 1984.8 1433.24 Q1986.27 1433.52 1987.85 1434.09 Z" fill="#000000" fill-rule="nonzero" fill-opacity="1" /><path clip-path="url(#clip500)" d="M1246.69 1552.67 L1246.69 1574.19 L1240.84 1574.19 L1240.84 1552.86 Q1240.84 1547.8 1238.86 1545.29 Q1236.89 1542.77 1232.94 1542.77 Q1228.2 1542.77 1225.47 1545.79 Q1222.73 1548.82 1222.73 1554.04 L1222.73 1574.19 L1216.84 1574.19 L1216.84 1538.54 L1222.73 1538.54 L1222.73 1544.08 Q1224.83 1540.86 1227.66 1539.27 Q1230.53 1537.68 1234.25 1537.68 Q1240.39 1537.68 1243.54 1541.5 Q1246.69 1545.29 1246.69 1552.67 Z" fill="#000000" fill-rule="nonzero" fill-opacity="1" /><path clip-path="url(#clip500)" d="M1254.17 1538.54 L1260.38 1538.54 L1271.52 1568.46 L1282.66 1538.54 L1288.87 1538.54 L1275.5 1574.19 L1267.54 1574.19 L1254.17 1538.54 Z" fill="#000000" fill-rule="nonzero" fill-opacity="1" /><path clip-path="url(#clip500)" d="M1313.15 1556.27 Q1306.05 1556.27 1303.32 1557.89 Q1300.58 1559.51 1300.58 1563.43 Q1300.58 1566.55 1302.62 1568.39 Q1304.69 1570.21 1308.22 1570.21 Q1313.09 1570.21 1316.02 1566.77 Q1318.98 1563.3 1318.98 1557.57 L1318.98 1556.27 L1313.15 1556.27 M1324.83 1553.85 L1324.83 1574.19 L1318.98 1574.19 L1318.98 1568.77 Q1316.97 1572.02 1313.98 1573.58 Q1310.99 1575.11 1306.66 1575.11 Q1301.19 1575.11 1297.94 1572.05 Q1294.72 1568.97 1294.72 1563.81 Q1294.72 1557.79 1298.73 1554.74 Q1302.78 1551.68 1310.77 1551.68 L1318.98 1551.68 L1318.98 1551.11 Q1318.98 1547.07 1316.3 1544.87 Q1313.66 1542.64 1308.86 1542.64 Q1305.8 1542.64 1302.9 1543.38 Q1300.01 1544.11 1297.33 1545.57 L1297.33 1540.16 Q1300.55 1538.92 1303.57 1538.31 Q1306.6 1537.68 1309.46 1537.68 Q1317.19 1537.68 1321.01 1541.69 Q1324.83 1545.7 1324.83 1553.85 Z" fill="#000000" fill-rule="nonzero" fill-opacity="1" /><path clip-path="url(#clip500)" d="M1357.55 1544.01 Q1356.57 1543.44 1355.39 1543.18 Q1354.24 1542.9 1352.84 1542.9 Q1347.88 1542.9 1345.2 1546.14 Q1342.56 1549.36 1342.56 1555.41 L1342.56 1574.19 L1336.67 1574.19 L1336.67 1538.54 L1342.56 1538.54 L1342.56 1544.08 Q1344.41 1540.83 1347.37 1539.27 Q1350.33 1537.68 1354.56 1537.68 Q1355.17 1537.68 1355.9 1537.77 Q1356.63 1537.84 1357.52 1538 L1357.55 1544.01 Z" fill="#000000" fill-rule="nonzero" fill-opacity="1" /><polyline clip-path="url(#clip500)" style="stroke:#000000; stroke-linecap:round; stroke-linejoin:round; stroke-width:4; stroke-opacity:1; fill:none" points="221.637,1410.9 221.637,47.2441 "/>
<polyline clip-path="url(#clip500)" style="stroke:#000000; stroke-linecap:round; stroke-linejoin:round; stroke-width:4; stroke-opacity:1; fill:none" points="221.637,985.085 240.535,985.085 "/>
<polyline clip-path="url(#clip500)" style="stroke:#000000; stroke-linecap:round; stroke-linejoin:round; stroke-width:4; stroke-opacity:1; fill:none" points="221.637,145.69 240.535,145.69 "/>
<path clip-path="url(#clip500)" d="M114.931 1004.88 L122.57 1004.88 L122.57 978.512 L114.26 980.179 L114.26 975.919 L122.524 974.253 L127.2 974.253 L127.2 1004.88 L134.839 1004.88 L134.839 1008.81 L114.931 1008.81 L114.931 1004.88 Z" fill="#000000" fill-rule="nonzero" fill-opacity="1" /><path clip-path="url(#clip500)" d="M154.283 977.331 Q150.672 977.331 148.843 980.896 Q147.038 984.438 147.038 991.567 Q147.038 998.674 148.843 1002.24 Q150.672 1005.78 154.283 1005.78 Q157.917 1005.78 159.723 1002.24 Q161.552 998.674 161.552 991.567 Q161.552 984.438 159.723 980.896 Q157.917 977.331 154.283 977.331 M154.283 973.628 Q160.093 973.628 163.149 978.234 Q166.227 982.817 166.227 991.567 Q166.227 1000.29 163.149 1004.9 Q160.093 1009.48 154.283 1009.48 Q148.473 1009.48 145.394 1004.9 Q142.339 1000.29 142.339 991.567 Q142.339 982.817 145.394 978.234 Q148.473 973.628 154.283 973.628 Z" fill="#000000" fill-rule="nonzero" fill-opacity="1" /><path clip-path="url(#clip500)" d="M175.932 955.824 Q172.998 955.824 171.512 958.72 Q170.045 961.598 170.045 967.39 Q170.045 973.164 171.512 976.061 Q172.998 978.938 175.932 978.938 Q178.885 978.938 180.352 976.061 Q181.838 973.164 181.838 967.39 Q181.838 961.598 180.352 958.72 Q178.885 955.824 175.932 955.824 M175.932 952.814 Q180.653 952.814 183.136 956.557 Q185.637 960.281 185.637 967.39 Q185.637 974.481 183.136 978.224 Q180.653 981.948 175.932 981.948 Q171.212 981.948 168.71 978.224 Q166.227 974.481 166.227 967.39 Q166.227 960.281 168.71 956.557 Q171.212 952.814 175.932 952.814 Z" fill="#000000" fill-rule="nonzero" fill-opacity="1" /><path clip-path="url(#clip500)" d="M116.511 165.482 L124.15 165.482 L124.15 139.117 L115.84 140.783 L115.84 136.524 L124.104 134.857 L128.78 134.857 L128.78 165.482 L136.419 165.482 L136.419 169.417 L116.511 169.417 L116.511 165.482 Z" fill="#000000" fill-rule="nonzero" fill-opacity="1" /><path clip-path="url(#clip500)" d="M155.863 137.936 Q152.252 137.936 150.423 141.501 Q148.618 145.043 148.618 152.172 Q148.618 159.279 150.423 162.843 Q152.252 166.385 155.863 166.385 Q159.497 166.385 161.303 162.843 Q163.131 159.279 163.131 152.172 Q163.131 145.043 161.303 141.501 Q159.497 137.936 155.863 137.936 M155.863 134.232 Q161.673 134.232 164.729 138.839 Q167.807 143.422 167.807 152.172 Q167.807 160.899 164.729 165.505 Q161.673 170.089 155.863 170.089 Q150.053 170.089 146.974 165.505 Q143.919 160.899 143.919 152.172 Q143.919 143.422 146.974 138.839 Q150.053 134.232 155.863 134.232 Z" fill="#000000" fill-rule="nonzero" fill-opacity="1" /><path clip-path="url(#clip500)" d="M172.378 138.81 L185.637 138.81 L185.637 142.007 L167.807 142.007 L167.807 138.81 Q169.97 136.572 173.694 132.81 Q177.437 129.03 178.396 127.939 Q180.22 125.889 180.935 124.478 Q181.669 123.049 181.669 121.676 Q181.669 119.438 180.089 118.027 Q178.528 116.617 176.008 116.617 Q174.221 116.617 172.227 117.237 Q170.252 117.858 167.995 119.118 L167.995 115.281 Q170.29 114.36 172.284 113.889 Q174.277 113.419 175.932 113.419 Q180.296 113.419 182.891 115.601 Q185.487 117.783 185.487 121.431 Q185.487 123.162 184.828 124.723 Q184.189 126.265 182.477 128.371 Q182.007 128.917 179.487 131.531 Q176.967 134.127 172.378 138.81 Z" fill="#000000" fill-rule="nonzero" fill-opacity="1" /><path clip-path="url(#clip500)" d="M18.0438 993.979 L24.314 993.979 Q22.5634 997.64 21.704 1000.89 Q20.8447 1004.13 20.8447 1007.16 Q20.8447 1012.41 22.8817 1015.27 Q24.9187 1018.11 28.6745 1018.11 Q31.8255 1018.11 33.4488 1016.23 Q35.0402 1014.32 36.0269 1009.03 L36.8226 1005.15 Q38.1912 997.958 41.6605 994.552 Q45.098 991.115 50.8908 991.115 Q57.7976 991.115 61.3624 995.762 Q64.9272 1000.38 64.9272 1009.32 Q64.9272 1012.69 64.1633 1016.51 Q63.3994 1020.3 61.9035 1024.38 L55.2831 1024.38 Q57.4793 1020.46 58.5933 1016.7 Q59.7073 1012.95 59.7073 1009.32 Q59.7073 1003.81 57.543 1000.82 Q55.3786 997.831 51.3682 997.831 Q47.8671 997.831 45.8937 999.995 Q43.9204 1002.13 42.9337 1007.03 L42.1698 1010.94 Q40.7375 1018.14 37.682 1021.35 Q34.6264 1024.57 29.1837 1024.57 Q22.8817 1024.57 19.2532 1020.14 Q15.6248 1015.69 15.6248 1007.89 Q15.6248 1004.55 16.2295 1001.08 Q16.8343 997.608 18.0438 993.979 Z" fill="#000000" fill-rule="nonzero" fill-opacity="1" /><path clip-path="url(#clip500)" d="M58.657 975.678 L77.5631 975.678 L77.5631 981.566 L28.3562 981.566 L28.3562 975.678 L33.7671 975.678 Q30.5842 973.832 29.0564 971.031 Q27.4968 968.198 27.4968 964.283 Q27.4968 957.79 32.6531 953.748 Q37.8093 949.674 46.212 949.674 Q54.6147 949.674 59.771 953.748 Q64.9272 957.79 64.9272 964.283 Q64.9272 968.198 63.3994 971.031 Q61.8398 973.832 58.657 975.678 M46.212 955.753 Q39.7508 955.753 36.0905 958.427 Q32.3984 961.069 32.3984 965.716 Q32.3984 970.362 36.0905 973.036 Q39.7508 975.678 46.212 975.678 Q52.6732 975.678 56.3653 973.036 Q60.0256 970.362 60.0256 965.716 Q60.0256 961.069 56.3653 958.427 Q52.6732 955.753 46.212 955.753 Z" fill="#000000" fill-rule="nonzero" fill-opacity="1" /><path clip-path="url(#clip500)" d="M44.7161 909.474 L47.5806 909.474 L47.5806 936.401 Q53.6281 936.019 56.8109 932.773 Q59.9619 929.495 59.9619 923.67 Q59.9619 920.296 59.1344 917.145 Q58.3069 913.962 56.6518 910.843 L62.1899 910.843 Q63.5267 913.994 64.227 917.304 Q64.9272 920.614 64.9272 924.02 Q64.9272 932.55 59.9619 937.547 Q54.9967 942.513 46.5303 942.513 Q37.7774 942.513 32.6531 937.802 Q27.4968 933.059 27.4968 925.039 Q27.4968 917.845 32.1438 913.676 Q36.7589 909.474 44.7161 909.474 M42.9973 915.331 Q38.1912 915.395 35.3266 918.036 Q32.4621 920.646 32.4621 924.975 Q32.4621 929.877 35.2312 932.837 Q38.0002 935.765 43.0292 936.21 L42.9973 915.331 Z" fill="#000000" fill-rule="nonzero" fill-opacity="1" /><path clip-path="url(#clip500)" d="M44.7161 869.371 L47.5806 869.371 L47.5806 896.297 Q53.6281 895.916 56.8109 892.669 Q59.9619 889.391 59.9619 883.566 Q59.9619 880.192 59.1344 877.041 Q58.3069 873.858 56.6518 870.739 L62.1899 870.739 Q63.5267 873.89 64.227 877.2 Q64.9272 880.511 64.9272 883.916 Q64.9272 892.446 59.9619 897.443 Q54.9967 902.409 46.5303 902.409 Q37.7774 902.409 32.6531 897.698 Q27.4968 892.955 27.4968 884.935 Q27.4968 877.741 32.1438 873.572 Q36.7589 869.371 44.7161 869.371 M42.9973 875.227 Q38.1912 875.291 35.3266 877.932 Q32.4621 880.542 32.4621 884.871 Q32.4621 889.773 35.2312 892.733 Q38.0002 895.661 43.0292 896.107 L42.9973 875.227 Z" fill="#000000" fill-rule="nonzero" fill-opacity="1" /><path clip-path="url(#clip500)" d="M33.7671 836.301 L14.479 836.301 L14.479 830.444 L64.0042 830.444 L64.0042 836.301 L58.657 836.301 Q61.8398 838.147 63.3994 840.979 Q64.9272 843.78 64.9272 847.727 Q64.9272 854.188 59.771 858.262 Q54.6147 862.305 46.212 862.305 Q37.8093 862.305 32.6531 858.262 Q27.4968 854.188 27.4968 847.727 Q27.4968 843.78 29.0564 840.979 Q30.5842 838.147 33.7671 836.301 M46.212 856.257 Q52.6732 856.257 56.3653 853.615 Q60.0256 850.942 60.0256 846.295 Q60.0256 841.648 56.3653 838.974 Q52.6732 836.301 46.212 836.301 Q39.7508 836.301 36.0905 838.974 Q32.3984 841.648 32.3984 846.295 Q32.3984 850.942 36.0905 853.615 Q39.7508 856.257 46.212 856.257 Z" fill="#000000" fill-rule="nonzero" fill-opacity="1" /><path clip-path="url(#clip500)" d="M49.9359 818.986 L28.3562 818.986 L28.3562 813.13 L49.7131 813.13 Q54.7739 813.13 57.3202 811.156 Q59.8346 809.183 59.8346 805.236 Q59.8346 800.494 56.8109 797.756 Q53.7872 794.987 48.5673 794.987 L28.3562 794.987 L28.3562 789.131 L64.0042 789.131 L64.0042 794.987 L58.5296 794.987 Q61.7762 797.12 63.3676 799.953 Q64.9272 802.753 64.9272 806.477 Q64.9272 812.62 61.1078 815.803 Q57.2883 818.986 49.9359 818.986 M27.4968 804.249 L27.4968 804.249 Z" fill="#000000" fill-rule="nonzero" fill-opacity="1" /><path clip-path="url(#clip500)" d="M58.657 771.402 L77.5631 771.402 L77.5631 777.291 L28.3562 777.291 L28.3562 771.402 L33.7671 771.402 Q30.5842 769.556 29.0564 766.755 Q27.4968 763.923 27.4968 760.008 Q27.4968 753.515 32.6531 749.472 Q37.8093 745.398 46.212 745.398 Q54.6147 745.398 59.771 749.472 Q64.9272 753.515 64.9272 760.008 Q64.9272 763.923 63.3994 766.755 Q61.8398 769.556 58.657 771.402 M46.212 751.478 Q39.7508 751.478 36.0905 754.151 Q32.3984 756.793 32.3984 761.44 Q32.3984 766.087 36.0905 768.761 Q39.7508 771.402 46.212 771.402 Q52.6732 771.402 56.3653 768.761 Q60.0256 766.087 60.0256 761.44 Q60.0256 756.793 56.3653 754.151 Q52.6732 751.478 46.212 751.478 Z" fill="#000000" fill-rule="nonzero" fill-opacity="1" /><path clip-path="url(#clip500)" d="M28.3562 719.172 L28.3562 712.965 L58.275 701.825 L28.3562 690.685 L28.3562 684.479 L64.0042 697.847 L64.0042 705.804 L28.3562 719.172 Z" fill="#000000" fill-rule="nonzero" fill-opacity="1" /><path clip-path="url(#clip500)" d="M29.4065 653.669 L34.9447 653.669 Q33.6716 656.151 33.035 658.825 Q32.3984 661.498 32.3984 664.363 Q32.3984 668.723 33.7352 670.92 Q35.072 673.084 37.7456 673.084 Q39.7826 673.084 40.9603 671.524 Q42.1061 669.965 43.1565 665.254 L43.6021 663.249 Q44.9389 657.011 47.3897 654.401 Q49.8086 651.759 54.1691 651.759 Q59.1344 651.759 62.0308 655.706 Q64.9272 659.621 64.9272 666.495 Q64.9272 669.36 64.3543 672.479 Q63.8132 675.567 62.6992 679.004 L56.6518 679.004 Q58.3387 675.758 59.198 672.607 Q60.0256 669.456 60.0256 666.368 Q60.0256 662.23 58.6251 660.002 Q57.1929 657.774 54.6147 657.774 Q52.2276 657.774 50.9545 659.398 Q49.6813 660.989 48.5037 666.432 L48.0262 668.469 Q46.8804 673.912 44.5251 676.33 Q42.138 678.749 38.0002 678.749 Q32.9713 678.749 30.2341 675.185 Q27.4968 671.62 27.4968 665.063 Q27.4968 661.817 27.9743 658.952 Q28.4517 656.088 29.4065 653.669 Z" fill="#000000" fill-rule="nonzero" fill-opacity="1" /><path clip-path="url(#clip500)" d="M55.9197 641.606 L55.9197 634.89 L64.0042 634.89 L64.0042 641.606 L55.9197 641.606 Z" fill="#000000" fill-rule="nonzero" fill-opacity="1" /><path clip-path="url(#clip500)" d="M16.4842 600.738 L16.4842 591.157 L48.8219 579.031 L16.4842 566.84 L16.4842 557.26 L64.0042 557.26 L64.0042 563.53 L22.277 563.53 L54.8694 575.784 L54.8694 582.245 L22.277 594.499 L64.0042 594.499 L64.0042 600.738 L16.4842 600.738 Z" fill="#000000" fill-rule="nonzero" fill-opacity="1" /><path clip-path="url(#clip500)" d="M46.0847 528.551 Q46.0847 535.648 47.7079 538.386 Q49.3312 541.123 53.2461 541.123 Q56.3653 541.123 58.2114 539.086 Q60.0256 537.017 60.0256 533.484 Q60.0256 528.614 56.5881 525.686 Q53.1188 522.726 47.3897 522.726 L46.0847 522.726 L46.0847 528.551 M43.6657 516.87 L64.0042 516.87 L64.0042 522.726 L58.5933 522.726 Q61.8398 524.731 63.3994 527.723 Q64.9272 530.715 64.9272 535.044 Q64.9272 540.518 61.8716 543.765 Q58.7843 546.979 53.6281 546.979 Q47.6125 546.979 44.5569 542.969 Q41.5014 538.927 41.5014 530.938 L41.5014 522.726 L40.9285 522.726 Q36.8862 522.726 34.6901 525.4 Q32.4621 528.041 32.4621 532.847 Q32.4621 535.903 33.1941 538.799 Q33.9262 541.696 35.3903 544.369 L29.9795 544.369 Q28.7381 541.155 28.1334 538.131 Q27.4968 535.107 27.4968 532.243 Q27.4968 524.508 31.5072 520.689 Q35.5176 516.87 43.6657 516.87 Z" fill="#000000" fill-rule="nonzero" fill-opacity="1" /><path clip-path="url(#clip500)" d="M58.5933 498.441 L58.5933 476.002 L64.0042 476.002 L64.0042 506.175 L58.5933 506.175 Q54.8057 502.515 48.44 496.213 Q42.0425 489.879 40.1964 488.256 Q36.7271 485.168 34.34 483.959 Q31.921 482.718 29.5975 482.718 Q25.8099 482.718 23.4228 485.391 Q21.0356 488.033 21.0356 492.298 Q21.0356 495.322 22.086 498.695 Q23.1363 502.037 25.2688 505.857 L18.7758 505.857 Q17.2162 501.974 16.4205 498.6 Q15.6248 495.226 15.6248 492.425 Q15.6248 485.041 19.3169 480.649 Q23.009 476.256 29.1837 476.256 Q32.112 476.256 34.7537 477.37 Q37.3637 478.452 40.9285 481.349 Q41.8515 482.145 46.2757 486.41 Q50.668 490.675 58.5933 498.441 Z" fill="#000000" fill-rule="nonzero" fill-opacity="1" /><path clip-path="url(#clip500)" d="M16.4842 464.13 L16.4842 433.574 L19.2214 433.574 L64.0042 450.825 L64.0042 457.541 L21.895 441.309 L21.895 464.13 L16.4842 464.13 Z" fill="#000000" fill-rule="nonzero" fill-opacity="1" /><circle clip-path="url(#clip502)" cx="281.952" cy="1172.03" r="14.4" fill="#009af9" fill-rule="evenodd" fill-opacity="1" stroke="#000000" stroke-opacity="1" stroke-width="3.2"/>
<circle clip-path="url(#clip502)" cx="418.566" cy="1166.1" r="14.4" fill="#009af9" fill-rule="evenodd" fill-opacity="1" stroke="#000000" stroke-opacity="1" stroke-width="3.2"/>
<circle clip-path="url(#clip502)" cx="640.908" cy="1069.34" r="14.4" fill="#009af9" fill-rule="evenodd" fill-opacity="1" stroke="#000000" stroke-opacity="1" stroke-width="3.2"/>
<circle clip-path="url(#clip502)" cx="824.104" cy="1193.19" r="14.4" fill="#009af9" fill-rule="evenodd" fill-opacity="1" stroke="#000000" stroke-opacity="1" stroke-width="3.2"/>
<circle clip-path="url(#clip502)" cx="797.133" cy="1102.59" r="14.4" fill="#009af9" fill-rule="evenodd" fill-opacity="1" stroke="#000000" stroke-opacity="1" stroke-width="3.2"/>
<circle clip-path="url(#clip502)" cx="797.133" cy="1179.43" r="14.4" fill="#009af9" fill-rule="evenodd" fill-opacity="1" stroke="#000000" stroke-opacity="1" stroke-width="3.2"/>
<circle clip-path="url(#clip502)" cx="837.269" cy="1236.47" r="14.4" fill="#009af9" fill-rule="evenodd" fill-opacity="1" stroke="#000000" stroke-opacity="1" stroke-width="3.2"/>
<circle clip-path="url(#clip502)" cx="941.597" cy="1199.49" r="14.4" fill="#009af9" fill-rule="evenodd" fill-opacity="1" stroke="#000000" stroke-opacity="1" stroke-width="3.2"/>
<circle clip-path="url(#clip502)" cx="974.319" cy="1144.28" r="14.4" fill="#009af9" fill-rule="evenodd" fill-opacity="1" stroke="#000000" stroke-opacity="1" stroke-width="3.2"/>
<circle clip-path="url(#clip502)" cx="1078.94" cy="1106.6" r="14.4" fill="#009af9" fill-rule="evenodd" fill-opacity="1" stroke="#000000" stroke-opacity="1" stroke-width="3.2"/>
<circle clip-path="url(#clip502)" cx="1131.85" cy="1087.03" r="14.4" fill="#009af9" fill-rule="evenodd" fill-opacity="1" stroke="#000000" stroke-opacity="1" stroke-width="3.2"/>
<circle clip-path="url(#clip502)" cx="1141.58" cy="1197.8" r="14.4" fill="#009af9" fill-rule="evenodd" fill-opacity="1" stroke="#000000" stroke-opacity="1" stroke-width="3.2"/>
<circle clip-path="url(#clip502)" cx="1229.63" cy="1170.61" r="14.4" fill="#009af9" fill-rule="evenodd" fill-opacity="1" stroke="#000000" stroke-opacity="1" stroke-width="3.2"/>
<circle clip-path="url(#clip502)" cx="1334.26" cy="936.819" r="14.4" fill="#009af9" fill-rule="evenodd" fill-opacity="1" stroke="#000000" stroke-opacity="1" stroke-width="3.2"/>
<circle clip-path="url(#clip502)" cx="1318.19" cy="1066.73" r="14.4" fill="#009af9" fill-rule="evenodd" fill-opacity="1" stroke="#000000" stroke-opacity="1" stroke-width="3.2"/>
<circle clip-path="url(#clip502)" cx="1448.9" cy="981.499" r="14.4" fill="#009af9" fill-rule="evenodd" fill-opacity="1" stroke="#000000" stroke-opacity="1" stroke-width="3.2"/>
<circle clip-path="url(#clip502)" cx="1503.99" cy="992.776" r="14.4" fill="#009af9" fill-rule="evenodd" fill-opacity="1" stroke="#000000" stroke-opacity="1" stroke-width="3.2"/>
<circle clip-path="url(#clip502)" cx="1666.92" cy="876.988" r="14.4" fill="#009af9" fill-rule="evenodd" fill-opacity="1" stroke="#000000" stroke-opacity="1" stroke-width="3.2"/>
<circle clip-path="url(#clip502)" cx="1736.59" cy="1003.5" r="14.4" fill="#009af9" fill-rule="evenodd" fill-opacity="1" stroke="#000000" stroke-opacity="1" stroke-width="3.2"/>
<circle clip-path="url(#clip502)" cx="1733.2" cy="984.827" r="14.4" fill="#009af9" fill-rule="evenodd" fill-opacity="1" stroke="#000000" stroke-opacity="1" stroke-width="3.2"/>
<circle clip-path="url(#clip502)" cx="1762.83" cy="673.515" r="14.4" fill="#009af9" fill-rule="evenodd" fill-opacity="1" stroke="#000000" stroke-opacity="1" stroke-width="3.2"/>
<circle clip-path="url(#clip502)" cx="1761.19" cy="708.994" r="14.4" fill="#009af9" fill-rule="evenodd" fill-opacity="1" stroke="#000000" stroke-opacity="1" stroke-width="3.2"/>
<circle clip-path="url(#clip502)" cx="1817.42" cy="983.47" r="14.4" fill="#009af9" fill-rule="evenodd" fill-opacity="1" stroke="#000000" stroke-opacity="1" stroke-width="3.2"/>
<circle clip-path="url(#clip502)" cx="1820.17" cy="984.436" r="14.4" fill="#009af9" fill-rule="evenodd" fill-opacity="1" stroke="#000000" stroke-opacity="1" stroke-width="3.2"/>
<circle clip-path="url(#clip502)" cx="1848.83" cy="771.9" r="14.4" fill="#009af9" fill-rule="evenodd" fill-opacity="1" stroke="#000000" stroke-opacity="1" stroke-width="3.2"/>
<circle clip-path="url(#clip502)" cx="1809.64" cy="985.031" r="14.4" fill="#009af9" fill-rule="evenodd" fill-opacity="1" stroke="#000000" stroke-opacity="1" stroke-width="3.2"/>
<circle clip-path="url(#clip502)" cx="1815.2" cy="983.433" r="14.4" fill="#009af9" fill-rule="evenodd" fill-opacity="1" stroke="#000000" stroke-opacity="1" stroke-width="3.2"/>
<circle clip-path="url(#clip502)" cx="1925.63" cy="959.543" r="14.4" fill="#009af9" fill-rule="evenodd" fill-opacity="1" stroke="#000000" stroke-opacity="1" stroke-width="3.2"/>
<circle clip-path="url(#clip502)" cx="1934.56" cy="983.537" r="14.4" fill="#009af9" fill-rule="evenodd" fill-opacity="1" stroke="#000000" stroke-opacity="1" stroke-width="3.2"/>
<circle clip-path="url(#clip502)" cx="1947.21" cy="982.532" r="14.4" fill="#009af9" fill-rule="evenodd" fill-opacity="1" stroke="#000000" stroke-opacity="1" stroke-width="3.2"/>
<circle clip-path="url(#clip502)" cx="1967.83" cy="976.973" r="14.4" fill="#009af9" fill-rule="evenodd" fill-opacity="1" stroke="#000000" stroke-opacity="1" stroke-width="3.2"/>
<circle clip-path="url(#clip502)" cx="1922.33" cy="865.886" r="14.4" fill="#009af9" fill-rule="evenodd" fill-opacity="1" stroke="#000000" stroke-opacity="1" stroke-width="3.2"/>
<circle clip-path="url(#clip502)" cx="1961.74" cy="984.863" r="14.4" fill="#009af9" fill-rule="evenodd" fill-opacity="1" stroke="#000000" stroke-opacity="1" stroke-width="3.2"/>
<circle clip-path="url(#clip502)" cx="1941.67" cy="983.532" r="14.4" fill="#009af9" fill-rule="evenodd" fill-opacity="1" stroke="#000000" stroke-opacity="1" stroke-width="3.2"/>
<circle clip-path="url(#clip502)" cx="2106.66" cy="948.661" r="14.4" fill="#009af9" fill-rule="evenodd" fill-opacity="1" stroke="#000000" stroke-opacity="1" stroke-width="3.2"/>
<circle clip-path="url(#clip502)" cx="2125.38" cy="993.403" r="14.4" fill="#009af9" fill-rule="evenodd" fill-opacity="1" stroke="#000000" stroke-opacity="1" stroke-width="3.2"/>
<circle clip-path="url(#clip502)" cx="2120.06" cy="983.589" r="14.4" fill="#009af9" fill-rule="evenodd" fill-opacity="1" stroke="#000000" stroke-opacity="1" stroke-width="3.2"/>
<circle clip-path="url(#clip502)" cx="2136.39" cy="998.681" r="14.4" fill="#009af9" fill-rule="evenodd" fill-opacity="1" stroke="#000000" stroke-opacity="1" stroke-width="3.2"/>
<circle clip-path="url(#clip502)" cx="2153.06" cy="998.878" r="14.4" fill="#009af9" fill-rule="evenodd" fill-opacity="1" stroke="#000000" stroke-opacity="1" stroke-width="3.2"/>
<circle clip-path="url(#clip502)" cx="2292.44" cy="1125.67" r="14.4" fill="#009af9" fill-rule="evenodd" fill-opacity="1" stroke="#000000" stroke-opacity="1" stroke-width="3.2"/>
<circle clip-path="url(#clip502)" cx="281.952" cy="985.085" r="14.4" fill="#e26f46" fill-rule="evenodd" fill-opacity="1" stroke="#000000" stroke-opacity="1" stroke-width="3.2"/>
<circle clip-path="url(#clip502)" cx="418.566" cy="985.085" r="14.4" fill="#e26f46" fill-rule="evenodd" fill-opacity="1" stroke="#000000" stroke-opacity="1" stroke-width="3.2"/>
<circle clip-path="url(#clip502)" cx="640.908" cy="985.085" r="14.4" fill="#e26f46" fill-rule="evenodd" fill-opacity="1" stroke="#000000" stroke-opacity="1" stroke-width="3.2"/>
<circle clip-path="url(#clip502)" cx="824.104" cy="985.085" r="14.4" fill="#e26f46" fill-rule="evenodd" fill-opacity="1" stroke="#000000" stroke-opacity="1" stroke-width="3.2"/>
<circle clip-path="url(#clip502)" cx="797.133" cy="985.085" r="14.4" fill="#e26f46" fill-rule="evenodd" fill-opacity="1" stroke="#000000" stroke-opacity="1" stroke-width="3.2"/>
<circle clip-path="url(#clip502)" cx="797.133" cy="985.085" r="14.4" fill="#e26f46" fill-rule="evenodd" fill-opacity="1" stroke="#000000" stroke-opacity="1" stroke-width="3.2"/>
<circle clip-path="url(#clip502)" cx="837.269" cy="985.085" r="14.4" fill="#e26f46" fill-rule="evenodd" fill-opacity="1" stroke="#000000" stroke-opacity="1" stroke-width="3.2"/>
<circle clip-path="url(#clip502)" cx="941.597" cy="985.085" r="14.4" fill="#e26f46" fill-rule="evenodd" fill-opacity="1" stroke="#000000" stroke-opacity="1" stroke-width="3.2"/>
<circle clip-path="url(#clip502)" cx="974.319" cy="985.085" r="14.4" fill="#e26f46" fill-rule="evenodd" fill-opacity="1" stroke="#000000" stroke-opacity="1" stroke-width="3.2"/>
<circle clip-path="url(#clip502)" cx="1078.94" cy="985.085" r="14.4" fill="#e26f46" fill-rule="evenodd" fill-opacity="1" stroke="#000000" stroke-opacity="1" stroke-width="3.2"/>
<circle clip-path="url(#clip502)" cx="1131.85" cy="985.085" r="14.4" fill="#e26f46" fill-rule="evenodd" fill-opacity="1" stroke="#000000" stroke-opacity="1" stroke-width="3.2"/>
<circle clip-path="url(#clip502)" cx="1141.58" cy="985.085" r="14.4" fill="#e26f46" fill-rule="evenodd" fill-opacity="1" stroke="#000000" stroke-opacity="1" stroke-width="3.2"/>
<circle clip-path="url(#clip502)" cx="1229.63" cy="985.085" r="14.4" fill="#e26f46" fill-rule="evenodd" fill-opacity="1" stroke="#000000" stroke-opacity="1" stroke-width="3.2"/>
<circle clip-path="url(#clip502)" cx="1334.26" cy="985.085" r="14.4" fill="#e26f46" fill-rule="evenodd" fill-opacity="1" stroke="#000000" stroke-opacity="1" stroke-width="3.2"/>
<circle clip-path="url(#clip502)" cx="1318.19" cy="985.085" r="14.4" fill="#e26f46" fill-rule="evenodd" fill-opacity="1" stroke="#000000" stroke-opacity="1" stroke-width="3.2"/>
<circle clip-path="url(#clip502)" cx="1448.9" cy="985.085" r="14.4" fill="#e26f46" fill-rule="evenodd" fill-opacity="1" stroke="#000000" stroke-opacity="1" stroke-width="3.2"/>
<circle clip-path="url(#clip502)" cx="1503.99" cy="985.085" r="14.4" fill="#e26f46" fill-rule="evenodd" fill-opacity="1" stroke="#000000" stroke-opacity="1" stroke-width="3.2"/>
<circle clip-path="url(#clip502)" cx="1666.92" cy="985.085" r="14.4" fill="#e26f46" fill-rule="evenodd" fill-opacity="1" stroke="#000000" stroke-opacity="1" stroke-width="3.2"/>
<circle clip-path="url(#clip502)" cx="1736.59" cy="985.085" r="14.4" fill="#e26f46" fill-rule="evenodd" fill-opacity="1" stroke="#000000" stroke-opacity="1" stroke-width="3.2"/>
<circle clip-path="url(#clip502)" cx="1733.2" cy="985.085" r="14.4" fill="#e26f46" fill-rule="evenodd" fill-opacity="1" stroke="#000000" stroke-opacity="1" stroke-width="3.2"/>
<circle clip-path="url(#clip502)" cx="1762.83" cy="985.085" r="14.4" fill="#e26f46" fill-rule="evenodd" fill-opacity="1" stroke="#000000" stroke-opacity="1" stroke-width="3.2"/>
<circle clip-path="url(#clip502)" cx="1761.19" cy="985.085" r="14.4" fill="#e26f46" fill-rule="evenodd" fill-opacity="1" stroke="#000000" stroke-opacity="1" stroke-width="3.2"/>
<circle clip-path="url(#clip502)" cx="1817.42" cy="985.085" r="14.4" fill="#e26f46" fill-rule="evenodd" fill-opacity="1" stroke="#000000" stroke-opacity="1" stroke-width="3.2"/>
<circle clip-path="url(#clip502)" cx="1820.17" cy="985.085" r="14.4" fill="#e26f46" fill-rule="evenodd" fill-opacity="1" stroke="#000000" stroke-opacity="1" stroke-width="3.2"/>
<circle clip-path="url(#clip502)" cx="1848.83" cy="985.085" r="14.4" fill="#e26f46" fill-rule="evenodd" fill-opacity="1" stroke="#000000" stroke-opacity="1" stroke-width="3.2"/>
<circle clip-path="url(#clip502)" cx="1809.64" cy="985.085" r="14.4" fill="#e26f46" fill-rule="evenodd" fill-opacity="1" stroke="#000000" stroke-opacity="1" stroke-width="3.2"/>
<circle clip-path="url(#clip502)" cx="1815.2" cy="985.085" r="14.4" fill="#e26f46" fill-rule="evenodd" fill-opacity="1" stroke="#000000" stroke-opacity="1" stroke-width="3.2"/>
<circle clip-path="url(#clip502)" cx="1925.63" cy="985.085" r="14.4" fill="#e26f46" fill-rule="evenodd" fill-opacity="1" stroke="#000000" stroke-opacity="1" stroke-width="3.2"/>
<circle clip-path="url(#clip502)" cx="1934.56" cy="985.085" r="14.4" fill="#e26f46" fill-rule="evenodd" fill-opacity="1" stroke="#000000" stroke-opacity="1" stroke-width="3.2"/>
<circle clip-path="url(#clip502)" cx="1947.21" cy="985.085" r="14.4" fill="#e26f46" fill-rule="evenodd" fill-opacity="1" stroke="#000000" stroke-opacity="1" stroke-width="3.2"/>
<circle clip-path="url(#clip502)" cx="1967.83" cy="985.085" r="14.4" fill="#e26f46" fill-rule="evenodd" fill-opacity="1" stroke="#000000" stroke-opacity="1" stroke-width="3.2"/>
<circle clip-path="url(#clip502)" cx="1922.33" cy="985.085" r="14.4" fill="#e26f46" fill-rule="evenodd" fill-opacity="1" stroke="#000000" stroke-opacity="1" stroke-width="3.2"/>
<circle clip-path="url(#clip502)" cx="1961.74" cy="985.085" r="14.4" fill="#e26f46" fill-rule="evenodd" fill-opacity="1" stroke="#000000" stroke-opacity="1" stroke-width="3.2"/>
<circle clip-path="url(#clip502)" cx="1941.67" cy="985.085" r="14.4" fill="#e26f46" fill-rule="evenodd" fill-opacity="1" stroke="#000000" stroke-opacity="1" stroke-width="3.2"/>
<circle clip-path="url(#clip502)" cx="2106.66" cy="985.085" r="14.4" fill="#e26f46" fill-rule="evenodd" fill-opacity="1" stroke="#000000" stroke-opacity="1" stroke-width="3.2"/>
<circle clip-path="url(#clip502)" cx="2125.38" cy="985.085" r="14.4" fill="#e26f46" fill-rule="evenodd" fill-opacity="1" stroke="#000000" stroke-opacity="1" stroke-width="3.2"/>
<circle clip-path="url(#clip502)" cx="2120.06" cy="985.085" r="14.4" fill="#e26f46" fill-rule="evenodd" fill-opacity="1" stroke="#000000" stroke-opacity="1" stroke-width="3.2"/>
<circle clip-path="url(#clip502)" cx="2136.39" cy="985.085" r="14.4" fill="#e26f46" fill-rule="evenodd" fill-opacity="1" stroke="#000000" stroke-opacity="1" stroke-width="3.2"/>
<circle clip-path="url(#clip502)" cx="2153.06" cy="985.085" r="14.4" fill="#e26f46" fill-rule="evenodd" fill-opacity="1" stroke="#000000" stroke-opacity="1" stroke-width="3.2"/>
<circle clip-path="url(#clip502)" cx="2292.44" cy="985.085" r="14.4" fill="#e26f46" fill-rule="evenodd" fill-opacity="1" stroke="#000000" stroke-opacity="1" stroke-width="3.2"/>
<circle clip-path="url(#clip502)" cx="281.952" cy="1341.86" r="14.4" fill="#3da44d" fill-rule="evenodd" fill-opacity="1" stroke="#000000" stroke-opacity="1" stroke-width="3.2"/>
<circle clip-path="url(#clip502)" cx="418.566" cy="1284.18" r="14.4" fill="#3da44d" fill-rule="evenodd" fill-opacity="1" stroke="#000000" stroke-opacity="1" stroke-width="3.2"/>
<circle clip-path="url(#clip502)" cx="640.908" cy="1151.59" r="14.4" fill="#3da44d" fill-rule="evenodd" fill-opacity="1" stroke="#000000" stroke-opacity="1" stroke-width="3.2"/>
<circle clip-path="url(#clip502)" cx="824.104" cy="1053.19" r="14.4" fill="#3da44d" fill-rule="evenodd" fill-opacity="1" stroke="#000000" stroke-opacity="1" stroke-width="3.2"/>
<circle clip-path="url(#clip502)" cx="797.133" cy="1035.17" r="14.4" fill="#3da44d" fill-rule="evenodd" fill-opacity="1" stroke="#000000" stroke-opacity="1" stroke-width="3.2"/>
<circle clip-path="url(#clip502)" cx="797.133" cy="1046.98" r="14.4" fill="#3da44d" fill-rule="evenodd" fill-opacity="1" stroke="#000000" stroke-opacity="1" stroke-width="3.2"/>
<circle clip-path="url(#clip502)" cx="837.269" cy="1371.66" r="14.4" fill="#3da44d" fill-rule="evenodd" fill-opacity="1" stroke="#000000" stroke-opacity="1" stroke-width="3.2"/>
<circle clip-path="url(#clip502)" cx="941.597" cy="963.207" r="14.4" fill="#3da44d" fill-rule="evenodd" fill-opacity="1" stroke="#000000" stroke-opacity="1" stroke-width="3.2"/>
<circle clip-path="url(#clip502)" cx="974.319" cy="923.97" r="14.4" fill="#3da44d" fill-rule="evenodd" fill-opacity="1" stroke="#000000" stroke-opacity="1" stroke-width="3.2"/>
<circle clip-path="url(#clip502)" cx="1078.94" cy="819.24" r="14.4" fill="#3da44d" fill-rule="evenodd" fill-opacity="1" stroke="#000000" stroke-opacity="1" stroke-width="3.2"/>
<circle clip-path="url(#clip502)" cx="1131.85" cy="853.901" r="14.4" fill="#3da44d" fill-rule="evenodd" fill-opacity="1" stroke="#000000" stroke-opacity="1" stroke-width="3.2"/>
<circle clip-path="url(#clip502)" cx="1141.58" cy="850.186" r="14.4" fill="#3da44d" fill-rule="evenodd" fill-opacity="1" stroke="#000000" stroke-opacity="1" stroke-width="3.2"/>
<circle clip-path="url(#clip502)" cx="1229.63" cy="814.237" r="14.4" fill="#3da44d" fill-rule="evenodd" fill-opacity="1" stroke="#000000" stroke-opacity="1" stroke-width="3.2"/>
<circle clip-path="url(#clip502)" cx="1334.26" cy="631.849" r="14.4" fill="#3da44d" fill-rule="evenodd" fill-opacity="1" stroke="#000000" stroke-opacity="1" stroke-width="3.2"/>
<circle clip-path="url(#clip502)" cx="1318.19" cy="782.57" r="14.4" fill="#3da44d" fill-rule="evenodd" fill-opacity="1" stroke="#000000" stroke-opacity="1" stroke-width="3.2"/>
<circle clip-path="url(#clip502)" cx="1448.9" cy="602.031" r="14.4" fill="#3da44d" fill-rule="evenodd" fill-opacity="1" stroke="#000000" stroke-opacity="1" stroke-width="3.2"/>
<circle clip-path="url(#clip502)" cx="1503.99" cy="565.222" r="14.4" fill="#3da44d" fill-rule="evenodd" fill-opacity="1" stroke="#000000" stroke-opacity="1" stroke-width="3.2"/>
<circle clip-path="url(#clip502)" cx="1666.92" cy="416.48" r="14.4" fill="#3da44d" fill-rule="evenodd" fill-opacity="1" stroke="#000000" stroke-opacity="1" stroke-width="3.2"/>
<circle clip-path="url(#clip502)" cx="1736.59" cy="570.668" r="14.4" fill="#3da44d" fill-rule="evenodd" fill-opacity="1" stroke="#000000" stroke-opacity="1" stroke-width="3.2"/>
<circle clip-path="url(#clip502)" cx="1733.2" cy="85.838" r="14.4" fill="#3da44d" fill-rule="evenodd" fill-opacity="1" stroke="#000000" stroke-opacity="1" stroke-width="3.2"/>
<circle clip-path="url(#clip502)" cx="1762.83" cy="254.702" r="14.4" fill="#3da44d" fill-rule="evenodd" fill-opacity="1" stroke="#000000" stroke-opacity="1" stroke-width="3.2"/>
<circle clip-path="url(#clip502)" cx="1761.19" cy="280.387" r="14.4" fill="#3da44d" fill-rule="evenodd" fill-opacity="1" stroke="#000000" stroke-opacity="1" stroke-width="3.2"/>
<circle clip-path="url(#clip502)" cx="1817.42" cy="259.182" r="14.4" fill="#3da44d" fill-rule="evenodd" fill-opacity="1" stroke="#000000" stroke-opacity="1" stroke-width="3.2"/>
<circle clip-path="url(#clip502)" cx="1820.17" cy="312.623" r="14.4" fill="#3da44d" fill-rule="evenodd" fill-opacity="1" stroke="#000000" stroke-opacity="1" stroke-width="3.2"/>
<circle clip-path="url(#clip502)" cx="1848.83" cy="316.954" r="14.4" fill="#3da44d" fill-rule="evenodd" fill-opacity="1" stroke="#000000" stroke-opacity="1" stroke-width="3.2"/>
<circle clip-path="url(#clip502)" cx="1809.64" cy="1033.36" r="14.4" fill="#3da44d" fill-rule="evenodd" fill-opacity="1" stroke="#000000" stroke-opacity="1" stroke-width="3.2"/>
<circle clip-path="url(#clip502)" cx="1815.2" cy="437.899" r="14.4" fill="#3da44d" fill-rule="evenodd" fill-opacity="1" stroke="#000000" stroke-opacity="1" stroke-width="3.2"/>
<circle clip-path="url(#clip502)" cx="1925.63" cy="598.06" r="14.4" fill="#3da44d" fill-rule="evenodd" fill-opacity="1" stroke="#000000" stroke-opacity="1" stroke-width="3.2"/>
<circle clip-path="url(#clip502)" cx="1934.56" cy="998.928" r="14.4" fill="#3da44d" fill-rule="evenodd" fill-opacity="1" stroke="#000000" stroke-opacity="1" stroke-width="3.2"/>
<circle clip-path="url(#clip502)" cx="1947.21" cy="529.887" r="14.4" fill="#3da44d" fill-rule="evenodd" fill-opacity="1" stroke="#000000" stroke-opacity="1" stroke-width="3.2"/>
<circle clip-path="url(#clip502)" cx="1967.83" cy="1043.5" r="14.4" fill="#3da44d" fill-rule="evenodd" fill-opacity="1" stroke="#000000" stroke-opacity="1" stroke-width="3.2"/>
<circle clip-path="url(#clip502)" cx="1922.33" cy="866.284" r="14.4" fill="#3da44d" fill-rule="evenodd" fill-opacity="1" stroke="#000000" stroke-opacity="1" stroke-width="3.2"/>
<circle clip-path="url(#clip502)" cx="1961.74" cy="515.842" r="14.4" fill="#3da44d" fill-rule="evenodd" fill-opacity="1" stroke="#000000" stroke-opacity="1" stroke-width="3.2"/>
<circle clip-path="url(#clip502)" cx="1941.67" cy="318.698" r="14.4" fill="#3da44d" fill-rule="evenodd" fill-opacity="1" stroke="#000000" stroke-opacity="1" stroke-width="3.2"/>
<circle clip-path="url(#clip502)" cx="2106.66" cy="854.818" r="14.4" fill="#3da44d" fill-rule="evenodd" fill-opacity="1" stroke="#000000" stroke-opacity="1" stroke-width="3.2"/>
<circle clip-path="url(#clip502)" cx="2125.38" cy="723.714" r="14.4" fill="#3da44d" fill-rule="evenodd" fill-opacity="1" stroke="#000000" stroke-opacity="1" stroke-width="3.2"/>
<circle clip-path="url(#clip502)" cx="2120.06" cy="746.084" r="14.4" fill="#3da44d" fill-rule="evenodd" fill-opacity="1" stroke="#000000" stroke-opacity="1" stroke-width="3.2"/>
<circle clip-path="url(#clip502)" cx="2136.39" cy="502.127" r="14.4" fill="#3da44d" fill-rule="evenodd" fill-opacity="1" stroke="#000000" stroke-opacity="1" stroke-width="3.2"/>
<circle clip-path="url(#clip502)" cx="2153.06" cy="587.923" r="14.4" fill="#3da44d" fill-rule="evenodd" fill-opacity="1" stroke="#000000" stroke-opacity="1" stroke-width="3.2"/>
<circle clip-path="url(#clip502)" cx="2292.44" cy="714.851" r="14.4" fill="#3da44d" fill-rule="evenodd" fill-opacity="1" stroke="#000000" stroke-opacity="1" stroke-width="3.2"/>
<circle clip-path="url(#clip502)" cx="281.952" cy="1324.19" r="14.4" fill="#c271d2" fill-rule="evenodd" fill-opacity="1" stroke="#000000" stroke-opacity="1" stroke-width="3.2"/>
<circle clip-path="url(#clip502)" cx="418.566" cy="1366.81" r="14.4" fill="#c271d2" fill-rule="evenodd" fill-opacity="1" stroke="#000000" stroke-opacity="1" stroke-width="3.2"/>
<circle clip-path="url(#clip502)" cx="640.908" cy="1081.37" r="14.4" fill="#c271d2" fill-rule="evenodd" fill-opacity="1" stroke="#000000" stroke-opacity="1" stroke-width="3.2"/>
<circle clip-path="url(#clip502)" cx="824.104" cy="1147.58" r="14.4" fill="#c271d2" fill-rule="evenodd" fill-opacity="1" stroke="#000000" stroke-opacity="1" stroke-width="3.2"/>
<circle clip-path="url(#clip502)" cx="797.133" cy="1014.8" r="14.4" fill="#c271d2" fill-rule="evenodd" fill-opacity="1" stroke="#000000" stroke-opacity="1" stroke-width="3.2"/>
<circle clip-path="url(#clip502)" cx="797.133" cy="1060.43" r="14.4" fill="#c271d2" fill-rule="evenodd" fill-opacity="1" stroke="#000000" stroke-opacity="1" stroke-width="3.2"/>
<circle clip-path="url(#clip502)" cx="837.269" cy="1028.02" r="14.4" fill="#c271d2" fill-rule="evenodd" fill-opacity="1" stroke="#000000" stroke-opacity="1" stroke-width="3.2"/>
<circle clip-path="url(#clip502)" cx="941.597" cy="1010.52" r="14.4" fill="#c271d2" fill-rule="evenodd" fill-opacity="1" stroke="#000000" stroke-opacity="1" stroke-width="3.2"/>
<circle clip-path="url(#clip502)" cx="974.319" cy="880.973" r="14.4" fill="#c271d2" fill-rule="evenodd" fill-opacity="1" stroke="#000000" stroke-opacity="1" stroke-width="3.2"/>
<circle clip-path="url(#clip502)" cx="1078.94" cy="743.078" r="14.4" fill="#c271d2" fill-rule="evenodd" fill-opacity="1" stroke="#000000" stroke-opacity="1" stroke-width="3.2"/>
<circle clip-path="url(#clip502)" cx="1131.85" cy="755.18" r="14.4" fill="#c271d2" fill-rule="evenodd" fill-opacity="1" stroke="#000000" stroke-opacity="1" stroke-width="3.2"/>
<circle clip-path="url(#clip502)" cx="1141.58" cy="818.502" r="14.4" fill="#c271d2" fill-rule="evenodd" fill-opacity="1" stroke="#000000" stroke-opacity="1" stroke-width="3.2"/>
<circle clip-path="url(#clip502)" cx="1229.63" cy="793.786" r="14.4" fill="#c271d2" fill-rule="evenodd" fill-opacity="1" stroke="#000000" stroke-opacity="1" stroke-width="3.2"/>
<circle clip-path="url(#clip502)" cx="1334.26" cy="554.633" r="14.4" fill="#c271d2" fill-rule="evenodd" fill-opacity="1" stroke="#000000" stroke-opacity="1" stroke-width="3.2"/>
<circle clip-path="url(#clip502)" cx="1318.19" cy="679.424" r="14.4" fill="#c271d2" fill-rule="evenodd" fill-opacity="1" stroke="#000000" stroke-opacity="1" stroke-width="3.2"/>
<circle clip-path="url(#clip502)" cx="1448.9" cy="553.252" r="14.4" fill="#c271d2" fill-rule="evenodd" fill-opacity="1" stroke="#000000" stroke-opacity="1" stroke-width="3.2"/>
<circle clip-path="url(#clip502)" cx="1503.99" cy="521.007" r="14.4" fill="#c271d2" fill-rule="evenodd" fill-opacity="1" stroke="#000000" stroke-opacity="1" stroke-width="3.2"/>
<circle clip-path="url(#clip502)" cx="1666.92" cy="370.735" r="14.4" fill="#c271d2" fill-rule="evenodd" fill-opacity="1" stroke="#000000" stroke-opacity="1" stroke-width="3.2"/>
<circle clip-path="url(#clip502)" cx="1736.59" cy="447.703" r="14.4" fill="#c271d2" fill-rule="evenodd" fill-opacity="1" stroke="#000000" stroke-opacity="1" stroke-width="3.2"/>
<circle clip-path="url(#clip502)" cx="1733.2" cy="364.332" r="14.4" fill="#c271d2" fill-rule="evenodd" fill-opacity="1" stroke="#000000" stroke-opacity="1" stroke-width="3.2"/>
<circle clip-path="url(#clip502)" cx="1762.83" cy="178.356" r="14.4" fill="#c271d2" fill-rule="evenodd" fill-opacity="1" stroke="#000000" stroke-opacity="1" stroke-width="3.2"/>
<circle clip-path="url(#clip502)" cx="1761.19" cy="192.04" r="14.4" fill="#c271d2" fill-rule="evenodd" fill-opacity="1" stroke="#000000" stroke-opacity="1" stroke-width="3.2"/>
<circle clip-path="url(#clip502)" cx="1817.42" cy="329.977" r="14.4" fill="#c271d2" fill-rule="evenodd" fill-opacity="1" stroke="#000000" stroke-opacity="1" stroke-width="3.2"/>
<circle clip-path="url(#clip502)" cx="1820.17" cy="324.874" r="14.4" fill="#c271d2" fill-rule="evenodd" fill-opacity="1" stroke="#000000" stroke-opacity="1" stroke-width="3.2"/>
<circle clip-path="url(#clip502)" cx="1848.83" cy="232.781" r="14.4" fill="#c271d2" fill-rule="evenodd" fill-opacity="1" stroke="#000000" stroke-opacity="1" stroke-width="3.2"/>
<circle clip-path="url(#clip502)" cx="1809.64" cy="379.745" r="14.4" fill="#c271d2" fill-rule="evenodd" fill-opacity="1" stroke="#000000" stroke-opacity="1" stroke-width="3.2"/>
<circle clip-path="url(#clip502)" cx="1815.2" cy="323.125" r="14.4" fill="#c271d2" fill-rule="evenodd" fill-opacity="1" stroke="#000000" stroke-opacity="1" stroke-width="3.2"/>
<circle clip-path="url(#clip502)" cx="1925.63" cy="419.295" r="14.4" fill="#c271d2" fill-rule="evenodd" fill-opacity="1" stroke="#000000" stroke-opacity="1" stroke-width="3.2"/>
<circle clip-path="url(#clip502)" cx="1934.56" cy="589.48" r="14.4" fill="#c271d2" fill-rule="evenodd" fill-opacity="1" stroke="#000000" stroke-opacity="1" stroke-width="3.2"/>
<circle clip-path="url(#clip502)" cx="1947.21" cy="386.388" r="14.4" fill="#c271d2" fill-rule="evenodd" fill-opacity="1" stroke="#000000" stroke-opacity="1" stroke-width="3.2"/>
<circle clip-path="url(#clip502)" cx="1967.83" cy="402.743" r="14.4" fill="#c271d2" fill-rule="evenodd" fill-opacity="1" stroke="#000000" stroke-opacity="1" stroke-width="3.2"/>
<circle clip-path="url(#clip502)" cx="1922.33" cy="679.483" r="14.4" fill="#c271d2" fill-rule="evenodd" fill-opacity="1" stroke="#000000" stroke-opacity="1" stroke-width="3.2"/>
<circle clip-path="url(#clip502)" cx="1961.74" cy="465.235" r="14.4" fill="#c271d2" fill-rule="evenodd" fill-opacity="1" stroke="#000000" stroke-opacity="1" stroke-width="3.2"/>
<circle clip-path="url(#clip502)" cx="1941.67" cy="296.641" r="14.4" fill="#c271d2" fill-rule="evenodd" fill-opacity="1" stroke="#000000" stroke-opacity="1" stroke-width="3.2"/>
<circle clip-path="url(#clip502)" cx="2106.66" cy="583.959" r="14.4" fill="#c271d2" fill-rule="evenodd" fill-opacity="1" stroke="#000000" stroke-opacity="1" stroke-width="3.2"/>
<circle clip-path="url(#clip502)" cx="2125.38" cy="634.86" r="14.4" fill="#c271d2" fill-rule="evenodd" fill-opacity="1" stroke="#000000" stroke-opacity="1" stroke-width="3.2"/>
<circle clip-path="url(#clip502)" cx="2120.06" cy="556.946" r="14.4" fill="#c271d2" fill-rule="evenodd" fill-opacity="1" stroke="#000000" stroke-opacity="1" stroke-width="3.2"/>
<circle clip-path="url(#clip502)" cx="2136.39" cy="468.417" r="14.4" fill="#c271d2" fill-rule="evenodd" fill-opacity="1" stroke="#000000" stroke-opacity="1" stroke-width="3.2"/>
<circle clip-path="url(#clip502)" cx="2153.06" cy="578.193" r="14.4" fill="#c271d2" fill-rule="evenodd" fill-opacity="1" stroke="#000000" stroke-opacity="1" stroke-width="3.2"/>
<circle clip-path="url(#clip502)" cx="2292.44" cy="722.041" r="14.4" fill="#c271d2" fill-rule="evenodd" fill-opacity="1" stroke="#000000" stroke-opacity="1" stroke-width="3.2"/>
<circle clip-path="url(#clip502)" cx="281.952" cy="1372.3" r="14.4" fill="#ac8d18" fill-rule="evenodd" fill-opacity="1" stroke="#000000" stroke-opacity="1" stroke-width="3.2"/>
<circle clip-path="url(#clip502)" cx="418.566" cy="1337.03" r="14.4" fill="#ac8d18" fill-rule="evenodd" fill-opacity="1" stroke="#000000" stroke-opacity="1" stroke-width="3.2"/>
<circle clip-path="url(#clip502)" cx="640.908" cy="1143.89" r="14.4" fill="#ac8d18" fill-rule="evenodd" fill-opacity="1" stroke="#000000" stroke-opacity="1" stroke-width="3.2"/>
<circle clip-path="url(#clip502)" cx="824.104" cy="1069.48" r="14.4" fill="#ac8d18" fill-rule="evenodd" fill-opacity="1" stroke="#000000" stroke-opacity="1" stroke-width="3.2"/>
<circle clip-path="url(#clip502)" cx="797.133" cy="1101.7" r="14.4" fill="#ac8d18" fill-rule="evenodd" fill-opacity="1" stroke="#000000" stroke-opacity="1" stroke-width="3.2"/>
<circle clip-path="url(#clip502)" cx="797.133" cy="1128.05" r="14.4" fill="#ac8d18" fill-rule="evenodd" fill-opacity="1" stroke="#000000" stroke-opacity="1" stroke-width="3.2"/>
<circle clip-path="url(#clip502)" cx="837.269" cy="1231.88" r="14.4" fill="#ac8d18" fill-rule="evenodd" fill-opacity="1" stroke="#000000" stroke-opacity="1" stroke-width="3.2"/>
<circle clip-path="url(#clip502)" cx="941.597" cy="1180.41" r="14.4" fill="#ac8d18" fill-rule="evenodd" fill-opacity="1" stroke="#000000" stroke-opacity="1" stroke-width="3.2"/>
<circle clip-path="url(#clip502)" cx="974.319" cy="937.956" r="14.4" fill="#ac8d18" fill-rule="evenodd" fill-opacity="1" stroke="#000000" stroke-opacity="1" stroke-width="3.2"/>
<circle clip-path="url(#clip502)" cx="1078.94" cy="723.612" r="14.4" fill="#ac8d18" fill-rule="evenodd" fill-opacity="1" stroke="#000000" stroke-opacity="1" stroke-width="3.2"/>
<circle clip-path="url(#clip502)" cx="1131.85" cy="978.157" r="14.4" fill="#ac8d18" fill-rule="evenodd" fill-opacity="1" stroke="#000000" stroke-opacity="1" stroke-width="3.2"/>
<circle clip-path="url(#clip502)" cx="1141.58" cy="908.283" r="14.4" fill="#ac8d18" fill-rule="evenodd" fill-opacity="1" stroke="#000000" stroke-opacity="1" stroke-width="3.2"/>
<circle clip-path="url(#clip502)" cx="1229.63" cy="725.558" r="14.4" fill="#ac8d18" fill-rule="evenodd" fill-opacity="1" stroke="#000000" stroke-opacity="1" stroke-width="3.2"/>
<circle clip-path="url(#clip502)" cx="1334.26" cy="1031.63" r="14.4" fill="#ac8d18" fill-rule="evenodd" fill-opacity="1" stroke="#000000" stroke-opacity="1" stroke-width="3.2"/>
<circle clip-path="url(#clip502)" cx="1318.19" cy="970.946" r="14.4" fill="#ac8d18" fill-rule="evenodd" fill-opacity="1" stroke="#000000" stroke-opacity="1" stroke-width="3.2"/>
<circle clip-path="url(#clip502)" cx="1448.9" cy="689.218" r="14.4" fill="#ac8d18" fill-rule="evenodd" fill-opacity="1" stroke="#000000" stroke-opacity="1" stroke-width="3.2"/>
<circle clip-path="url(#clip502)" cx="1503.99" cy="729.12" r="14.4" fill="#ac8d18" fill-rule="evenodd" fill-opacity="1" stroke="#000000" stroke-opacity="1" stroke-width="3.2"/>
<circle clip-path="url(#clip502)" cx="1666.92" cy="557.912" r="14.4" fill="#ac8d18" fill-rule="evenodd" fill-opacity="1" stroke="#000000" stroke-opacity="1" stroke-width="3.2"/>
<circle clip-path="url(#clip502)" cx="1736.59" cy="772.83" r="14.4" fill="#ac8d18" fill-rule="evenodd" fill-opacity="1" stroke="#000000" stroke-opacity="1" stroke-width="3.2"/>
<circle clip-path="url(#clip502)" cx="1733.2" cy="796.522" r="14.4" fill="#ac8d18" fill-rule="evenodd" fill-opacity="1" stroke="#000000" stroke-opacity="1" stroke-width="3.2"/>
<circle clip-path="url(#clip502)" cx="1762.83" cy="101.392" r="14.4" fill="#ac8d18" fill-rule="evenodd" fill-opacity="1" stroke="#000000" stroke-opacity="1" stroke-width="3.2"/>
<circle clip-path="url(#clip502)" cx="1761.19" cy="537.817" r="14.4" fill="#ac8d18" fill-rule="evenodd" fill-opacity="1" stroke="#000000" stroke-opacity="1" stroke-width="3.2"/>
<circle clip-path="url(#clip502)" cx="1817.42" cy="557.426" r="14.4" fill="#ac8d18" fill-rule="evenodd" fill-opacity="1" stroke="#000000" stroke-opacity="1" stroke-width="3.2"/>
<circle clip-path="url(#clip502)" cx="1820.17" cy="633.729" r="14.4" fill="#ac8d18" fill-rule="evenodd" fill-opacity="1" stroke="#000000" stroke-opacity="1" stroke-width="3.2"/>
<circle clip-path="url(#clip502)" cx="1848.83" cy="423.662" r="14.4" fill="#ac8d18" fill-rule="evenodd" fill-opacity="1" stroke="#000000" stroke-opacity="1" stroke-width="3.2"/>
<circle clip-path="url(#clip502)" cx="1809.64" cy="598.02" r="14.4" fill="#ac8d18" fill-rule="evenodd" fill-opacity="1" stroke="#000000" stroke-opacity="1" stroke-width="3.2"/>
<circle clip-path="url(#clip502)" cx="1815.2" cy="528.596" r="14.4" fill="#ac8d18" fill-rule="evenodd" fill-opacity="1" stroke="#000000" stroke-opacity="1" stroke-width="3.2"/>
<circle clip-path="url(#clip502)" cx="1925.63" cy="932.301" r="14.4" fill="#ac8d18" fill-rule="evenodd" fill-opacity="1" stroke="#000000" stroke-opacity="1" stroke-width="3.2"/>
<circle clip-path="url(#clip502)" cx="1934.56" cy="978.772" r="14.4" fill="#ac8d18" fill-rule="evenodd" fill-opacity="1" stroke="#000000" stroke-opacity="1" stroke-width="3.2"/>
<circle clip-path="url(#clip502)" cx="1947.21" cy="674.732" r="14.4" fill="#ac8d18" fill-rule="evenodd" fill-opacity="1" stroke="#000000" stroke-opacity="1" stroke-width="3.2"/>
<circle clip-path="url(#clip502)" cx="1967.83" cy="727.892" r="14.4" fill="#ac8d18" fill-rule="evenodd" fill-opacity="1" stroke="#000000" stroke-opacity="1" stroke-width="3.2"/>
<circle clip-path="url(#clip502)" cx="1922.33" cy="691.983" r="14.4" fill="#ac8d18" fill-rule="evenodd" fill-opacity="1" stroke="#000000" stroke-opacity="1" stroke-width="3.2"/>
<circle clip-path="url(#clip502)" cx="1961.74" cy="978.625" r="14.4" fill="#ac8d18" fill-rule="evenodd" fill-opacity="1" stroke="#000000" stroke-opacity="1" stroke-width="3.2"/>
<circle clip-path="url(#clip502)" cx="1941.67" cy="312.752" r="14.4" fill="#ac8d18" fill-rule="evenodd" fill-opacity="1" stroke="#000000" stroke-opacity="1" stroke-width="3.2"/>
<circle clip-path="url(#clip502)" cx="2106.66" cy="655.659" r="14.4" fill="#ac8d18" fill-rule="evenodd" fill-opacity="1" stroke="#000000" stroke-opacity="1" stroke-width="3.2"/>
<circle clip-path="url(#clip502)" cx="2125.38" cy="718.015" r="14.4" fill="#ac8d18" fill-rule="evenodd" fill-opacity="1" stroke="#000000" stroke-opacity="1" stroke-width="3.2"/>
<circle clip-path="url(#clip502)" cx="2120.06" cy="850.816" r="14.4" fill="#ac8d18" fill-rule="evenodd" fill-opacity="1" stroke="#000000" stroke-opacity="1" stroke-width="3.2"/>
<circle clip-path="url(#clip502)" cx="2136.39" cy="701.68" r="14.4" fill="#ac8d18" fill-rule="evenodd" fill-opacity="1" stroke="#000000" stroke-opacity="1" stroke-width="3.2"/>
<circle clip-path="url(#clip502)" cx="2153.06" cy="849.748" r="14.4" fill="#ac8d18" fill-rule="evenodd" fill-opacity="1" stroke="#000000" stroke-opacity="1" stroke-width="3.2"/>
<circle clip-path="url(#clip502)" cx="2292.44" cy="921.645" r="14.4" fill="#ac8d18" fill-rule="evenodd" fill-opacity="1" stroke="#000000" stroke-opacity="1" stroke-width="3.2"/>
<path clip-path="url(#clip500)" d="M292.674 403.739 L1123.38 403.739 L1123.38 92.6992 L292.674 92.6992  Z" fill="#ffffff" fill-rule="evenodd" fill-opacity="1"/>
<polyline clip-path="url(#clip500)" style="stroke:#000000; stroke-linecap:round; stroke-linejoin:round; stroke-width:4; stroke-opacity:1; fill:none" points="292.674,403.739 1123.38,403.739 1123.38,92.6992 292.674,92.6992 292.674,403.739 "/>
<circle clip-path="url(#clip500)" cx="387.391" cy="144.539" r="20.48" fill="#009af9" fill-rule="evenodd" fill-opacity="1" stroke="#000000" stroke-opacity="1" stroke-width="4.55111"/>
<path clip-path="url(#clip500)" d="M482.107 127.259 L489.075 127.259 L497.894 150.778 L506.76 127.259 L513.727 127.259 L513.727 161.819 L509.167 161.819 L509.167 131.472 L500.255 155.176 L495.556 155.176 L486.644 131.472 L486.644 161.819 L482.107 161.819 L482.107 127.259 Z" fill="#000000" fill-rule="nonzero" fill-opacity="1" /><path clip-path="url(#clip500)" d="M534.607 148.787 Q529.445 148.787 527.454 149.967 Q525.463 151.148 525.463 153.995 Q525.463 156.264 526.945 157.606 Q528.45 158.926 531.019 158.926 Q534.561 158.926 536.69 156.426 Q538.843 153.903 538.843 149.736 L538.843 148.787 L534.607 148.787 M543.102 147.028 L543.102 161.819 L538.843 161.819 L538.843 157.884 Q537.385 160.245 535.209 161.379 Q533.033 162.49 529.885 162.49 Q525.903 162.49 523.542 160.268 Q521.204 158.023 521.204 154.273 Q521.204 149.898 524.121 147.676 Q527.061 145.454 532.871 145.454 L538.843 145.454 L538.843 145.037 Q538.843 142.097 536.899 140.5 Q534.977 138.879 531.482 138.879 Q529.26 138.879 527.153 139.412 Q525.047 139.944 523.102 141.009 L523.102 137.074 Q525.44 136.171 527.639 135.731 Q529.838 135.268 531.922 135.268 Q537.547 135.268 540.324 138.185 Q543.102 141.102 543.102 147.028 Z" fill="#000000" fill-rule="nonzero" fill-opacity="1" /><path clip-path="url(#clip500)" d="M568.935 139.829 L568.935 125.801 L573.195 125.801 L573.195 161.819 L568.935 161.819 L568.935 157.93 Q567.593 160.245 565.533 161.379 Q563.496 162.49 560.625 162.49 Q555.926 162.49 552.963 158.74 Q550.023 154.991 550.023 148.879 Q550.023 142.768 552.963 139.018 Q555.926 135.268 560.625 135.268 Q563.496 135.268 565.533 136.403 Q567.593 137.514 568.935 139.829 M554.422 148.879 Q554.422 153.578 556.343 156.264 Q558.287 158.926 561.667 158.926 Q565.047 158.926 566.991 156.264 Q568.935 153.578 568.935 148.879 Q568.935 144.18 566.991 141.518 Q565.047 138.833 561.667 138.833 Q558.287 138.833 556.343 141.518 Q554.422 144.18 554.422 148.879 Z" fill="#000000" fill-rule="nonzero" fill-opacity="1" /><path clip-path="url(#clip500)" d="M582.153 127.259 L588.449 127.259 L603.773 156.171 L603.773 127.259 L608.31 127.259 L608.31 161.819 L602.014 161.819 L586.69 132.907 L586.69 161.819 L582.153 161.819 L582.153 127.259 Z" fill="#000000" fill-rule="nonzero" fill-opacity="1" /><path clip-path="url(#clip500)" d="M617.616 127.259 L622.292 127.259 L622.292 157.884 L639.12 157.884 L639.12 161.819 L617.616 161.819 L617.616 127.259 Z" fill="#000000" fill-rule="nonzero" fill-opacity="1" /><path clip-path="url(#clip500)" d="M648.703 131.102 L648.703 144.088 L654.583 144.088 Q657.847 144.088 659.629 142.398 Q661.412 140.708 661.412 137.583 Q661.412 134.481 659.629 132.792 Q657.847 131.102 654.583 131.102 L648.703 131.102 M644.028 127.259 L654.583 127.259 Q660.393 127.259 663.356 129.898 Q666.342 132.514 666.342 137.583 Q666.342 142.699 663.356 145.315 Q660.393 147.93 654.583 147.93 L648.703 147.93 L648.703 161.819 L644.028 161.819 L644.028 127.259 Z" fill="#000000" fill-rule="nonzero" fill-opacity="1" /><path clip-path="url(#clip500)" d="M689.768 132.097 L689.768 144.991 L702.662 144.991 L702.662 148.926 L689.768 148.926 L689.768 161.819 L685.879 161.819 L685.879 148.926 L672.986 148.926 L672.986 144.991 L685.879 144.991 L685.879 132.097 L689.768 132.097 Z" fill="#000000" fill-rule="nonzero" fill-opacity="1" /><path clip-path="url(#clip500)" d="M712.337 127.259 L719.305 127.259 L728.124 150.778 L736.99 127.259 L743.958 127.259 L743.958 161.819 L739.397 161.819 L739.397 131.472 L730.485 155.176 L725.786 155.176 L716.874 131.472 L716.874 161.819 L712.337 161.819 L712.337 127.259 Z" fill="#000000" fill-rule="nonzero" fill-opacity="1" /><path clip-path="url(#clip500)" d="M764.837 148.787 Q759.675 148.787 757.684 149.967 Q755.694 151.148 755.694 153.995 Q755.694 156.264 757.175 157.606 Q758.68 158.926 761.249 158.926 Q764.791 158.926 766.92 156.426 Q769.073 153.903 769.073 149.736 L769.073 148.787 L764.837 148.787 M773.332 147.028 L773.332 161.819 L769.073 161.819 L769.073 157.884 Q767.615 160.245 765.439 161.379 Q763.263 162.49 760.115 162.49 Q756.133 162.49 753.772 160.268 Q751.434 158.023 751.434 154.273 Q751.434 149.898 754.351 147.676 Q757.291 145.454 763.101 145.454 L769.073 145.454 L769.073 145.037 Q769.073 142.097 767.129 140.5 Q765.208 138.879 761.712 138.879 Q759.49 138.879 757.383 139.412 Q755.277 139.944 753.333 141.009 L753.333 137.074 Q755.671 136.171 757.87 135.731 Q760.069 135.268 762.152 135.268 Q767.777 135.268 770.555 138.185 Q773.332 141.102 773.332 147.028 Z" fill="#000000" fill-rule="nonzero" fill-opacity="1" /><path clip-path="url(#clip500)" d="M792.707 145.407 Q789.374 145.407 787.453 147.19 Q785.555 148.972 785.555 152.097 Q785.555 155.222 787.453 157.004 Q789.374 158.787 792.707 158.787 Q796.041 158.787 797.962 157.004 Q799.883 155.199 799.883 152.097 Q799.883 148.972 797.962 147.19 Q796.064 145.407 792.707 145.407 M788.031 143.417 Q785.022 142.676 783.332 140.616 Q781.666 138.555 781.666 135.592 Q781.666 131.449 784.606 129.042 Q787.568 126.634 792.707 126.634 Q797.869 126.634 800.809 129.042 Q803.749 131.449 803.749 135.592 Q803.749 138.555 802.059 140.616 Q800.392 142.676 797.406 143.417 Q800.786 144.204 802.661 146.495 Q804.559 148.787 804.559 152.097 Q804.559 157.12 801.48 159.805 Q798.425 162.49 792.707 162.49 Q786.99 162.49 783.911 159.805 Q780.856 157.12 780.856 152.097 Q780.856 148.787 782.754 146.495 Q784.652 144.204 788.031 143.417 M786.319 136.032 Q786.319 138.717 787.985 140.222 Q789.675 141.727 792.707 141.727 Q795.717 141.727 797.406 140.222 Q799.119 138.717 799.119 136.032 Q799.119 133.347 797.406 131.842 Q795.717 130.338 792.707 130.338 Q789.675 130.338 787.985 131.842 Q786.319 133.347 786.319 136.032 Z" fill="#000000" fill-rule="nonzero" fill-opacity="1" /><path clip-path="url(#clip500)" d="M823.448 142.676 Q820.3 142.676 818.448 144.829 Q816.619 146.981 816.619 150.731 Q816.619 154.458 818.448 156.634 Q820.3 158.787 823.448 158.787 Q826.596 158.787 828.425 156.634 Q830.277 154.458 830.277 150.731 Q830.277 146.981 828.425 144.829 Q826.596 142.676 823.448 142.676 M832.73 128.023 L832.73 132.282 Q830.971 131.449 829.165 131.009 Q827.383 130.569 825.624 130.569 Q820.994 130.569 818.541 133.694 Q816.11 136.819 815.763 143.139 Q817.129 141.125 819.189 140.06 Q821.249 138.972 823.726 138.972 Q828.934 138.972 831.943 142.143 Q834.976 145.291 834.976 150.731 Q834.976 156.055 831.828 159.273 Q828.679 162.49 823.448 162.49 Q817.453 162.49 814.281 157.907 Q811.11 153.301 811.11 144.574 Q811.11 136.38 814.999 131.518 Q818.888 126.634 825.439 126.634 Q827.198 126.634 828.98 126.981 Q830.786 127.329 832.73 128.023 Z" fill="#000000" fill-rule="nonzero" fill-opacity="1" /><path clip-path="url(#clip500)" d="M867.73 125.847 Q864.628 131.171 863.124 136.38 Q861.619 141.588 861.619 146.935 Q861.619 152.282 863.124 157.537 Q864.651 162.768 867.73 168.069 L864.026 168.069 Q860.554 162.629 858.818 157.375 Q857.105 152.12 857.105 146.935 Q857.105 141.773 858.818 136.542 Q860.531 131.31 864.026 125.847 L867.73 125.847 Z" fill="#000000" fill-rule="nonzero" fill-opacity="1" /><path clip-path="url(#clip500)" d="M902.059 129.921 L902.059 134.852 Q899.698 132.653 897.012 131.565 Q894.35 130.477 891.341 130.477 Q885.415 130.477 882.267 134.111 Q879.119 137.722 879.119 144.574 Q879.119 151.403 882.267 155.037 Q885.415 158.648 891.341 158.648 Q894.35 158.648 897.012 157.56 Q899.698 156.472 902.059 154.273 L902.059 159.157 Q899.605 160.824 896.85 161.657 Q894.119 162.49 891.063 162.49 Q883.216 162.49 878.702 157.699 Q874.188 152.884 874.188 144.574 Q874.188 136.241 878.702 131.449 Q883.216 126.634 891.063 126.634 Q894.165 126.634 896.897 127.468 Q899.651 128.278 902.059 129.921 Z" fill="#000000" fill-rule="nonzero" fill-opacity="1" /><path clip-path="url(#clip500)" d="M913.957 131.102 L913.957 144.088 L919.836 144.088 Q923.1 144.088 924.883 142.398 Q926.665 140.708 926.665 137.583 Q926.665 134.481 924.883 132.792 Q923.1 131.102 919.836 131.102 L913.957 131.102 M909.281 127.259 L919.836 127.259 Q925.646 127.259 928.609 129.898 Q931.595 132.514 931.595 137.583 Q931.595 142.699 928.609 145.315 Q925.646 147.93 919.836 147.93 L913.957 147.93 L913.957 161.819 L909.281 161.819 L909.281 127.259 Z" fill="#000000" fill-rule="nonzero" fill-opacity="1" /><path clip-path="url(#clip500)" d="M937.336 127.259 L942.035 127.259 L942.035 148.254 Q942.035 153.81 944.049 156.264 Q946.063 158.694 950.577 158.694 Q955.068 158.694 957.081 156.264 Q959.095 153.81 959.095 148.254 L959.095 127.259 L963.794 127.259 L963.794 148.833 Q963.794 155.592 960.438 159.041 Q957.105 162.49 950.577 162.49 Q944.026 162.49 940.67 159.041 Q937.336 155.592 937.336 148.833 L937.336 127.259 Z" fill="#000000" fill-rule="nonzero" fill-opacity="1" /><path clip-path="url(#clip500)" d="M971.711 125.847 L975.415 125.847 Q978.887 131.31 980.6 136.542 Q982.336 141.773 982.336 146.935 Q982.336 152.12 980.6 157.375 Q978.887 162.629 975.415 168.069 L971.711 168.069 Q974.79 162.768 976.294 157.537 Q977.822 152.282 977.822 146.935 Q977.822 141.588 976.294 136.38 Q974.79 131.171 971.711 125.847 Z" fill="#000000" fill-rule="nonzero" fill-opacity="1" /><circle clip-path="url(#clip500)" cx="387.391" cy="196.379" r="20.48" fill="#e26f46" fill-rule="evenodd" fill-opacity="1" stroke="#000000" stroke-opacity="1" stroke-width="4.55111"/>
<path clip-path="url(#clip500)" d="M482.107 179.099 L486.783 179.099 L486.783 213.659 L482.107 213.659 L482.107 179.099 Z" fill="#000000" fill-rule="nonzero" fill-opacity="1" /><path clip-path="url(#clip500)" d="M500.024 209.77 L500.024 223.52 L495.741 223.52 L495.741 187.733 L500.024 187.733 L500.024 191.669 Q501.366 189.354 503.403 188.243 Q505.464 187.108 508.311 187.108 Q513.033 187.108 515.973 190.858 Q518.936 194.608 518.936 200.719 Q518.936 206.831 515.973 210.58 Q513.033 214.33 508.311 214.33 Q505.464 214.33 503.403 213.219 Q501.366 212.085 500.024 209.77 M514.514 200.719 Q514.514 196.02 512.57 193.358 Q510.649 190.673 507.269 190.673 Q503.889 190.673 501.945 193.358 Q500.024 196.02 500.024 200.719 Q500.024 205.418 501.945 208.104 Q503.889 210.766 507.269 210.766 Q510.649 210.766 512.57 208.104 Q514.514 205.418 514.514 200.719 Z" fill="#000000" fill-rule="nonzero" fill-opacity="1" /><path clip-path="url(#clip500)" d="M536.042 190.719 Q532.616 190.719 530.625 193.405 Q528.635 196.067 528.635 200.719 Q528.635 205.372 530.602 208.057 Q532.593 210.719 536.042 210.719 Q539.445 210.719 541.436 208.034 Q543.426 205.349 543.426 200.719 Q543.426 196.113 541.436 193.428 Q539.445 190.719 536.042 190.719 M536.042 187.108 Q541.598 187.108 544.769 190.719 Q547.94 194.331 547.94 200.719 Q547.94 207.085 544.769 210.719 Q541.598 214.33 536.042 214.33 Q530.463 214.33 527.292 210.719 Q524.144 207.085 524.144 200.719 Q524.144 194.331 527.292 190.719 Q530.463 187.108 536.042 187.108 Z" fill="#000000" fill-rule="nonzero" fill-opacity="1" /><path clip-path="url(#clip500)" d="M559.121 209.77 L559.121 223.52 L554.838 223.52 L554.838 187.733 L559.121 187.733 L559.121 191.669 Q560.463 189.354 562.5 188.243 Q564.56 187.108 567.408 187.108 Q572.13 187.108 575.07 190.858 Q578.033 194.608 578.033 200.719 Q578.033 206.831 575.07 210.58 Q572.13 214.33 567.408 214.33 Q564.56 214.33 562.5 213.219 Q560.463 212.085 559.121 209.77 M573.611 200.719 Q573.611 196.02 571.667 193.358 Q569.746 190.673 566.366 190.673 Q562.986 190.673 561.042 193.358 Q559.121 196.02 559.121 200.719 Q559.121 205.418 561.042 208.104 Q562.986 210.766 566.366 210.766 Q569.746 210.766 571.667 208.104 Q573.611 205.418 573.611 200.719 Z" fill="#000000" fill-rule="nonzero" fill-opacity="1" /><path clip-path="url(#clip500)" d="M589.306 180.372 L589.306 187.733 L598.079 187.733 L598.079 191.044 L589.306 191.044 L589.306 205.118 Q589.306 208.289 590.162 209.192 Q591.042 210.094 593.704 210.094 L598.079 210.094 L598.079 213.659 L593.704 213.659 Q588.773 213.659 586.898 211.83 Q585.023 209.979 585.023 205.118 L585.023 191.044 L581.898 191.044 L581.898 187.733 L585.023 187.733 L585.023 180.372 L589.306 180.372 Z" fill="#000000" fill-rule="nonzero" fill-opacity="1" /><path clip-path="url(#clip500)" d="M621.018 183.937 L621.018 196.831 L633.912 196.831 L633.912 200.766 L621.018 200.766 L621.018 213.659 L617.13 213.659 L617.13 200.766 L604.236 200.766 L604.236 196.831 L617.13 196.831 L617.13 183.937 L621.018 183.937 Z" fill="#000000" fill-rule="nonzero" fill-opacity="1" /><path clip-path="url(#clip500)" d="M643.588 179.099 L650.555 179.099 L659.375 202.618 L668.24 179.099 L675.208 179.099 L675.208 213.659 L670.648 213.659 L670.648 183.312 L661.736 207.016 L657.037 207.016 L648.125 183.312 L648.125 213.659 L643.588 213.659 L643.588 179.099 Z" fill="#000000" fill-rule="nonzero" fill-opacity="1" /><path clip-path="url(#clip500)" d="M696.088 200.627 Q690.925 200.627 688.935 201.807 Q686.944 202.988 686.944 205.835 Q686.944 208.104 688.426 209.446 Q689.93 210.766 692.5 210.766 Q696.041 210.766 698.171 208.266 Q700.324 205.743 700.324 201.576 L700.324 200.627 L696.088 200.627 M704.583 198.868 L704.583 213.659 L700.324 213.659 L700.324 209.724 Q698.865 212.085 696.689 213.219 Q694.513 214.33 691.365 214.33 Q687.384 214.33 685.023 212.108 Q682.685 209.863 682.685 206.113 Q682.685 201.738 685.601 199.516 Q688.541 197.294 694.351 197.294 L700.324 197.294 L700.324 196.877 Q700.324 193.937 698.379 192.34 Q696.458 190.719 692.963 190.719 Q690.74 190.719 688.634 191.252 Q686.527 191.784 684.583 192.849 L684.583 188.914 Q686.921 188.011 689.12 187.571 Q691.319 187.108 693.402 187.108 Q699.027 187.108 701.805 190.025 Q704.583 192.942 704.583 198.868 Z" fill="#000000" fill-rule="nonzero" fill-opacity="1" /><path clip-path="url(#clip500)" d="M717.986 209.724 L734.305 209.724 L734.305 213.659 L712.361 213.659 L712.361 209.724 Q715.023 206.969 719.606 202.34 Q724.212 197.687 725.393 196.344 Q727.638 193.821 728.518 192.085 Q729.421 190.326 729.421 188.636 Q729.421 185.882 727.476 184.145 Q725.555 182.409 722.453 182.409 Q720.254 182.409 717.8 183.173 Q715.37 183.937 712.592 185.488 L712.592 180.766 Q715.416 179.632 717.87 179.053 Q720.323 178.474 722.361 178.474 Q727.731 178.474 730.925 181.159 Q734.12 183.845 734.12 188.335 Q734.12 190.465 733.31 192.386 Q732.522 194.284 730.416 196.877 Q729.837 197.548 726.735 200.766 Q723.634 203.96 717.986 209.724 Z" fill="#000000" fill-rule="nonzero" fill-opacity="1" /><path clip-path="url(#clip500)" d="M742.939 179.099 L765.161 179.099 L765.161 181.09 L752.615 213.659 L747.731 213.659 L759.536 183.034 L742.939 183.034 L742.939 179.099 Z" fill="#000000" fill-rule="nonzero" fill-opacity="1" /><path clip-path="url(#clip500)" d="M798.98 177.687 Q795.879 183.011 794.374 188.22 Q792.869 193.428 792.869 198.775 Q792.869 204.122 794.374 209.377 Q795.902 214.608 798.98 219.909 L795.277 219.909 Q791.805 214.469 790.068 209.215 Q788.356 203.96 788.356 198.775 Q788.356 193.613 790.068 188.382 Q791.781 183.15 795.277 177.687 L798.98 177.687 Z" fill="#000000" fill-rule="nonzero" fill-opacity="1" /><path clip-path="url(#clip500)" d="M833.309 181.761 L833.309 186.692 Q830.948 184.493 828.263 183.405 Q825.601 182.317 822.591 182.317 Q816.666 182.317 813.517 185.951 Q810.369 189.562 810.369 196.414 Q810.369 203.243 813.517 206.877 Q816.666 210.488 822.591 210.488 Q825.601 210.488 828.263 209.4 Q830.948 208.312 833.309 206.113 L833.309 210.997 Q830.855 212.664 828.101 213.497 Q825.369 214.33 822.314 214.33 Q814.466 214.33 809.953 209.539 Q805.439 204.724 805.439 196.414 Q805.439 188.081 809.953 183.289 Q814.466 178.474 822.314 178.474 Q825.416 178.474 828.147 179.308 Q830.902 180.118 833.309 181.761 Z" fill="#000000" fill-rule="nonzero" fill-opacity="1" /><path clip-path="url(#clip500)" d="M845.207 182.942 L845.207 195.928 L851.087 195.928 Q854.351 195.928 856.133 194.238 Q857.915 192.548 857.915 189.423 Q857.915 186.321 856.133 184.632 Q854.351 182.942 851.087 182.942 L845.207 182.942 M840.531 179.099 L851.087 179.099 Q856.897 179.099 859.86 181.738 Q862.846 184.354 862.846 189.423 Q862.846 194.539 859.86 197.155 Q856.897 199.77 851.087 199.77 L845.207 199.77 L845.207 213.659 L840.531 213.659 L840.531 179.099 Z" fill="#000000" fill-rule="nonzero" fill-opacity="1" /><path clip-path="url(#clip500)" d="M868.587 179.099 L873.286 179.099 L873.286 200.094 Q873.286 205.65 875.3 208.104 Q877.313 210.534 881.827 210.534 Q886.318 210.534 888.332 208.104 Q890.346 205.65 890.346 200.094 L890.346 179.099 L895.045 179.099 L895.045 200.673 Q895.045 207.432 891.688 210.881 Q888.355 214.33 881.827 214.33 Q875.276 214.33 871.92 210.881 Q868.587 207.432 868.587 200.673 L868.587 179.099 Z" fill="#000000" fill-rule="nonzero" fill-opacity="1" /><path clip-path="url(#clip500)" d="M902.961 177.687 L906.665 177.687 Q910.137 183.15 911.85 188.382 Q913.586 193.613 913.586 198.775 Q913.586 203.96 911.85 209.215 Q910.137 214.469 906.665 219.909 L902.961 219.909 Q906.04 214.608 907.545 209.377 Q909.072 204.122 909.072 198.775 Q909.072 193.428 907.545 188.22 Q906.04 183.011 902.961 177.687 Z" fill="#000000" fill-rule="nonzero" fill-opacity="1" /><circle clip-path="url(#clip500)" cx="387.391" cy="248.219" r="20.48" fill="#3da44d" fill-rule="evenodd" fill-opacity="1" stroke="#000000" stroke-opacity="1" stroke-width="4.55111"/>
<path clip-path="url(#clip500)" d="M482.107 230.939 L489.075 230.939 L497.894 254.458 L506.76 230.939 L513.727 230.939 L513.727 265.499 L509.167 265.499 L509.167 235.152 L500.255 258.856 L495.556 258.856 L486.644 235.152 L486.644 265.499 L482.107 265.499 L482.107 230.939 Z" fill="#000000" fill-rule="nonzero" fill-opacity="1" /><path clip-path="url(#clip500)" d="M534.607 252.467 Q529.445 252.467 527.454 253.647 Q525.463 254.828 525.463 257.675 Q525.463 259.944 526.945 261.286 Q528.45 262.606 531.019 262.606 Q534.561 262.606 536.69 260.106 Q538.843 257.583 538.843 253.416 L538.843 252.467 L534.607 252.467 M543.102 250.708 L543.102 265.499 L538.843 265.499 L538.843 261.564 Q537.385 263.925 535.209 265.059 Q533.033 266.17 529.885 266.17 Q525.903 266.17 523.542 263.948 Q521.204 261.703 521.204 257.953 Q521.204 253.578 524.121 251.356 Q527.061 249.134 532.871 249.134 L538.843 249.134 L538.843 248.717 Q538.843 245.777 536.899 244.18 Q534.977 242.559 531.482 242.559 Q529.26 242.559 527.153 243.092 Q525.047 243.624 523.102 244.689 L523.102 240.754 Q525.44 239.851 527.639 239.411 Q529.838 238.948 531.922 238.948 Q537.547 238.948 540.324 241.865 Q543.102 244.782 543.102 250.708 Z" fill="#000000" fill-rule="nonzero" fill-opacity="1" /><path clip-path="url(#clip500)" d="M568.935 243.509 L568.935 229.481 L573.195 229.481 L573.195 265.499 L568.935 265.499 L568.935 261.61 Q567.593 263.925 565.533 265.059 Q563.496 266.17 560.625 266.17 Q555.926 266.17 552.963 262.42 Q550.023 258.671 550.023 252.559 Q550.023 246.448 552.963 242.698 Q555.926 238.948 560.625 238.948 Q563.496 238.948 565.533 240.083 Q567.593 241.194 568.935 243.509 M554.422 252.559 Q554.422 257.258 556.343 259.944 Q558.287 262.606 561.667 262.606 Q565.047 262.606 566.991 259.944 Q568.935 257.258 568.935 252.559 Q568.935 247.86 566.991 245.198 Q565.047 242.513 561.667 242.513 Q558.287 242.513 556.343 245.198 Q554.422 247.86 554.422 252.559 Z" fill="#000000" fill-rule="nonzero" fill-opacity="1" /><path clip-path="url(#clip500)" d="M582.153 230.939 L588.449 230.939 L603.773 259.851 L603.773 230.939 L608.31 230.939 L608.31 265.499 L602.014 265.499 L586.69 236.587 L586.69 265.499 L582.153 265.499 L582.153 230.939 Z" fill="#000000" fill-rule="nonzero" fill-opacity="1" /><path clip-path="url(#clip500)" d="M617.616 230.939 L622.292 230.939 L622.292 261.564 L639.12 261.564 L639.12 265.499 L617.616 265.499 L617.616 230.939 Z" fill="#000000" fill-rule="nonzero" fill-opacity="1" /><path clip-path="url(#clip500)" d="M648.703 234.782 L648.703 247.768 L654.583 247.768 Q657.847 247.768 659.629 246.078 Q661.412 244.388 661.412 241.263 Q661.412 238.161 659.629 236.472 Q657.847 234.782 654.583 234.782 L648.703 234.782 M644.028 230.939 L654.583 230.939 Q660.393 230.939 663.356 233.578 Q666.342 236.194 666.342 241.263 Q666.342 246.379 663.356 248.995 Q660.393 251.61 654.583 251.61 L648.703 251.61 L648.703 265.499 L644.028 265.499 L644.028 230.939 Z" fill="#000000" fill-rule="nonzero" fill-opacity="1" /><path clip-path="url(#clip500)" d="M689.768 235.777 L689.768 248.671 L702.662 248.671 L702.662 252.606 L689.768 252.606 L689.768 265.499 L685.879 265.499 L685.879 252.606 L672.986 252.606 L672.986 248.671 L685.879 248.671 L685.879 235.777 L689.768 235.777 Z" fill="#000000" fill-rule="nonzero" fill-opacity="1" /><path clip-path="url(#clip500)" d="M712.337 230.939 L717.013 230.939 L717.013 245.106 L734.004 245.106 L734.004 230.939 L738.68 230.939 L738.68 265.499 L734.004 265.499 L734.004 249.041 L717.013 249.041 L717.013 265.499 L712.337 265.499 L712.337 230.939 Z" fill="#000000" fill-rule="nonzero" fill-opacity="1" /><path clip-path="url(#clip500)" d="M758.587 267.907 Q756.782 272.536 755.069 273.948 Q753.356 275.36 750.485 275.36 L747.083 275.36 L747.083 271.795 L749.583 271.795 Q751.342 271.795 752.314 270.962 Q753.286 270.129 754.467 267.027 L755.231 265.083 L744.745 239.573 L749.259 239.573 L757.36 259.851 L765.462 239.573 L769.976 239.573 L758.587 267.907 Z" fill="#000000" fill-rule="nonzero" fill-opacity="1" /><path clip-path="url(#clip500)" d="M794.467 252.559 Q794.467 247.86 792.522 245.198 Q790.601 242.513 787.221 242.513 Q783.842 242.513 781.897 245.198 Q779.976 247.86 779.976 252.559 Q779.976 257.258 781.897 259.944 Q783.842 262.606 787.221 262.606 Q790.601 262.606 792.522 259.944 Q794.467 257.258 794.467 252.559 M779.976 243.509 Q781.319 241.194 783.356 240.083 Q785.416 238.948 788.263 238.948 Q792.985 238.948 795.925 242.698 Q798.888 246.448 798.888 252.559 Q798.888 258.671 795.925 262.42 Q792.985 266.17 788.263 266.17 Q785.416 266.17 783.356 265.059 Q781.319 263.925 779.976 261.61 L779.976 265.499 L775.694 265.499 L775.694 229.481 L779.976 229.481 L779.976 243.509 Z" fill="#000000" fill-rule="nonzero" fill-opacity="1" /><path clip-path="url(#clip500)" d="M820.971 243.555 Q820.254 243.138 819.397 242.953 Q818.564 242.745 817.545 242.745 Q813.934 242.745 811.99 245.106 Q810.068 247.444 810.068 251.842 L810.068 265.499 L805.786 265.499 L805.786 239.573 L810.068 239.573 L810.068 243.601 Q811.411 241.24 813.564 240.106 Q815.716 238.948 818.795 238.948 Q819.235 238.948 819.767 239.018 Q820.3 239.064 820.948 239.18 L820.971 243.555 Z" fill="#000000" fill-rule="nonzero" fill-opacity="1" /><path clip-path="url(#clip500)" d="M825.439 239.573 L829.698 239.573 L829.698 265.499 L825.439 265.499 L825.439 239.573 M825.439 229.481 L829.698 229.481 L829.698 234.874 L825.439 234.874 L825.439 229.481 Z" fill="#000000" fill-rule="nonzero" fill-opacity="1" /><path clip-path="url(#clip500)" d="M855.67 243.509 L855.67 229.481 L859.929 229.481 L859.929 265.499 L855.67 265.499 L855.67 261.61 Q854.327 263.925 852.267 265.059 Q850.23 266.17 847.36 266.17 Q842.661 266.17 839.698 262.42 Q836.758 258.671 836.758 252.559 Q836.758 246.448 839.698 242.698 Q842.661 238.948 847.36 238.948 Q850.23 238.948 852.267 240.083 Q854.327 241.194 855.67 243.509 M841.156 252.559 Q841.156 257.258 843.077 259.944 Q845.022 262.606 848.402 262.606 Q851.781 262.606 853.726 259.944 Q855.67 257.258 855.67 252.559 Q855.67 247.86 853.726 245.198 Q851.781 242.513 848.402 242.513 Q845.022 242.513 843.077 245.198 Q841.156 247.86 841.156 252.559 Z" fill="#000000" fill-rule="nonzero" fill-opacity="1" /><path clip-path="url(#clip500)" d="M868.888 230.939 L873.563 230.939 L873.563 245.546 L889.073 230.939 L895.091 230.939 L877.938 247.05 L896.318 265.499 L890.161 265.499 L873.563 248.856 L873.563 265.499 L868.888 265.499 L868.888 230.939 Z" fill="#000000" fill-rule="nonzero" fill-opacity="1" /><path clip-path="url(#clip500)" d="M899.975 230.939 L904.651 230.939 L904.651 245.546 L920.16 230.939 L926.179 230.939 L909.026 247.05 L927.406 265.499 L921.248 265.499 L904.651 248.856 L904.651 265.499 L899.975 265.499 L899.975 230.939 Z" fill="#000000" fill-rule="nonzero" fill-opacity="1" /><path clip-path="url(#clip500)" d="M922.591 230.939 L951.827 230.939 L951.827 234.874 L939.558 234.874 L939.558 265.499 L934.859 265.499 L934.859 234.874 L922.591 234.874 L922.591 230.939 Z" fill="#000000" fill-rule="nonzero" fill-opacity="1" /><path clip-path="url(#clip500)" d="M981.456 229.527 Q978.355 234.851 976.85 240.06 Q975.345 245.268 975.345 250.615 Q975.345 255.962 976.85 261.217 Q978.378 266.448 981.456 271.749 L977.753 271.749 Q974.28 266.309 972.544 261.055 Q970.831 255.8 970.831 250.615 Q970.831 245.453 972.544 240.222 Q974.257 234.99 977.753 229.527 L981.456 229.527 Z" fill="#000000" fill-rule="nonzero" fill-opacity="1" /><path clip-path="url(#clip500)" d="M1013.47 260.569 L1013.47 251.286 L1005.83 251.286 L1005.83 247.444 L1018.1 247.444 L1018.1 262.282 Q1015.39 264.203 1012.13 265.198 Q1008.86 266.17 1005.16 266.17 Q997.058 266.17 992.475 261.448 Q987.915 256.703 987.915 248.254 Q987.915 239.782 992.475 235.06 Q997.058 230.314 1005.16 230.314 Q1008.54 230.314 1011.57 231.148 Q1014.63 231.981 1017.2 233.601 L1017.2 238.578 Q1014.6 236.379 1011.69 235.268 Q1008.77 234.157 1005.55 234.157 Q999.211 234.157 996.016 237.698 Q992.845 241.24 992.845 248.254 Q992.845 255.245 996.016 258.786 Q999.211 262.328 1005.55 262.328 Q1008.03 262.328 1009.97 261.911 Q1011.92 261.471 1013.47 260.569 Z" fill="#000000" fill-rule="nonzero" fill-opacity="1" /><path clip-path="url(#clip500)" d="M1031.32 234.782 L1031.32 247.768 L1037.2 247.768 Q1040.46 247.768 1042.24 246.078 Q1044.03 244.388 1044.03 241.263 Q1044.03 238.161 1042.24 236.472 Q1040.46 234.782 1037.2 234.782 L1031.32 234.782 M1026.64 230.939 L1037.2 230.939 Q1043.01 230.939 1045.97 233.578 Q1048.96 236.194 1048.96 241.263 Q1048.96 246.379 1045.97 248.995 Q1043.01 251.61 1037.2 251.61 L1031.32 251.61 L1031.32 265.499 L1026.64 265.499 L1026.64 230.939 Z" fill="#000000" fill-rule="nonzero" fill-opacity="1" /><path clip-path="url(#clip500)" d="M1054.7 230.939 L1059.4 230.939 L1059.4 251.934 Q1059.4 257.49 1061.41 259.944 Q1063.42 262.374 1067.94 262.374 Q1072.43 262.374 1074.44 259.944 Q1076.46 257.49 1076.46 251.934 L1076.46 230.939 L1081.15 230.939 L1081.15 252.513 Q1081.15 259.272 1077.8 262.721 Q1074.47 266.17 1067.94 266.17 Q1061.39 266.17 1058.03 262.721 Q1054.7 259.272 1054.7 252.513 L1054.7 230.939 Z" fill="#000000" fill-rule="nonzero" fill-opacity="1" /><path clip-path="url(#clip500)" d="M1089.07 229.527 L1092.78 229.527 Q1096.25 234.99 1097.96 240.222 Q1099.7 245.453 1099.7 250.615 Q1099.7 255.8 1097.96 261.055 Q1096.25 266.309 1092.78 271.749 L1089.07 271.749 Q1092.15 266.448 1093.65 261.217 Q1095.18 255.962 1095.18 250.615 Q1095.18 245.268 1093.65 240.06 Q1092.15 234.851 1089.07 229.527 Z" fill="#000000" fill-rule="nonzero" fill-opacity="1" /><circle clip-path="url(#clip500)" cx="387.391" cy="300.059" r="20.48" fill="#c271d2" fill-rule="evenodd" fill-opacity="1" stroke="#000000" stroke-opacity="1" stroke-width="4.55111"/>
<path clip-path="url(#clip500)" d="M482.107 282.779 L489.075 282.779 L497.894 306.298 L506.76 282.779 L513.727 282.779 L513.727 317.339 L509.167 317.339 L509.167 286.992 L500.255 310.696 L495.556 310.696 L486.644 286.992 L486.644 317.339 L482.107 317.339 L482.107 282.779 Z" fill="#000000" fill-rule="nonzero" fill-opacity="1" /><path clip-path="url(#clip500)" d="M534.607 304.307 Q529.445 304.307 527.454 305.487 Q525.463 306.668 525.463 309.515 Q525.463 311.784 526.945 313.126 Q528.45 314.446 531.019 314.446 Q534.561 314.446 536.69 311.946 Q538.843 309.423 538.843 305.256 L538.843 304.307 L534.607 304.307 M543.102 302.548 L543.102 317.339 L538.843 317.339 L538.843 313.404 Q537.385 315.765 535.209 316.899 Q533.033 318.01 529.885 318.01 Q525.903 318.01 523.542 315.788 Q521.204 313.543 521.204 309.793 Q521.204 305.418 524.121 303.196 Q527.061 300.974 532.871 300.974 L538.843 300.974 L538.843 300.557 Q538.843 297.617 536.899 296.02 Q534.977 294.399 531.482 294.399 Q529.26 294.399 527.153 294.932 Q525.047 295.464 523.102 296.529 L523.102 292.594 Q525.44 291.691 527.639 291.251 Q529.838 290.788 531.922 290.788 Q537.547 290.788 540.324 293.705 Q543.102 296.622 543.102 302.548 Z" fill="#000000" fill-rule="nonzero" fill-opacity="1" /><path clip-path="url(#clip500)" d="M568.935 295.349 L568.935 281.321 L573.195 281.321 L573.195 317.339 L568.935 317.339 L568.935 313.45 Q567.593 315.765 565.533 316.899 Q563.496 318.01 560.625 318.01 Q555.926 318.01 552.963 314.26 Q550.023 310.511 550.023 304.399 Q550.023 298.288 552.963 294.538 Q555.926 290.788 560.625 290.788 Q563.496 290.788 565.533 291.923 Q567.593 293.034 568.935 295.349 M554.422 304.399 Q554.422 309.098 556.343 311.784 Q558.287 314.446 561.667 314.446 Q565.047 314.446 566.991 311.784 Q568.935 309.098 568.935 304.399 Q568.935 299.7 566.991 297.038 Q565.047 294.353 561.667 294.353 Q558.287 294.353 556.343 297.038 Q554.422 299.7 554.422 304.399 Z" fill="#000000" fill-rule="nonzero" fill-opacity="1" /><path clip-path="url(#clip500)" d="M582.153 282.779 L588.449 282.779 L603.773 311.691 L603.773 282.779 L608.31 282.779 L608.31 317.339 L602.014 317.339 L586.69 288.427 L586.69 317.339 L582.153 317.339 L582.153 282.779 Z" fill="#000000" fill-rule="nonzero" fill-opacity="1" /><path clip-path="url(#clip500)" d="M617.616 282.779 L622.292 282.779 L622.292 313.404 L639.12 313.404 L639.12 317.339 L617.616 317.339 L617.616 282.779 Z" fill="#000000" fill-rule="nonzero" fill-opacity="1" /><path clip-path="url(#clip500)" d="M648.703 286.622 L648.703 299.608 L654.583 299.608 Q657.847 299.608 659.629 297.918 Q661.412 296.228 661.412 293.103 Q661.412 290.001 659.629 288.312 Q657.847 286.622 654.583 286.622 L648.703 286.622 M644.028 282.779 L654.583 282.779 Q660.393 282.779 663.356 285.418 Q666.342 288.034 666.342 293.103 Q666.342 298.219 663.356 300.835 Q660.393 303.45 654.583 303.45 L648.703 303.45 L648.703 317.339 L644.028 317.339 L644.028 282.779 Z" fill="#000000" fill-rule="nonzero" fill-opacity="1" /><path clip-path="url(#clip500)" d="M689.768 287.617 L689.768 300.511 L702.662 300.511 L702.662 304.446 L689.768 304.446 L689.768 317.339 L685.879 317.339 L685.879 304.446 L672.986 304.446 L672.986 300.511 L685.879 300.511 L685.879 287.617 L689.768 287.617 Z" fill="#000000" fill-rule="nonzero" fill-opacity="1" /><path clip-path="url(#clip500)" d="M712.337 282.779 L717.013 282.779 L717.013 313.404 L733.842 313.404 L733.842 317.339 L712.337 317.339 L712.337 282.779 Z" fill="#000000" fill-rule="nonzero" fill-opacity="1" /><path clip-path="url(#clip500)" d="M738.564 291.413 L742.823 291.413 L742.823 317.339 L738.564 317.339 L738.564 291.413 M738.564 281.321 L742.823 281.321 L742.823 286.714 L738.564 286.714 L738.564 281.321 Z" fill="#000000" fill-rule="nonzero" fill-opacity="1" /><path clip-path="url(#clip500)" d="M764.86 281.321 L764.86 284.863 L760.786 284.863 Q758.495 284.863 757.592 285.788 Q756.712 286.714 756.712 289.122 L756.712 291.413 L763.726 291.413 L763.726 294.724 L756.712 294.724 L756.712 317.339 L752.43 317.339 L752.43 294.724 L748.356 294.724 L748.356 291.413 L752.43 291.413 L752.43 289.608 Q752.43 285.279 754.444 283.312 Q756.458 281.321 760.833 281.321 L764.86 281.321 Z" fill="#000000" fill-rule="nonzero" fill-opacity="1" /><path clip-path="url(#clip500)" d="M771.805 284.052 L771.805 291.413 L780.578 291.413 L780.578 294.724 L771.805 294.724 L771.805 308.798 Q771.805 311.969 772.661 312.872 Q773.541 313.774 776.203 313.774 L780.578 313.774 L780.578 317.339 L776.203 317.339 Q771.272 317.339 769.397 315.51 Q767.522 313.659 767.522 308.798 L767.522 294.724 L764.397 294.724 L764.397 291.413 L767.522 291.413 L767.522 284.052 L771.805 284.052 Z" fill="#000000" fill-rule="nonzero" fill-opacity="1" /><path clip-path="url(#clip500)" d="M808.355 303.311 L808.355 305.395 L788.772 305.395 Q789.05 309.793 791.411 312.108 Q793.795 314.399 798.031 314.399 Q800.485 314.399 802.777 313.798 Q805.092 313.196 807.36 311.992 L807.36 316.02 Q805.068 316.992 802.661 317.501 Q800.254 318.01 797.777 318.01 Q791.573 318.01 787.939 314.399 Q784.328 310.788 784.328 304.631 Q784.328 298.265 787.754 294.538 Q791.203 290.788 797.036 290.788 Q802.267 290.788 805.3 294.168 Q808.355 297.524 808.355 303.311 M804.096 302.061 Q804.05 298.566 802.129 296.483 Q800.23 294.399 797.082 294.399 Q793.518 294.399 791.365 296.413 Q789.235 298.427 788.911 302.085 L804.096 302.061 Z" fill="#000000" fill-rule="nonzero" fill-opacity="1" /><path clip-path="url(#clip500)" d="M832.406 295.349 L832.406 281.321 L836.665 281.321 L836.665 317.339 L832.406 317.339 L832.406 313.45 Q831.064 315.765 829.003 316.899 Q826.966 318.01 824.096 318.01 Q819.397 318.01 816.434 314.26 Q813.494 310.511 813.494 304.399 Q813.494 298.288 816.434 294.538 Q819.397 290.788 824.096 290.788 Q826.966 290.788 829.003 291.923 Q831.064 293.034 832.406 295.349 M817.892 304.399 Q817.892 309.098 819.814 311.784 Q821.758 314.446 825.138 314.446 Q828.517 314.446 830.462 311.784 Q832.406 309.098 832.406 304.399 Q832.406 299.7 830.462 297.038 Q828.517 294.353 825.138 294.353 Q821.758 294.353 819.814 297.038 Q817.892 299.7 817.892 304.399 Z" fill="#000000" fill-rule="nonzero" fill-opacity="1" /><path clip-path="url(#clip500)" d="M845.624 282.779 L850.3 282.779 L850.3 297.386 L865.809 282.779 L871.827 282.779 L854.675 298.89 L873.054 317.339 L866.897 317.339 L850.3 300.696 L850.3 317.339 L845.624 317.339 L845.624 282.779 Z" fill="#000000" fill-rule="nonzero" fill-opacity="1" /><path clip-path="url(#clip500)" d="M876.712 282.779 L881.387 282.779 L881.387 297.386 L896.897 282.779 L902.915 282.779 L885.762 298.89 L904.142 317.339 L897.985 317.339 L881.387 300.696 L881.387 317.339 L876.712 317.339 L876.712 282.779 Z" fill="#000000" fill-rule="nonzero" fill-opacity="1" /><path clip-path="url(#clip500)" d="M899.327 282.779 L928.563 282.779 L928.563 286.714 L916.295 286.714 L916.295 317.339 L911.596 317.339 L911.596 286.714 L899.327 286.714 L899.327 282.779 Z" fill="#000000" fill-rule="nonzero" fill-opacity="1" /><path clip-path="url(#clip500)" d="M958.193 281.367 Q955.091 286.691 953.586 291.9 Q952.082 297.108 952.082 302.455 Q952.082 307.802 953.586 313.057 Q955.114 318.288 958.193 323.589 L954.489 323.589 Q951.017 318.149 949.281 312.895 Q947.568 307.64 947.568 302.455 Q947.568 297.293 949.281 292.062 Q950.994 286.83 954.489 281.367 L958.193 281.367 Z" fill="#000000" fill-rule="nonzero" fill-opacity="1" /><path clip-path="url(#clip500)" d="M990.206 312.409 L990.206 303.126 L982.567 303.126 L982.567 299.284 L994.836 299.284 L994.836 314.122 Q992.128 316.043 988.864 317.038 Q985.6 318.01 981.896 318.01 Q973.794 318.01 969.211 313.288 Q964.651 308.543 964.651 300.094 Q964.651 291.622 969.211 286.9 Q973.794 282.154 981.896 282.154 Q985.276 282.154 988.308 282.988 Q991.364 283.821 993.933 285.441 L993.933 290.418 Q991.341 288.219 988.424 287.108 Q985.507 285.997 982.29 285.997 Q975.947 285.997 972.753 289.538 Q969.581 293.08 969.581 300.094 Q969.581 307.085 972.753 310.626 Q975.947 314.168 982.29 314.168 Q984.767 314.168 986.711 313.751 Q988.655 313.311 990.206 312.409 Z" fill="#000000" fill-rule="nonzero" fill-opacity="1" /><path clip-path="url(#clip500)" d="M1008.05 286.622 L1008.05 299.608 L1013.93 299.608 Q1017.2 299.608 1018.98 297.918 Q1020.76 296.228 1020.76 293.103 Q1020.76 290.001 1018.98 288.312 Q1017.2 286.622 1013.93 286.622 L1008.05 286.622 M1003.38 282.779 L1013.93 282.779 Q1019.74 282.779 1022.71 285.418 Q1025.69 288.034 1025.69 293.103 Q1025.69 298.219 1022.71 300.835 Q1019.74 303.45 1013.93 303.45 L1008.05 303.45 L1008.05 317.339 L1003.38 317.339 L1003.38 282.779 Z" fill="#000000" fill-rule="nonzero" fill-opacity="1" /><path clip-path="url(#clip500)" d="M1031.43 282.779 L1036.13 282.779 L1036.13 303.774 Q1036.13 309.33 1038.15 311.784 Q1040.16 314.214 1044.67 314.214 Q1049.16 314.214 1051.18 311.784 Q1053.19 309.33 1053.19 303.774 L1053.19 282.779 L1057.89 282.779 L1057.89 304.353 Q1057.89 311.112 1054.53 314.561 Q1051.2 318.01 1044.67 318.01 Q1038.12 318.01 1034.77 314.561 Q1031.43 311.112 1031.43 304.353 L1031.43 282.779 Z" fill="#000000" fill-rule="nonzero" fill-opacity="1" /><path clip-path="url(#clip500)" d="M1065.81 281.367 L1069.51 281.367 Q1072.98 286.83 1074.7 292.062 Q1076.43 297.293 1076.43 302.455 Q1076.43 307.64 1074.7 312.895 Q1072.98 318.149 1069.51 323.589 L1065.81 323.589 Q1068.89 318.288 1070.39 313.057 Q1071.92 307.802 1071.92 302.455 Q1071.92 297.108 1070.39 291.9 Q1068.89 286.691 1065.81 281.367 Z" fill="#000000" fill-rule="nonzero" fill-opacity="1" /><circle clip-path="url(#clip500)" cx="387.391" cy="351.899" r="20.48" fill="#ac8d18" fill-rule="evenodd" fill-opacity="1" stroke="#000000" stroke-opacity="1" stroke-width="4.55111"/>
<path clip-path="url(#clip500)" d="M482.107 334.619 L489.075 334.619 L497.894 358.138 L506.76 334.619 L513.727 334.619 L513.727 369.179 L509.167 369.179 L509.167 338.832 L500.255 362.536 L495.556 362.536 L486.644 338.832 L486.644 369.179 L482.107 369.179 L482.107 334.619 Z" fill="#000000" fill-rule="nonzero" fill-opacity="1" /><path clip-path="url(#clip500)" d="M534.607 356.147 Q529.445 356.147 527.454 357.327 Q525.463 358.508 525.463 361.355 Q525.463 363.624 526.945 364.966 Q528.45 366.286 531.019 366.286 Q534.561 366.286 536.69 363.786 Q538.843 361.263 538.843 357.096 L538.843 356.147 L534.607 356.147 M543.102 354.388 L543.102 369.179 L538.843 369.179 L538.843 365.244 Q537.385 367.605 535.209 368.739 Q533.033 369.85 529.885 369.85 Q525.903 369.85 523.542 367.628 Q521.204 365.383 521.204 361.633 Q521.204 357.258 524.121 355.036 Q527.061 352.814 532.871 352.814 L538.843 352.814 L538.843 352.397 Q538.843 349.457 536.899 347.86 Q534.977 346.239 531.482 346.239 Q529.26 346.239 527.153 346.772 Q525.047 347.304 523.102 348.369 L523.102 344.434 Q525.44 343.531 527.639 343.091 Q529.838 342.628 531.922 342.628 Q537.547 342.628 540.324 345.545 Q543.102 348.462 543.102 354.388 Z" fill="#000000" fill-rule="nonzero" fill-opacity="1" /><path clip-path="url(#clip500)" d="M568.935 347.189 L568.935 333.161 L573.195 333.161 L573.195 369.179 L568.935 369.179 L568.935 365.29 Q567.593 367.605 565.533 368.739 Q563.496 369.85 560.625 369.85 Q555.926 369.85 552.963 366.1 Q550.023 362.351 550.023 356.239 Q550.023 350.128 552.963 346.378 Q555.926 342.628 560.625 342.628 Q563.496 342.628 565.533 343.763 Q567.593 344.874 568.935 347.189 M554.422 356.239 Q554.422 360.938 556.343 363.624 Q558.287 366.286 561.667 366.286 Q565.047 366.286 566.991 363.624 Q568.935 360.938 568.935 356.239 Q568.935 351.54 566.991 348.878 Q565.047 346.193 561.667 346.193 Q558.287 346.193 556.343 348.878 Q554.422 351.54 554.422 356.239 Z" fill="#000000" fill-rule="nonzero" fill-opacity="1" /><path clip-path="url(#clip500)" d="M582.153 334.619 L588.449 334.619 L603.773 363.531 L603.773 334.619 L608.31 334.619 L608.31 369.179 L602.014 369.179 L586.69 340.267 L586.69 369.179 L582.153 369.179 L582.153 334.619 Z" fill="#000000" fill-rule="nonzero" fill-opacity="1" /><path clip-path="url(#clip500)" d="M643.495 337.281 L643.495 342.212 Q641.134 340.013 638.449 338.925 Q635.787 337.837 632.778 337.837 Q626.852 337.837 623.704 341.471 Q620.555 345.082 620.555 351.934 Q620.555 358.763 623.704 362.397 Q626.852 366.008 632.778 366.008 Q635.787 366.008 638.449 364.92 Q641.134 363.832 643.495 361.633 L643.495 366.517 Q641.042 368.184 638.287 369.017 Q635.555 369.85 632.5 369.85 Q624.653 369.85 620.139 365.059 Q615.625 360.244 615.625 351.934 Q615.625 343.601 620.139 338.809 Q624.653 333.994 632.5 333.994 Q635.602 333.994 638.333 334.828 Q641.088 335.638 643.495 337.281 Z" fill="#000000" fill-rule="nonzero" fill-opacity="1" /><path clip-path="url(#clip500)" d="M650.717 334.619 L655.393 334.619 L655.393 365.244 L672.222 365.244 L672.222 369.179 L650.717 369.179 L650.717 334.619 Z" fill="#000000" fill-rule="nonzero" fill-opacity="1" /><path clip-path="url(#clip500)" d="M702.245 333.207 Q699.143 338.531 697.638 343.74 Q696.134 348.948 696.134 354.295 Q696.134 359.642 697.638 364.897 Q699.166 370.128 702.245 375.429 L698.541 375.429 Q695.069 369.989 693.333 364.735 Q691.62 359.48 691.62 354.295 Q691.62 349.133 693.333 343.902 Q695.046 338.67 698.541 333.207 L702.245 333.207 Z" fill="#000000" fill-rule="nonzero" fill-opacity="1" /><path clip-path="url(#clip500)" d="M734.259 364.249 L734.259 354.966 L726.62 354.966 L726.62 351.124 L738.888 351.124 L738.888 365.962 Q736.18 367.883 732.916 368.878 Q729.652 369.85 725.948 369.85 Q717.847 369.85 713.263 365.128 Q708.703 360.383 708.703 351.934 Q708.703 343.462 713.263 338.74 Q717.847 333.994 725.948 333.994 Q729.328 333.994 732.36 334.828 Q735.416 335.661 737.985 337.281 L737.985 342.258 Q735.393 340.059 732.476 338.948 Q729.56 337.837 726.342 337.837 Q719.999 337.837 716.805 341.378 Q713.634 344.92 713.634 351.934 Q713.634 358.925 716.805 362.466 Q719.999 366.008 726.342 366.008 Q728.819 366.008 730.763 365.591 Q732.708 365.151 734.259 364.249 Z" fill="#000000" fill-rule="nonzero" fill-opacity="1" /><path clip-path="url(#clip500)" d="M752.106 338.462 L752.106 351.448 L757.985 351.448 Q761.249 351.448 763.032 349.758 Q764.814 348.068 764.814 344.943 Q764.814 341.841 763.032 340.152 Q761.249 338.462 757.985 338.462 L752.106 338.462 M747.43 334.619 L757.985 334.619 Q763.795 334.619 766.758 337.258 Q769.745 339.874 769.745 344.943 Q769.745 350.059 766.758 352.675 Q763.795 355.29 757.985 355.29 L752.106 355.29 L752.106 369.179 L747.43 369.179 L747.43 334.619 Z" fill="#000000" fill-rule="nonzero" fill-opacity="1" /><path clip-path="url(#clip500)" d="M775.485 334.619 L780.184 334.619 L780.184 355.614 Q780.184 361.17 782.198 363.624 Q784.212 366.054 788.726 366.054 Q793.217 366.054 795.23 363.624 Q797.244 361.17 797.244 355.614 L797.244 334.619 L801.943 334.619 L801.943 356.193 Q801.943 362.952 798.587 366.401 Q795.254 369.85 788.726 369.85 Q782.175 369.85 778.819 366.401 Q775.485 362.952 775.485 356.193 L775.485 334.619 Z" fill="#000000" fill-rule="nonzero" fill-opacity="1" /><path clip-path="url(#clip500)" d="M809.86 333.207 L813.564 333.207 Q817.036 338.67 818.749 343.902 Q820.485 349.133 820.485 354.295 Q820.485 359.48 818.749 364.735 Q817.036 369.989 813.564 375.429 L809.86 375.429 Q812.939 370.128 814.443 364.897 Q815.971 359.642 815.971 354.295 Q815.971 348.948 814.443 343.74 Q812.939 338.531 809.86 333.207 Z" fill="#000000" fill-rule="nonzero" fill-opacity="1" /></svg>
