<?xml version="1.0" encoding="utf-8"?>
<svg xmlns="http://www.w3.org/2000/svg" xmlns:xlink="http://www.w3.org/1999/xlink" width="600" height="400" viewBox="0 0 2400 1600">
<defs>
  <clipPath id="clip940">
    <rect x="0" y="0" width="2400" height="1600"/>
  </clipPath>
</defs>
<path clip-path="url(#clip940)" d="M0 1600 L2400 1600 L2400 0 L0 0  Z" fill="#ffffff" fill-rule="evenodd" fill-opacity="1"/>
<defs>
  <clipPath id="clip941">
    <rect x="480" y="0" width="1681" height="1600"/>
  </clipPath>
</defs>
<path clip-path="url(#clip940)" d="M249.542 1414.54 L2352.76 1414.54 L2352.76 47.2441 L249.542 47.2441  Z" fill="#ffffff" fill-rule="evenodd" fill-opacity="1"/>
<defs>
  <clipPath id="clip942">
    <rect x="249" y="47" width="2104" height="1368"/>
  </clipPath>
</defs>
<polyline clip-path="url(#clip942)" style="stroke:#000000; stroke-linecap:round; stroke-linejoin:round; stroke-width:2; stroke-opacity:0.1; fill:none" points="249.542,1414.54 249.542,47.2441 "/>
<polyline clip-path="url(#clip942)" style="stroke:#000000; stroke-linecap:round; stroke-linejoin:round; stroke-width:2; stroke-opacity:0.1; fill:none" points="681.48,1414.54 681.48,47.2441 "/>
<polyline clip-path="url(#clip942)" style="stroke:#000000; stroke-linecap:round; stroke-linejoin:round; stroke-width:2; stroke-opacity:0.1; fill:none" points="1113.42,1414.54 1113.42,47.2441 "/>
<polyline clip-path="url(#clip942)" style="stroke:#000000; stroke-linecap:round; stroke-linejoin:round; stroke-width:2; stroke-opacity:0.1; fill:none" points="1545.36,1414.54 1545.36,47.2441 "/>
<polyline clip-path="url(#clip942)" style="stroke:#000000; stroke-linecap:round; stroke-linejoin:round; stroke-width:2; stroke-opacity:0.1; fill:none" points="1977.29,1414.54 1977.29,47.2441 "/>
<polyline clip-path="url(#clip942)" style="stroke:#000000; stroke-linecap:round; stroke-linejoin:round; stroke-width:2; stroke-opacity:0.1; fill:none" points="249.542,1414.54 2352.76,1414.54 "/>
<polyline clip-path="url(#clip942)" style="stroke:#000000; stroke-linecap:round; stroke-linejoin:round; stroke-width:2; stroke-opacity:0.1; fill:none" points="249.542,1103.79 2352.76,1103.79 "/>
<polyline clip-path="url(#clip942)" style="stroke:#000000; stroke-linecap:round; stroke-linejoin:round; stroke-width:2; stroke-opacity:0.1; fill:none" points="249.542,793.042 2352.76,793.042 "/>
<polyline clip-path="url(#clip942)" style="stroke:#000000; stroke-linecap:round; stroke-linejoin:round; stroke-width:2; stroke-opacity:0.1; fill:none" points="249.542,482.293 2352.76,482.293 "/>
<polyline clip-path="url(#clip942)" style="stroke:#000000; stroke-linecap:round; stroke-linejoin:round; stroke-width:2; stroke-opacity:0.1; fill:none" points="249.542,171.544 2352.76,171.544 "/>
<polyline clip-path="url(#clip940)" style="stroke:#000000; stroke-linecap:round; stroke-linejoin:round; stroke-width:4; stroke-opacity:1; fill:none" points="249.542,1414.54 2352.76,1414.54 "/>
<polyline clip-path="url(#clip940)" style="stroke:#000000; stroke-linecap:round; stroke-linejoin:round; stroke-width:4; stroke-opacity:1; fill:none" points="249.542,1414.54 249.542,1395.64 "/>
<polyline clip-path="url(#clip940)" style="stroke:#000000; stroke-linecap:round; stroke-linejoin:round; stroke-width:4; stroke-opacity:1; fill:none" points="681.48,1414.54 681.48,1395.64 "/>
<polyline clip-path="url(#clip940)" style="stroke:#000000; stroke-linecap:round; stroke-linejoin:round; stroke-width:4; stroke-opacity:1; fill:none" points="1113.42,1414.54 1113.42,1395.64 "/>
<polyline clip-path="url(#clip940)" style="stroke:#000000; stroke-linecap:round; stroke-linejoin:round; stroke-width:4; stroke-opacity:1; fill:none" points="1545.36,1414.54 1545.36,1395.64 "/>
<polyline clip-path="url(#clip940)" style="stroke:#000000; stroke-linecap:round; stroke-linejoin:round; stroke-width:4; stroke-opacity:1; fill:none" points="1977.29,1414.54 1977.29,1395.64 "/>
<path clip-path="url(#clip940)" d="M207.745 1482.82 L228.145 1482.82 L228.145 1487.74 L200.714 1487.74 L200.714 1482.82 Q204.042 1479.38 209.771 1473.59 Q215.529 1467.77 217.005 1466.1 Q219.811 1462.94 220.911 1460.77 Q222.039 1458.57 222.039 1456.46 Q222.039 1453.02 219.609 1450.85 Q217.207 1448.68 213.33 1448.68 Q210.581 1448.68 207.514 1449.63 Q204.476 1450.59 201.004 1452.53 L201.004 1446.62 Q204.534 1445.21 207.601 1444.48 Q210.668 1443.76 213.214 1443.76 Q219.927 1443.76 223.92 1447.12 Q227.913 1450.47 227.913 1456.08 Q227.913 1458.75 226.9 1461.15 Q225.917 1463.52 223.283 1466.76 Q222.56 1467.6 218.683 1471.62 Q214.806 1475.62 207.745 1482.82 Z" fill="#000000" fill-rule="nonzero" fill-opacity="1" /><path clip-path="url(#clip940)" d="M250.569 1448.82 Q249.122 1446.33 246.2 1446.33 Q243.278 1446.33 241.831 1448.82 Q240.355 1451.31 240.355 1456.29 Q240.355 1461.29 241.831 1463.78 Q243.278 1466.27 246.2 1466.27 Q249.122 1466.27 250.569 1463.78 Q252.045 1461.29 252.045 1456.29 Q252.045 1451.31 250.569 1448.82 M246.2 1443.76 Q250.859 1443.76 253.318 1446.97 Q255.778 1450.18 255.778 1456.29 Q255.778 1462.42 253.318 1465.63 Q250.859 1468.85 246.2 1468.85 Q241.513 1468.85 239.053 1465.63 Q236.594 1462.42 236.594 1456.29 Q236.594 1450.18 239.053 1446.97 Q241.513 1443.76 246.2 1443.76 Z" fill="#000000" fill-rule="nonzero" fill-opacity="1" /><path clip-path="url(#clip940)" d="M264.169 1463.49 L270.274 1463.49 L270.274 1470.84 L264.169 1470.84 L264.169 1463.49 Z" fill="#000000" fill-rule="nonzero" fill-opacity="1" /><path clip-path="url(#clip940)" d="M293.162 1448.82 Q291.715 1446.33 288.792 1446.33 Q285.87 1446.33 284.423 1448.82 Q282.948 1451.31 282.948 1456.29 Q282.948 1461.29 284.423 1463.78 Q285.87 1466.27 288.792 1466.27 Q291.715 1466.27 293.162 1463.78 Q294.637 1461.29 294.637 1456.29 Q294.637 1451.31 293.162 1448.82 M288.792 1443.76 Q293.451 1443.76 295.91 1446.97 Q298.37 1450.18 298.37 1456.29 Q298.37 1462.42 295.91 1465.63 Q293.451 1468.85 288.792 1468.85 Q284.105 1468.85 281.645 1465.63 Q279.186 1462.42 279.186 1456.29 Q279.186 1450.18 281.645 1446.97 Q284.105 1443.76 288.792 1443.76 Z" fill="#000000" fill-rule="nonzero" fill-opacity="1" /><path clip-path="url(#clip940)" d="M640.074 1482.82 L660.473 1482.82 L660.473 1487.74 L633.043 1487.74 L633.043 1482.82 Q636.37 1479.38 642.099 1473.59 Q647.858 1467.77 649.333 1466.1 Q652.14 1462.94 653.239 1460.77 Q654.368 1458.57 654.368 1456.46 Q654.368 1453.02 651.937 1450.85 Q649.536 1448.68 645.659 1448.68 Q642.91 1448.68 639.843 1449.63 Q636.804 1450.59 633.332 1452.53 L633.332 1446.62 Q636.862 1445.21 639.929 1444.48 Q642.996 1443.76 645.543 1443.76 Q652.256 1443.76 656.249 1447.12 Q660.242 1450.47 660.242 1456.08 Q660.242 1458.75 659.229 1461.15 Q658.245 1463.52 655.612 1466.76 Q654.889 1467.6 651.011 1471.62 Q647.134 1475.62 640.074 1482.82 Z" fill="#000000" fill-rule="nonzero" fill-opacity="1" /><path clip-path="url(#clip940)" d="M674.16 1465.11 L686.428 1465.11 L686.428 1468.41 L669.125 1468.41 L669.125 1465.23 Q670.109 1464.33 671.932 1462.71 Q681.885 1453.89 681.885 1451.17 Q681.885 1449.26 680.381 1448.1 Q678.876 1446.91 676.416 1446.91 Q674.912 1446.91 673.147 1447.43 Q671.382 1447.93 669.298 1448.94 L669.298 1445.38 Q671.526 1444.57 673.436 1444.16 Q675.375 1443.76 677.024 1443.76 Q681.22 1443.76 683.737 1445.67 Q686.254 1447.58 686.254 1450.7 Q686.254 1454.72 676.677 1462.94 Q675.056 1464.33 674.16 1465.11 Z" fill="#000000" fill-rule="nonzero" fill-opacity="1" /><path clip-path="url(#clip940)" d="M696.497 1463.49 L702.603 1463.49 L702.603 1470.84 L696.497 1470.84 L696.497 1463.49 Z" fill="#000000" fill-rule="nonzero" fill-opacity="1" /><path clip-path="url(#clip940)" d="M713.106 1444.25 L727.863 1444.25 L727.863 1447 L716.549 1447 L716.549 1452.9 Q717.36 1452.64 718.199 1452.53 Q719.009 1452.41 719.819 1452.41 Q724.478 1452.41 727.197 1454.64 Q729.917 1456.84 729.917 1460.63 Q729.917 1464.53 727.111 1466.7 Q724.333 1468.85 719.24 1468.85 Q717.504 1468.85 715.681 1468.58 Q713.858 1468.32 711.949 1467.8 L711.949 1464.53 Q713.598 1465.32 715.392 1465.72 Q717.186 1466.1 719.182 1466.1 Q722.394 1466.1 724.275 1464.62 Q726.156 1463.15 726.156 1460.63 Q726.156 1458.11 724.275 1456.63 Q722.394 1455.16 719.182 1455.16 Q717.678 1455.16 716.173 1455.45 Q714.669 1455.74 713.106 1456.35 L713.106 1444.25 Z" fill="#000000" fill-rule="nonzero" fill-opacity="1" /><path clip-path="url(#clip940)" d="M1071.62 1482.82 L1092.02 1482.82 L1092.02 1487.74 L1064.59 1487.74 L1064.59 1482.82 Q1067.92 1479.38 1073.65 1473.59 Q1079.4 1467.77 1080.88 1466.1 Q1083.69 1462.94 1084.79 1460.77 Q1085.92 1458.57 1085.92 1456.46 Q1085.92 1453.02 1083.48 1450.85 Q1081.08 1448.68 1077.21 1448.68 Q1074.46 1448.68 1071.39 1449.63 Q1068.35 1450.59 1064.88 1452.53 L1064.88 1446.62 Q1068.41 1445.21 1071.48 1444.48 Q1074.54 1443.76 1077.09 1443.76 Q1083.8 1443.76 1087.8 1447.12 Q1091.79 1450.47 1091.79 1456.08 Q1091.79 1458.75 1090.78 1461.15 Q1089.79 1463.52 1087.16 1466.76 Q1086.44 1467.6 1082.56 1471.62 Q1078.68 1475.62 1071.62 1482.82 Z" fill="#000000" fill-rule="nonzero" fill-opacity="1" /><path clip-path="url(#clip940)" d="M1102.06 1444.25 L1116.82 1444.25 L1116.82 1447 L1105.5 1447 L1105.5 1452.9 Q1106.31 1452.64 1107.15 1452.53 Q1107.96 1452.41 1108.77 1452.41 Q1113.43 1452.41 1116.15 1454.64 Q1118.87 1456.84 1118.87 1460.63 Q1118.87 1464.53 1116.07 1466.7 Q1113.29 1468.85 1108.2 1468.85 Q1106.46 1468.85 1104.64 1468.58 Q1102.81 1468.32 1100.9 1467.8 L1100.9 1464.53 Q1102.55 1465.32 1104.35 1465.72 Q1106.14 1466.1 1108.14 1466.1 Q1111.35 1466.1 1113.23 1464.62 Q1115.11 1463.15 1115.11 1460.63 Q1115.11 1458.11 1113.23 1456.63 Q1111.35 1455.16 1108.14 1455.16 Q1106.63 1455.16 1105.13 1455.45 Q1103.62 1455.74 1102.06 1456.35 L1102.06 1444.25 Z" fill="#000000" fill-rule="nonzero" fill-opacity="1" /><path clip-path="url(#clip940)" d="M1128.04 1463.49 L1134.15 1463.49 L1134.15 1470.84 L1128.04 1470.84 L1128.04 1463.49 Z" fill="#000000" fill-rule="nonzero" fill-opacity="1" /><path clip-path="url(#clip940)" d="M1157.04 1448.82 Q1155.59 1446.33 1152.67 1446.33 Q1149.75 1446.33 1148.3 1448.82 Q1146.82 1451.31 1146.82 1456.29 Q1146.82 1461.29 1148.3 1463.78 Q1149.75 1466.27 1152.67 1466.27 Q1155.59 1466.27 1157.04 1463.78 Q1158.51 1461.29 1158.51 1456.29 Q1158.51 1451.31 1157.04 1448.82 M1152.67 1443.76 Q1157.33 1443.76 1159.79 1446.97 Q1162.25 1450.18 1162.25 1456.29 Q1162.25 1462.42 1159.79 1465.63 Q1157.33 1468.85 1152.67 1468.85 Q1147.98 1468.85 1145.52 1465.63 Q1143.06 1462.42 1143.06 1456.29 Q1143.06 1450.18 1145.52 1446.97 Q1147.98 1443.76 1152.67 1443.76 Z" fill="#000000" fill-rule="nonzero" fill-opacity="1" /><path clip-path="url(#clip940)" d="M1503.95 1482.82 L1524.35 1482.82 L1524.35 1487.74 L1496.92 1487.74 L1496.92 1482.82 Q1500.25 1479.38 1505.98 1473.59 Q1511.73 1467.77 1513.21 1466.1 Q1516.02 1462.94 1517.12 1460.77 Q1518.24 1458.57 1518.24 1456.46 Q1518.24 1453.02 1515.81 1450.85 Q1513.41 1448.68 1509.53 1448.68 Q1506.79 1448.68 1503.72 1449.63 Q1500.68 1450.59 1497.21 1452.53 L1497.21 1446.62 Q1500.74 1445.21 1503.81 1444.48 Q1506.87 1443.76 1509.42 1443.76 Q1516.13 1443.76 1520.12 1447.12 Q1524.12 1450.47 1524.12 1456.08 Q1524.12 1458.75 1523.11 1461.15 Q1522.12 1463.52 1519.49 1466.76 Q1518.76 1467.6 1514.89 1471.62 Q1511.01 1475.62 1503.95 1482.82 Z" fill="#000000" fill-rule="nonzero" fill-opacity="1" /><path clip-path="url(#clip940)" d="M1533.41 1444.25 L1551.26 1444.25 L1551.26 1445.64 L1541.19 1468.41 L1537.25 1468.41 L1546.75 1447 L1533.41 1447 L1533.41 1444.25 Z" fill="#000000" fill-rule="nonzero" fill-opacity="1" /><path clip-path="url(#clip940)" d="M1560.37 1463.49 L1566.48 1463.49 L1566.48 1470.84 L1560.37 1470.84 L1560.37 1463.49 Z" fill="#000000" fill-rule="nonzero" fill-opacity="1" /><path clip-path="url(#clip940)" d="M1576.98 1444.25 L1591.74 1444.25 L1591.74 1447 L1580.43 1447 L1580.43 1452.9 Q1581.24 1452.64 1582.07 1452.53 Q1582.88 1452.41 1583.7 1452.41 Q1588.35 1452.41 1591.07 1454.64 Q1593.79 1456.84 1593.79 1460.63 Q1593.79 1464.53 1590.99 1466.7 Q1588.21 1468.85 1583.12 1468.85 Q1581.38 1468.85 1579.56 1468.58 Q1577.73 1468.32 1575.82 1467.8 L1575.82 1464.53 Q1577.47 1465.32 1579.27 1465.72 Q1581.06 1466.1 1583.06 1466.1 Q1586.27 1466.1 1588.15 1464.62 Q1590.03 1463.15 1590.03 1460.63 Q1590.03 1458.11 1588.15 1456.63 Q1586.27 1455.16 1583.06 1455.16 Q1581.55 1455.16 1580.05 1455.45 Q1578.54 1455.74 1576.98 1456.35 L1576.98 1444.25 Z" fill="#000000" fill-rule="nonzero" fill-opacity="1" /><path clip-path="url(#clip940)" d="M1923.62 1482.82 L1944.02 1482.82 L1944.02 1487.74 L1916.59 1487.74 L1916.59 1482.82 Q1919.92 1479.38 1925.65 1473.59 Q1931.4 1467.77 1932.88 1466.1 Q1935.69 1462.94 1936.79 1460.77 Q1937.91 1458.57 1937.91 1456.46 Q1937.91 1453.02 1935.48 1450.85 Q1933.08 1448.68 1929.2 1448.68 Q1926.46 1448.68 1923.39 1449.63 Q1920.35 1450.59 1916.88 1452.53 L1916.88 1446.62 Q1920.41 1445.21 1923.48 1444.48 Q1926.54 1443.76 1929.09 1443.76 Q1935.8 1443.76 1939.79 1447.12 Q1943.79 1450.47 1943.79 1456.08 Q1943.79 1458.75 1942.77 1461.15 Q1941.79 1463.52 1939.16 1466.76 Q1938.43 1467.6 1934.56 1471.62 Q1930.68 1475.62 1923.62 1482.82 Z" fill="#000000" fill-rule="nonzero" fill-opacity="1" /><path clip-path="url(#clip940)" d="M1954.46 1465.23 L1960.37 1465.23 L1960.37 1447.55 L1953.91 1448.74 L1953.91 1445.38 L1960.57 1444.25 L1964.53 1444.25 L1964.53 1465.23 L1970.47 1465.23 L1970.47 1468.41 L1954.46 1468.41 L1954.46 1465.23 Z" fill="#000000" fill-rule="nonzero" fill-opacity="1" /><path clip-path="url(#clip940)" d="M1990.2 1448.82 Q1988.75 1446.33 1985.83 1446.33 Q1982.91 1446.33 1981.46 1448.82 Q1979.99 1451.31 1979.99 1456.29 Q1979.99 1461.29 1981.46 1463.78 Q1982.91 1466.27 1985.83 1466.27 Q1988.75 1466.27 1990.2 1463.78 Q1991.67 1461.29 1991.67 1456.29 Q1991.67 1451.31 1990.2 1448.82 M1985.83 1443.76 Q1990.49 1443.76 1992.95 1446.97 Q1995.41 1450.18 1995.41 1456.29 Q1995.41 1462.42 1992.95 1465.63 Q1990.49 1468.85 1985.83 1468.85 Q1981.14 1468.85 1978.68 1465.63 Q1976.22 1462.42 1976.22 1456.29 Q1976.22 1450.18 1978.68 1446.97 Q1981.14 1443.76 1985.83 1443.76 Z" fill="#000000" fill-rule="nonzero" fill-opacity="1" /><path clip-path="url(#clip940)" d="M2003.8 1463.49 L2009.9 1463.49 L2009.9 1470.84 L2003.8 1470.84 L2003.8 1463.49 Z" fill="#000000" fill-rule="nonzero" fill-opacity="1" /><path clip-path="url(#clip940)" d="M2032.79 1448.82 Q2031.34 1446.33 2028.42 1446.33 Q2025.5 1446.33 2024.05 1448.82 Q2022.58 1451.31 2022.58 1456.29 Q2022.58 1461.29 2024.05 1463.78 Q2025.5 1466.27 2028.42 1466.27 Q2031.34 1466.27 2032.79 1463.78 Q2034.27 1461.29 2034.27 1456.29 Q2034.27 1451.31 2032.79 1448.82 M2028.42 1443.76 Q2033.08 1443.76 2035.54 1446.97 Q2038 1450.18 2038 1456.29 Q2038 1462.42 2035.54 1465.63 Q2033.08 1468.85 2028.42 1468.85 Q2023.73 1468.85 2021.28 1465.63 Q2018.82 1462.42 2018.82 1456.29 Q2018.82 1450.18 2021.28 1446.97 Q2023.73 1443.76 2028.42 1443.76 Z" fill="#000000" fill-rule="nonzero" fill-opacity="1" /><path clip-path="url(#clip940)" d="M659.343 1524.84 L665.836 1524.84 L675.83 1565.01 L685.792 1524.84 L693.017 1524.84 L703.011 1565.01 L712.974 1524.84 L719.498 1524.84 L707.563 1572.36 L699.478 1572.36 L689.452 1531.11 L679.331 1572.36 L671.246 1572.36 L659.343 1524.84 Z" fill="#000000" fill-rule="nonzero" fill-opacity="1" /><path clip-path="url(#clip940)" d="M726.342 1536.72 L732.198 1536.72 L732.198 1572.36 L726.342 1572.36 L726.342 1536.72 M726.342 1522.84 L732.198 1522.84 L732.198 1530.25 L726.342 1530.25 L726.342 1522.84 Z" fill="#000000" fill-rule="nonzero" fill-opacity="1" /><path clip-path="url(#clip940)" d="M750.245 1526.59 L750.245 1536.72 L762.308 1536.72 L762.308 1541.27 L750.245 1541.27 L750.245 1560.62 Q750.245 1564.98 751.422 1566.22 Q752.632 1567.46 756.292 1567.46 L762.308 1567.46 L762.308 1572.36 L756.292 1572.36 Q749.513 1572.36 746.935 1569.85 Q744.357 1567.3 744.357 1560.62 L744.357 1541.27 L740.06 1541.27 L740.06 1536.72 L744.357 1536.72 L744.357 1526.59 L750.245 1526.59 Z" fill="#000000" fill-rule="nonzero" fill-opacity="1" /><path clip-path="url(#clip940)" d="M799.643 1550.85 L799.643 1572.36 L793.786 1572.36 L793.786 1551.04 Q793.786 1545.98 791.813 1543.46 Q789.839 1540.95 785.893 1540.95 Q781.15 1540.95 778.413 1543.97 Q775.676 1547 775.676 1552.22 L775.676 1572.36 L769.788 1572.36 L769.788 1522.84 L775.676 1522.84 L775.676 1542.25 Q777.776 1539.04 780.609 1537.45 Q783.474 1535.86 787.198 1535.86 Q793.341 1535.86 796.492 1539.68 Q799.643 1543.46 799.643 1550.85 Z" fill="#000000" fill-rule="nonzero" fill-opacity="1" /><path clip-path="url(#clip940)" d="M811.324 1536.72 L817.18 1536.72 L817.18 1572.36 L811.324 1572.36 L811.324 1536.72 M811.324 1522.84 L817.18 1522.84 L817.18 1530.25 L811.324 1530.25 L811.324 1522.84 Z" fill="#000000" fill-rule="nonzero" fill-opacity="1" /><path clip-path="url(#clip940)" d="M859.067 1550.85 L859.067 1572.36 L853.21 1572.36 L853.21 1551.04 Q853.21 1545.98 851.237 1543.46 Q849.263 1540.95 845.317 1540.95 Q840.574 1540.95 837.837 1543.97 Q835.1 1547 835.1 1552.22 L835.1 1572.36 L829.211 1572.36 L829.211 1536.72 L835.1 1536.72 L835.1 1542.25 Q837.2 1539.04 840.033 1537.45 Q842.898 1535.86 846.622 1535.86 Q852.765 1535.86 855.916 1539.68 Q859.067 1543.46 859.067 1550.85 Z" fill="#000000" fill-rule="nonzero" fill-opacity="1" /><path clip-path="url(#clip940)" d="M897.261 1526.59 L897.261 1536.72 L909.324 1536.72 L909.324 1541.27 L897.261 1541.27 L897.261 1560.62 Q897.261 1564.98 898.438 1566.22 Q899.648 1567.46 903.308 1567.46 L909.324 1567.46 L909.324 1572.36 L903.308 1572.36 Q896.529 1572.36 893.951 1569.85 Q891.373 1567.3 891.373 1560.62 L891.373 1541.27 L887.076 1541.27 L887.076 1536.72 L891.373 1536.72 L891.373 1526.59 L897.261 1526.59 Z" fill="#000000" fill-rule="nonzero" fill-opacity="1" /><path clip-path="url(#clip940)" d="M946.659 1550.85 L946.659 1572.36 L940.802 1572.36 L940.802 1551.04 Q940.802 1545.98 938.829 1543.46 Q936.855 1540.95 932.909 1540.95 Q928.166 1540.95 925.429 1543.97 Q922.692 1547 922.692 1552.22 L922.692 1572.36 L916.804 1572.36 L916.804 1522.84 L922.692 1522.84 L922.692 1542.25 Q924.792 1539.04 927.625 1537.45 Q930.49 1535.86 934.214 1535.86 Q940.357 1535.86 943.508 1539.68 Q946.659 1543.46 946.659 1550.85 Z" fill="#000000" fill-rule="nonzero" fill-opacity="1" /><path clip-path="url(#clip940)" d="M958.34 1536.72 L964.196 1536.72 L964.196 1572.36 L958.34 1572.36 L958.34 1536.72 M958.34 1522.84 L964.196 1522.84 L964.196 1530.25 L958.34 1530.25 L958.34 1522.84 Z" fill="#000000" fill-rule="nonzero" fill-opacity="1" /><path clip-path="url(#clip940)" d="M999.176 1537.77 L999.176 1543.3 Q996.693 1542.03 994.02 1541.39 Q991.346 1540.76 988.481 1540.76 Q984.121 1540.76 981.925 1542.09 Q979.76 1543.43 979.76 1546.11 Q979.76 1548.14 981.32 1549.32 Q982.88 1550.47 987.59 1551.52 L989.595 1551.96 Q995.834 1553.3 998.444 1555.75 Q1001.09 1558.17 1001.09 1562.53 Q1001.09 1567.49 997.139 1570.39 Q993.224 1573.29 986.349 1573.29 Q983.484 1573.29 980.365 1572.71 Q977.278 1572.17 973.84 1571.06 L973.84 1565.01 Q977.087 1566.7 980.238 1567.56 Q983.389 1568.39 986.476 1568.39 Q990.614 1568.39 992.842 1566.98 Q995.07 1565.55 995.07 1562.97 Q995.07 1560.59 993.447 1559.31 Q991.855 1558.04 986.413 1556.86 L984.375 1556.39 Q978.933 1555.24 976.514 1552.88 Q974.095 1550.5 974.095 1546.36 Q974.095 1541.33 977.66 1538.59 Q981.224 1535.86 987.781 1535.86 Q991.028 1535.86 993.892 1536.33 Q996.757 1536.81 999.176 1537.77 Z" fill="#000000" fill-rule="nonzero" fill-opacity="1" /><path clip-path="url(#clip940)" d="M1049.18 1522.84 L1049.18 1527.71 L1043.58 1527.71 Q1040.43 1527.71 1039.18 1528.98 Q1037.97 1530.25 1037.97 1533.56 L1037.97 1536.72 L1047.62 1536.72 L1047.62 1541.27 L1037.97 1541.27 L1037.97 1572.36 L1032.09 1572.36 L1032.09 1541.27 L1026.48 1541.27 L1026.48 1536.72 L1032.09 1536.72 L1032.09 1534.23 Q1032.09 1528.28 1034.86 1525.58 Q1037.62 1522.84 1043.64 1522.84 L1049.18 1522.84 Z" fill="#000000" fill-rule="nonzero" fill-opacity="1" /><path clip-path="url(#clip940)" d="M1070.28 1554.44 Q1063.18 1554.44 1060.45 1556.07 Q1057.71 1557.69 1057.71 1561.61 Q1057.71 1564.72 1059.75 1566.57 Q1061.81 1568.39 1065.35 1568.39 Q1070.22 1568.39 1073.15 1564.95 Q1076.11 1561.48 1076.11 1555.75 L1076.11 1554.44 L1070.28 1554.44 M1081.96 1552.03 L1081.96 1572.36 L1076.11 1572.36 L1076.11 1566.95 Q1074.1 1570.2 1071.11 1571.76 Q1068.12 1573.29 1063.79 1573.29 Q1058.31 1573.29 1055.07 1570.23 Q1051.85 1567.14 1051.85 1561.99 Q1051.85 1555.97 1055.86 1552.92 Q1059.9 1549.86 1067.89 1549.86 L1076.11 1549.86 L1076.11 1549.29 Q1076.11 1545.25 1073.43 1543.05 Q1070.79 1540.82 1065.98 1540.82 Q1062.93 1540.82 1060.03 1541.55 Q1057.14 1542.29 1054.46 1543.75 L1054.46 1538.34 Q1057.68 1537.1 1060.7 1536.49 Q1063.72 1535.86 1066.59 1535.86 Q1074.32 1535.86 1078.14 1539.87 Q1081.96 1543.88 1081.96 1552.03 Z" fill="#000000" fill-rule="nonzero" fill-opacity="1" /><path clip-path="url(#clip940)" d="M1119.68 1538.08 L1119.68 1543.56 Q1117.2 1542.19 1114.68 1541.52 Q1112.2 1540.82 1109.65 1540.82 Q1103.96 1540.82 1100.8 1544.45 Q1097.65 1548.05 1097.65 1554.57 Q1097.65 1561.1 1100.8 1564.72 Q1103.96 1568.32 1109.65 1568.32 Q1112.2 1568.32 1114.68 1567.65 Q1117.2 1566.95 1119.68 1565.58 L1119.68 1571 Q1117.23 1572.14 1114.59 1572.71 Q1111.98 1573.29 1109.02 1573.29 Q1100.96 1573.29 1096.22 1568.23 Q1091.48 1563.17 1091.48 1554.57 Q1091.48 1545.85 1096.25 1540.85 Q1101.06 1535.86 1109.4 1535.86 Q1112.1 1535.86 1114.68 1536.43 Q1117.26 1536.97 1119.68 1538.08 Z" fill="#000000" fill-rule="nonzero" fill-opacity="1" /><path clip-path="url(#clip940)" d="M1135.66 1526.59 L1135.66 1536.72 L1147.72 1536.72 L1147.72 1541.27 L1135.66 1541.27 L1135.66 1560.62 Q1135.66 1564.98 1136.83 1566.22 Q1138.04 1567.46 1141.7 1567.46 L1147.72 1567.46 L1147.72 1572.36 L1141.7 1572.36 Q1134.92 1572.36 1132.35 1569.85 Q1129.77 1567.3 1129.77 1560.62 L1129.77 1541.27 L1125.47 1541.27 L1125.47 1536.72 L1129.77 1536.72 L1129.77 1526.59 L1135.66 1526.59 Z" fill="#000000" fill-rule="nonzero" fill-opacity="1" /><path clip-path="url(#clip940)" d="M1169.24 1540.82 Q1164.52 1540.82 1161.79 1544.51 Q1159.05 1548.17 1159.05 1554.57 Q1159.05 1560.97 1161.76 1564.66 Q1164.49 1568.32 1169.24 1568.32 Q1173.91 1568.32 1176.65 1564.63 Q1179.39 1560.94 1179.39 1554.57 Q1179.39 1548.24 1176.65 1544.55 Q1173.91 1540.82 1169.24 1540.82 M1169.24 1535.86 Q1176.87 1535.86 1181.23 1540.82 Q1185.6 1545.79 1185.6 1554.57 Q1185.6 1563.32 1181.23 1568.32 Q1176.87 1573.29 1169.24 1573.29 Q1161.56 1573.29 1157.2 1568.32 Q1152.88 1563.32 1152.88 1554.57 Q1152.88 1545.79 1157.2 1540.82 Q1161.56 1535.86 1169.24 1535.86 Z" fill="#000000" fill-rule="nonzero" fill-opacity="1" /><path clip-path="url(#clip940)" d="M1215.96 1542.19 Q1214.97 1541.62 1213.8 1541.36 Q1212.65 1541.08 1211.25 1541.08 Q1206.28 1541.08 1203.61 1544.32 Q1200.97 1547.54 1200.97 1553.59 L1200.97 1572.36 L1195.08 1572.36 L1195.08 1536.72 L1200.97 1536.72 L1200.97 1542.25 Q1202.81 1539.01 1205.77 1537.45 Q1208.73 1535.86 1212.97 1535.86 Q1213.57 1535.86 1214.3 1535.95 Q1215.04 1536.02 1215.93 1536.17 L1215.96 1542.19 Z" fill="#000000" fill-rule="nonzero" fill-opacity="1" /><path clip-path="url(#clip940)" d="M1256.64 1540.82 Q1251.93 1540.82 1249.19 1544.51 Q1246.45 1548.17 1246.45 1554.57 Q1246.45 1560.97 1249.16 1564.66 Q1251.89 1568.32 1256.64 1568.32 Q1261.32 1568.32 1264.05 1564.63 Q1266.79 1560.94 1266.79 1554.57 Q1266.79 1548.24 1264.05 1544.55 Q1261.32 1540.82 1256.64 1540.82 M1256.64 1535.86 Q1264.28 1535.86 1268.64 1540.82 Q1273 1545.79 1273 1554.57 Q1273 1563.32 1268.64 1568.32 Q1264.28 1573.29 1256.64 1573.29 Q1248.97 1573.29 1244.61 1568.32 Q1240.28 1563.32 1240.28 1554.57 Q1240.28 1545.79 1244.61 1540.82 Q1248.97 1535.86 1256.64 1535.86 Z" fill="#000000" fill-rule="nonzero" fill-opacity="1" /><path clip-path="url(#clip940)" d="M1300.75 1522.84 L1300.75 1527.71 L1295.15 1527.71 Q1292 1527.71 1290.76 1528.98 Q1289.55 1530.25 1289.55 1533.56 L1289.55 1536.72 L1299.19 1536.72 L1299.19 1541.27 L1289.55 1541.27 L1289.55 1572.36 L1283.66 1572.36 L1283.66 1541.27 L1278.06 1541.27 L1278.06 1536.72 L1283.66 1536.72 L1283.66 1534.23 Q1283.66 1528.28 1286.43 1525.58 Q1289.2 1522.84 1295.21 1522.84 L1300.75 1522.84 Z" fill="#000000" fill-rule="nonzero" fill-opacity="1" /><path clip-path="url(#clip940)" d="M1332.17 1526.59 L1332.17 1536.72 L1344.23 1536.72 L1344.23 1541.27 L1332.17 1541.27 L1332.17 1560.62 Q1332.17 1564.98 1333.34 1566.22 Q1334.55 1567.46 1338.21 1567.46 L1344.23 1567.46 L1344.23 1572.36 L1338.21 1572.36 Q1331.43 1572.36 1328.86 1569.85 Q1326.28 1567.3 1326.28 1560.62 L1326.28 1541.27 L1321.98 1541.27 L1321.98 1536.72 L1326.28 1536.72 L1326.28 1526.59 L1332.17 1526.59 Z" fill="#000000" fill-rule="nonzero" fill-opacity="1" /><path clip-path="url(#clip940)" d="M1381.56 1550.85 L1381.56 1572.36 L1375.71 1572.36 L1375.71 1551.04 Q1375.71 1545.98 1373.73 1543.46 Q1371.76 1540.95 1367.81 1540.95 Q1363.07 1540.95 1360.33 1543.97 Q1357.6 1547 1357.6 1552.22 L1357.6 1572.36 L1351.71 1572.36 L1351.71 1522.84 L1357.6 1522.84 L1357.6 1542.25 Q1359.7 1539.04 1362.53 1537.45 Q1365.39 1535.86 1369.12 1535.86 Q1375.26 1535.86 1378.41 1539.68 Q1381.56 1543.46 1381.56 1550.85 Z" fill="#000000" fill-rule="nonzero" fill-opacity="1" /><path clip-path="url(#clip940)" d="M1423.74 1553.08 L1423.74 1555.94 L1396.81 1555.94 Q1397.19 1561.99 1400.44 1565.17 Q1403.72 1568.32 1409.54 1568.32 Q1412.91 1568.32 1416.07 1567.49 Q1419.25 1566.67 1422.37 1565.01 L1422.37 1570.55 Q1419.22 1571.89 1415.91 1572.59 Q1412.6 1573.29 1409.19 1573.29 Q1400.66 1573.29 1395.66 1568.32 Q1390.7 1563.36 1390.7 1554.89 Q1390.7 1546.14 1395.41 1541.01 Q1400.15 1535.86 1408.17 1535.86 Q1415.37 1535.86 1419.54 1540.5 Q1423.74 1545.12 1423.74 1553.08 M1417.88 1551.36 Q1417.82 1546.55 1415.17 1543.69 Q1412.56 1540.82 1408.24 1540.82 Q1403.33 1540.82 1400.37 1543.59 Q1397.45 1546.36 1397 1551.39 L1417.88 1551.36 Z" fill="#000000" fill-rule="nonzero" fill-opacity="1" /><path clip-path="url(#clip940)" d="M1479.66 1554.57 Q1479.66 1548.11 1476.99 1544.45 Q1474.34 1540.76 1469.7 1540.76 Q1465.05 1540.76 1462.38 1544.45 Q1459.73 1548.11 1459.73 1554.57 Q1459.73 1561.03 1462.38 1564.72 Q1465.05 1568.39 1469.7 1568.39 Q1474.34 1568.39 1476.99 1564.72 Q1479.66 1561.03 1479.66 1554.57 M1459.73 1542.13 Q1461.58 1538.94 1464.38 1537.42 Q1467.21 1535.86 1471.13 1535.86 Q1477.62 1535.86 1481.66 1541.01 Q1485.74 1546.17 1485.74 1554.57 Q1485.74 1562.97 1481.66 1568.13 Q1477.62 1573.29 1471.13 1573.29 Q1467.21 1573.29 1464.38 1571.76 Q1461.58 1570.2 1459.73 1567.02 L1459.73 1572.36 L1453.85 1572.36 L1453.85 1522.84 L1459.73 1522.84 L1459.73 1542.13 Z" fill="#000000" fill-rule="nonzero" fill-opacity="1" /><path clip-path="url(#clip940)" d="M1525.94 1553.08 L1525.94 1555.94 L1499.01 1555.94 Q1499.39 1561.99 1502.64 1565.17 Q1505.92 1568.32 1511.74 1568.32 Q1515.12 1568.32 1518.27 1567.49 Q1521.45 1566.67 1524.57 1565.01 L1524.57 1570.55 Q1521.42 1571.89 1518.11 1572.59 Q1514.8 1573.29 1511.39 1573.29 Q1502.86 1573.29 1497.87 1568.32 Q1492.9 1563.36 1492.9 1554.89 Q1492.9 1546.14 1497.61 1541.01 Q1502.35 1535.86 1510.37 1535.86 Q1517.57 1535.86 1521.74 1540.5 Q1525.94 1545.12 1525.94 1553.08 M1520.08 1551.36 Q1520.02 1546.55 1517.38 1543.69 Q1514.77 1540.82 1510.44 1540.82 Q1505.54 1540.82 1502.58 1543.59 Q1499.65 1546.36 1499.2 1551.39 L1520.08 1551.36 Z" fill="#000000" fill-rule="nonzero" fill-opacity="1" /><path clip-path="url(#clip940)" d="M1558.28 1537.77 L1558.28 1543.3 Q1555.79 1542.03 1553.12 1541.39 Q1550.45 1540.76 1547.58 1540.76 Q1543.22 1540.76 1541.02 1542.09 Q1538.86 1543.43 1538.86 1546.11 Q1538.86 1548.14 1540.42 1549.32 Q1541.98 1550.47 1546.69 1551.52 L1548.7 1551.96 Q1554.93 1553.3 1557.54 1555.75 Q1560.19 1558.17 1560.19 1562.53 Q1560.19 1567.49 1556.24 1570.39 Q1552.32 1573.29 1545.45 1573.29 Q1542.58 1573.29 1539.47 1572.71 Q1536.38 1572.17 1532.94 1571.06 L1532.94 1565.01 Q1536.19 1566.7 1539.34 1567.56 Q1542.49 1568.39 1545.58 1568.39 Q1549.71 1568.39 1551.94 1566.98 Q1554.17 1565.55 1554.17 1562.97 Q1554.17 1560.59 1552.55 1559.31 Q1550.96 1558.04 1545.51 1556.86 L1543.48 1556.39 Q1538.03 1555.24 1535.61 1552.88 Q1533.19 1550.5 1533.19 1546.36 Q1533.19 1541.33 1536.76 1538.59 Q1540.32 1535.86 1546.88 1535.86 Q1550.13 1535.86 1552.99 1536.33 Q1555.86 1536.81 1558.28 1537.77 Z" fill="#000000" fill-rule="nonzero" fill-opacity="1" /><path clip-path="url(#clip940)" d="M1575.3 1526.59 L1575.3 1536.72 L1587.37 1536.72 L1587.37 1541.27 L1575.3 1541.27 L1575.3 1560.62 Q1575.3 1564.98 1576.48 1566.22 Q1577.69 1567.46 1581.35 1567.46 L1587.37 1567.46 L1587.37 1572.36 L1581.35 1572.36 Q1574.57 1572.36 1571.99 1569.85 Q1569.42 1567.3 1569.42 1560.62 L1569.42 1541.27 L1565.12 1541.27 L1565.12 1536.72 L1569.42 1536.72 L1569.42 1526.59 L1575.3 1526.59 Z" fill="#000000" fill-rule="nonzero" fill-opacity="1" /><path clip-path="url(#clip940)" d="M1629.86 1522.9 Q1625.59 1530.22 1623.52 1537.38 Q1621.46 1544.55 1621.46 1551.9 Q1621.46 1559.25 1623.52 1566.48 Q1625.62 1573.67 1629.86 1580.96 L1624.77 1580.96 Q1619.99 1573.48 1617.6 1566.25 Q1615.25 1559.03 1615.25 1551.9 Q1615.25 1544.8 1617.6 1537.61 Q1619.96 1530.41 1624.77 1522.9 L1629.86 1522.9 Z" fill="#000000" fill-rule="nonzero" fill-opacity="1" /><path clip-path="url(#clip940)" d="M1641.22 1522.84 L1647.08 1522.84 L1647.08 1572.36 L1641.22 1572.36 L1641.22 1522.84 Z" fill="#000000" fill-rule="nonzero" fill-opacity="1" /><path clip-path="url(#clip940)" d="M1673.14 1540.82 Q1668.43 1540.82 1665.7 1544.51 Q1662.96 1548.17 1662.96 1554.57 Q1662.96 1560.97 1665.67 1564.66 Q1668.4 1568.32 1673.14 1568.32 Q1677.82 1568.32 1680.56 1564.63 Q1683.3 1560.94 1683.3 1554.57 Q1683.3 1548.24 1680.56 1544.55 Q1677.82 1540.82 1673.14 1540.82 M1673.14 1535.86 Q1680.78 1535.86 1685.14 1540.82 Q1689.5 1545.79 1689.5 1554.57 Q1689.5 1563.32 1685.14 1568.32 Q1680.78 1573.29 1673.14 1573.29 Q1665.47 1573.29 1661.11 1568.32 Q1656.79 1563.32 1656.79 1554.57 Q1656.79 1545.79 1661.11 1540.82 Q1665.47 1535.86 1673.14 1535.86 Z" fill="#000000" fill-rule="nonzero" fill-opacity="1" /><path clip-path="url(#clip940)" d="M1722.67 1554.13 Q1722.67 1547.76 1720.03 1544.26 Q1717.42 1540.76 1712.68 1540.76 Q1707.97 1540.76 1705.32 1544.26 Q1702.71 1547.76 1702.71 1554.13 Q1702.71 1560.46 1705.32 1563.96 Q1707.97 1567.46 1712.68 1567.46 Q1717.42 1567.46 1720.03 1563.96 Q1722.67 1560.46 1722.67 1554.13 M1728.53 1567.94 Q1728.53 1577.04 1724.48 1581.47 Q1720.44 1585.92 1712.1 1585.92 Q1709.02 1585.92 1706.28 1585.45 Q1703.54 1585 1700.96 1584.04 L1700.96 1578.35 Q1703.54 1579.75 1706.06 1580.42 Q1708.57 1581.08 1711.18 1581.08 Q1716.94 1581.08 1719.81 1578.06 Q1722.67 1575.07 1722.67 1568.99 L1722.67 1566.09 Q1720.86 1569.24 1718.02 1570.8 Q1715.19 1572.36 1711.24 1572.36 Q1704.69 1572.36 1700.68 1567.37 Q1696.67 1562.37 1696.67 1554.13 Q1696.67 1545.85 1700.68 1540.85 Q1704.69 1535.86 1711.24 1535.86 Q1715.19 1535.86 1718.02 1537.42 Q1720.86 1538.98 1722.67 1542.13 L1722.67 1536.72 L1728.53 1536.72 L1728.53 1567.94 Z" fill="#000000" fill-rule="nonzero" fill-opacity="1" /><path clip-path="url(#clip940)" d="M1784.04 1537.77 L1784.04 1543.3 Q1781.55 1542.03 1778.88 1541.39 Q1776.21 1540.76 1773.34 1540.76 Q1768.98 1540.76 1766.78 1542.09 Q1764.62 1543.43 1764.62 1546.11 Q1764.62 1548.14 1766.18 1549.32 Q1767.74 1550.47 1772.45 1551.52 L1774.46 1551.96 Q1780.69 1553.3 1783.3 1555.75 Q1785.95 1558.17 1785.95 1562.53 Q1785.95 1567.49 1782 1570.39 Q1778.08 1573.29 1771.21 1573.29 Q1768.34 1573.29 1765.22 1572.71 Q1762.14 1572.17 1758.7 1571.06 L1758.7 1565.01 Q1761.95 1566.7 1765.1 1567.56 Q1768.25 1568.39 1771.34 1568.39 Q1775.47 1568.39 1777.7 1566.98 Q1779.93 1565.55 1779.93 1562.97 Q1779.93 1560.59 1778.31 1559.31 Q1776.71 1558.04 1771.27 1556.86 L1769.24 1556.39 Q1763.79 1555.24 1761.37 1552.88 Q1758.95 1550.5 1758.95 1546.36 Q1758.95 1541.33 1762.52 1538.59 Q1766.08 1535.86 1772.64 1535.86 Q1775.89 1535.86 1778.75 1536.33 Q1781.62 1536.81 1784.04 1537.77 Z" fill="#000000" fill-rule="nonzero" fill-opacity="1" /><path clip-path="url(#clip940)" d="M1820.92 1538.08 L1820.92 1543.56 Q1818.44 1542.19 1815.93 1541.52 Q1813.45 1540.82 1810.9 1540.82 Q1805.2 1540.82 1802.05 1544.45 Q1798.9 1548.05 1798.9 1554.57 Q1798.9 1561.1 1802.05 1564.72 Q1805.2 1568.32 1810.9 1568.32 Q1813.45 1568.32 1815.93 1567.65 Q1818.44 1566.95 1820.92 1565.58 L1820.92 1571 Q1818.47 1572.14 1815.83 1572.71 Q1813.22 1573.29 1810.26 1573.29 Q1802.21 1573.29 1797.47 1568.23 Q1792.72 1563.17 1792.72 1554.57 Q1792.72 1545.85 1797.5 1540.85 Q1802.31 1535.86 1810.64 1535.86 Q1813.35 1535.86 1815.93 1536.43 Q1818.51 1536.97 1820.92 1538.08 Z" fill="#000000" fill-rule="nonzero" fill-opacity="1" /><path clip-path="url(#clip940)" d="M1847.31 1554.44 Q1840.21 1554.44 1837.48 1556.07 Q1834.74 1557.69 1834.74 1561.61 Q1834.74 1564.72 1836.78 1566.57 Q1838.84 1568.39 1842.38 1568.39 Q1847.25 1568.39 1850.18 1564.95 Q1853.14 1561.48 1853.14 1555.75 L1853.14 1554.44 L1847.31 1554.44 M1858.99 1552.03 L1858.99 1572.36 L1853.14 1572.36 L1853.14 1566.95 Q1851.13 1570.2 1848.14 1571.76 Q1845.15 1573.29 1840.82 1573.29 Q1835.34 1573.29 1832.1 1570.23 Q1828.88 1567.14 1828.88 1561.99 Q1828.88 1555.97 1832.89 1552.92 Q1836.93 1549.86 1844.92 1549.86 L1853.14 1549.86 L1853.14 1549.29 Q1853.14 1545.25 1850.46 1543.05 Q1847.82 1540.82 1843.01 1540.82 Q1839.96 1540.82 1837.06 1541.55 Q1834.17 1542.29 1831.49 1543.75 L1831.49 1538.34 Q1834.71 1537.1 1837.73 1536.49 Q1840.75 1535.86 1843.62 1535.86 Q1851.35 1535.86 1855.17 1539.87 Q1858.99 1543.88 1858.99 1552.03 Z" fill="#000000" fill-rule="nonzero" fill-opacity="1" /><path clip-path="url(#clip940)" d="M1871.05 1522.84 L1876.91 1522.84 L1876.91 1572.36 L1871.05 1572.36 L1871.05 1522.84 Z" fill="#000000" fill-rule="nonzero" fill-opacity="1" /><path clip-path="url(#clip940)" d="M1919.66 1553.08 L1919.66 1555.94 L1892.73 1555.94 Q1893.11 1561.99 1896.36 1565.17 Q1899.64 1568.32 1905.46 1568.32 Q1908.84 1568.32 1911.99 1567.49 Q1915.17 1566.67 1918.29 1565.01 L1918.29 1570.55 Q1915.14 1571.89 1911.83 1572.59 Q1908.52 1573.29 1905.11 1573.29 Q1896.58 1573.29 1891.58 1568.32 Q1886.62 1563.36 1886.62 1554.89 Q1886.62 1546.14 1891.33 1541.01 Q1896.07 1535.86 1904.09 1535.86 Q1911.29 1535.86 1915.46 1540.5 Q1919.66 1545.12 1919.66 1553.08 M1913.8 1551.36 Q1913.74 1546.55 1911.1 1543.69 Q1908.49 1540.82 1904.16 1540.82 Q1899.25 1540.82 1896.29 1543.59 Q1893.37 1546.36 1892.92 1551.39 L1913.8 1551.36 Z" fill="#000000" fill-rule="nonzero" fill-opacity="1" /><path clip-path="url(#clip940)" d="M1928.35 1522.9 L1933.44 1522.9 Q1938.21 1530.41 1940.57 1537.61 Q1942.96 1544.8 1942.96 1551.9 Q1942.96 1559.03 1940.57 1566.25 Q1938.21 1573.48 1933.44 1580.96 L1928.35 1580.96 Q1932.58 1573.67 1934.65 1566.48 Q1936.75 1559.25 1936.75 1551.9 Q1936.75 1544.55 1934.65 1537.38 Q1932.58 1530.22 1928.35 1522.9 Z" fill="#000000" fill-rule="nonzero" fill-opacity="1" /><polyline clip-path="url(#clip940)" style="stroke:#000000; stroke-linecap:round; stroke-linejoin:round; stroke-width:4; stroke-opacity:1; fill:none" points="249.542,1414.54 249.542,47.2441 "/>
<polyline clip-path="url(#clip940)" style="stroke:#000000; stroke-linecap:round; stroke-linejoin:round; stroke-width:4; stroke-opacity:1; fill:none" points="249.542,1414.54 268.44,1414.54 "/>
<polyline clip-path="url(#clip940)" style="stroke:#000000; stroke-linecap:round; stroke-linejoin:round; stroke-width:4; stroke-opacity:1; fill:none" points="249.542,1103.79 268.44,1103.79 "/>
<polyline clip-path="url(#clip940)" style="stroke:#000000; stroke-linecap:round; stroke-linejoin:round; stroke-width:4; stroke-opacity:1; fill:none" points="249.542,793.042 268.44,793.042 "/>
<polyline clip-path="url(#clip940)" style="stroke:#000000; stroke-linecap:round; stroke-linejoin:round; stroke-width:4; stroke-opacity:1; fill:none" points="249.542,482.293 268.44,482.293 "/>
<polyline clip-path="url(#clip940)" style="stroke:#000000; stroke-linecap:round; stroke-linejoin:round; stroke-width:4; stroke-opacity:1; fill:none" points="249.542,171.544 268.44,171.544 "/>
<path clip-path="url(#clip940)" d="M126.205 1400.34 Q122.593 1400.34 120.765 1403.9 Q118.959 1407.44 118.959 1414.57 Q118.959 1421.68 120.765 1425.25 Q122.593 1428.79 126.205 1428.79 Q129.839 1428.79 131.644 1425.25 Q133.473 1421.68 133.473 1414.57 Q133.473 1407.44 131.644 1403.9 Q129.839 1400.34 126.205 1400.34 M126.205 1396.63 Q132.015 1396.63 135.07 1401.24 Q138.149 1405.82 138.149 1414.57 Q138.149 1423.3 135.07 1427.91 Q132.015 1432.49 126.205 1432.49 Q120.394 1432.49 117.316 1427.91 Q114.26 1423.3 114.26 1414.57 Q114.26 1405.82 117.316 1401.24 Q120.394 1396.63 126.205 1396.63 Z" fill="#000000" fill-rule="nonzero" fill-opacity="1" /><path clip-path="url(#clip940)" d="M146.366 1425.94 L151.251 1425.94 L151.251 1431.82 L146.366 1431.82 L146.366 1425.94 Z" fill="#000000" fill-rule="nonzero" fill-opacity="1" /><path clip-path="url(#clip940)" d="M171.436 1400.34 Q167.825 1400.34 165.996 1403.9 Q164.19 1407.44 164.19 1414.57 Q164.19 1421.68 165.996 1425.25 Q167.825 1428.79 171.436 1428.79 Q175.07 1428.79 176.876 1425.25 Q178.704 1421.68 178.704 1414.57 Q178.704 1407.44 176.876 1403.9 Q175.07 1400.34 171.436 1400.34 M171.436 1396.63 Q177.246 1396.63 180.301 1401.24 Q183.38 1405.82 183.38 1414.57 Q183.38 1423.3 180.301 1427.91 Q177.246 1432.49 171.436 1432.49 Q165.626 1432.49 162.547 1427.91 Q159.491 1423.3 159.491 1414.57 Q159.491 1405.82 162.547 1401.24 Q165.626 1396.63 171.436 1396.63 Z" fill="#000000" fill-rule="nonzero" fill-opacity="1" /><path clip-path="url(#clip940)" d="M201.598 1400.34 Q197.987 1400.34 196.158 1403.9 Q194.352 1407.44 194.352 1414.57 Q194.352 1421.68 196.158 1425.25 Q197.987 1428.79 201.598 1428.79 Q205.232 1428.79 207.037 1425.25 Q208.866 1421.68 208.866 1414.57 Q208.866 1407.44 207.037 1403.9 Q205.232 1400.34 201.598 1400.34 M201.598 1396.63 Q207.408 1396.63 210.463 1401.24 Q213.542 1405.82 213.542 1414.57 Q213.542 1423.3 210.463 1427.91 Q207.408 1432.49 201.598 1432.49 Q195.787 1432.49 192.709 1427.91 Q189.653 1423.3 189.653 1414.57 Q189.653 1405.82 192.709 1401.24 Q195.787 1396.63 201.598 1396.63 Z" fill="#000000" fill-rule="nonzero" fill-opacity="1" /><path clip-path="url(#clip940)" d="M127.2 1089.59 Q123.589 1089.59 121.76 1093.15 Q119.955 1096.7 119.955 1103.83 Q119.955 1110.93 121.76 1114.5 Q123.589 1118.04 127.2 1118.04 Q130.834 1118.04 132.64 1114.5 Q134.468 1110.93 134.468 1103.83 Q134.468 1096.7 132.64 1093.15 Q130.834 1089.59 127.2 1089.59 M127.2 1085.89 Q133.01 1085.89 136.066 1090.49 Q139.144 1095.08 139.144 1103.83 Q139.144 1112.55 136.066 1117.16 Q133.01 1121.74 127.2 1121.74 Q121.39 1121.74 118.311 1117.16 Q115.256 1112.55 115.256 1103.83 Q115.256 1095.08 118.311 1090.49 Q121.39 1085.89 127.2 1085.89 Z" fill="#000000" fill-rule="nonzero" fill-opacity="1" /><path clip-path="url(#clip940)" d="M147.362 1115.19 L152.246 1115.19 L152.246 1121.07 L147.362 1121.07 L147.362 1115.19 Z" fill="#000000" fill-rule="nonzero" fill-opacity="1" /><path clip-path="url(#clip940)" d="M166.459 1117.14 L182.778 1117.14 L182.778 1121.07 L160.834 1121.07 L160.834 1117.14 Q163.496 1114.38 168.079 1109.75 Q172.686 1105.1 173.866 1103.76 Q176.112 1101.23 176.991 1099.5 Q177.894 1097.74 177.894 1096.05 Q177.894 1093.29 175.95 1091.56 Q174.028 1089.82 170.927 1089.82 Q168.727 1089.82 166.274 1090.58 Q163.843 1091.35 161.065 1092.9 L161.065 1088.18 Q163.89 1087.04 166.343 1086.46 Q168.797 1085.89 170.834 1085.89 Q176.204 1085.89 179.399 1088.57 Q182.593 1091.26 182.593 1095.75 Q182.593 1097.88 181.783 1099.8 Q180.996 1101.7 178.889 1104.29 Q178.311 1104.96 175.209 1108.18 Q172.107 1111.37 166.459 1117.14 Z" fill="#000000" fill-rule="nonzero" fill-opacity="1" /><path clip-path="url(#clip940)" d="M192.639 1086.51 L210.996 1086.51 L210.996 1090.45 L196.922 1090.45 L196.922 1098.92 Q197.94 1098.57 198.959 1098.41 Q199.977 1098.22 200.996 1098.22 Q206.783 1098.22 210.162 1101.39 Q213.542 1104.57 213.542 1109.98 Q213.542 1115.56 210.07 1118.66 Q206.598 1121.74 200.278 1121.74 Q198.102 1121.74 195.834 1121.37 Q193.588 1121 191.181 1120.26 L191.181 1115.56 Q193.264 1116.7 195.487 1117.25 Q197.709 1117.81 200.186 1117.81 Q204.19 1117.81 206.528 1115.7 Q208.866 1113.59 208.866 1109.98 Q208.866 1106.37 206.528 1104.27 Q204.19 1102.16 200.186 1102.16 Q198.311 1102.16 196.436 1102.58 Q194.584 1102.99 192.639 1103.87 L192.639 1086.51 Z" fill="#000000" fill-rule="nonzero" fill-opacity="1" /><path clip-path="url(#clip940)" d="M126.205 778.84 Q122.593 778.84 120.765 782.405 Q118.959 785.947 118.959 793.076 Q118.959 800.183 120.765 803.748 Q122.593 807.289 126.205 807.289 Q129.839 807.289 131.644 803.748 Q133.473 800.183 133.473 793.076 Q133.473 785.947 131.644 782.405 Q129.839 778.84 126.205 778.84 M126.205 775.137 Q132.015 775.137 135.07 779.743 Q138.149 784.327 138.149 793.076 Q138.149 801.803 135.07 806.41 Q132.015 810.993 126.205 810.993 Q120.394 810.993 117.316 806.41 Q114.26 801.803 114.26 793.076 Q114.26 784.327 117.316 779.743 Q120.394 775.137 126.205 775.137 Z" fill="#000000" fill-rule="nonzero" fill-opacity="1" /><path clip-path="url(#clip940)" d="M146.366 804.442 L151.251 804.442 L151.251 810.322 L146.366 810.322 L146.366 804.442 Z" fill="#000000" fill-rule="nonzero" fill-opacity="1" /><path clip-path="url(#clip940)" d="M161.482 775.762 L179.839 775.762 L179.839 779.697 L165.765 779.697 L165.765 788.169 Q166.783 787.822 167.802 787.66 Q168.82 787.475 169.839 787.475 Q175.626 787.475 179.005 790.646 Q182.385 793.817 182.385 799.234 Q182.385 804.813 178.913 807.914 Q175.44 810.993 169.121 810.993 Q166.945 810.993 164.677 810.623 Q162.431 810.252 160.024 809.512 L160.024 804.813 Q162.107 805.947 164.329 806.502 Q166.552 807.058 169.028 807.058 Q173.033 807.058 175.371 804.951 Q177.709 802.845 177.709 799.234 Q177.709 795.623 175.371 793.516 Q173.033 791.41 169.028 791.41 Q167.153 791.41 165.278 791.827 Q163.427 792.243 161.482 793.123 L161.482 775.762 Z" fill="#000000" fill-rule="nonzero" fill-opacity="1" /><path clip-path="url(#clip940)" d="M201.598 778.84 Q197.987 778.84 196.158 782.405 Q194.352 785.947 194.352 793.076 Q194.352 800.183 196.158 803.748 Q197.987 807.289 201.598 807.289 Q205.232 807.289 207.037 803.748 Q208.866 800.183 208.866 793.076 Q208.866 785.947 207.037 782.405 Q205.232 778.84 201.598 778.84 M201.598 775.137 Q207.408 775.137 210.463 779.743 Q213.542 784.327 213.542 793.076 Q213.542 801.803 210.463 806.41 Q207.408 810.993 201.598 810.993 Q195.787 810.993 192.709 806.41 Q189.653 801.803 189.653 793.076 Q189.653 784.327 192.709 779.743 Q195.787 775.137 201.598 775.137 Z" fill="#000000" fill-rule="nonzero" fill-opacity="1" /><path clip-path="url(#clip940)" d="M127.2 468.091 Q123.589 468.091 121.76 471.656 Q119.955 475.198 119.955 482.327 Q119.955 489.434 121.76 492.999 Q123.589 496.54 127.2 496.54 Q130.834 496.54 132.64 492.999 Q134.468 489.434 134.468 482.327 Q134.468 475.198 132.64 471.656 Q130.834 468.091 127.2 468.091 M127.2 464.388 Q133.01 464.388 136.066 468.994 Q139.144 473.578 139.144 482.327 Q139.144 491.054 136.066 495.661 Q133.01 500.244 127.2 500.244 Q121.39 500.244 118.311 495.661 Q115.256 491.054 115.256 482.327 Q115.256 473.578 118.311 468.994 Q121.39 464.388 127.2 464.388 Z" fill="#000000" fill-rule="nonzero" fill-opacity="1" /><path clip-path="url(#clip940)" d="M147.362 493.693 L152.246 493.693 L152.246 499.573 L147.362 499.573 L147.362 493.693 Z" fill="#000000" fill-rule="nonzero" fill-opacity="1" /><path clip-path="url(#clip940)" d="M161.251 465.013 L183.473 465.013 L183.473 467.003 L170.927 499.573 L166.042 499.573 L177.848 468.948 L161.251 468.948 L161.251 465.013 Z" fill="#000000" fill-rule="nonzero" fill-opacity="1" /><path clip-path="url(#clip940)" d="M192.639 465.013 L210.996 465.013 L210.996 468.948 L196.922 468.948 L196.922 477.42 Q197.94 477.073 198.959 476.911 Q199.977 476.726 200.996 476.726 Q206.783 476.726 210.162 479.897 Q213.542 483.068 213.542 488.485 Q213.542 494.064 210.07 497.165 Q206.598 500.244 200.278 500.244 Q198.102 500.244 195.834 499.874 Q193.588 499.503 191.181 498.763 L191.181 494.064 Q193.264 495.198 195.487 495.753 Q197.709 496.309 200.186 496.309 Q204.19 496.309 206.528 494.202 Q208.866 492.096 208.866 488.485 Q208.866 484.874 206.528 482.767 Q204.19 480.661 200.186 480.661 Q198.311 480.661 196.436 481.077 Q194.584 481.494 192.639 482.374 L192.639 465.013 Z" fill="#000000" fill-rule="nonzero" fill-opacity="1" /><path clip-path="url(#clip940)" d="M117.015 184.889 L124.654 184.889 L124.654 158.523 L116.343 160.19 L116.343 155.93 L124.607 154.264 L129.283 154.264 L129.283 184.889 L136.922 184.889 L136.922 188.824 L117.015 188.824 L117.015 184.889 Z" fill="#000000" fill-rule="nonzero" fill-opacity="1" /><path clip-path="url(#clip940)" d="M146.366 182.944 L151.251 182.944 L151.251 188.824 L146.366 188.824 L146.366 182.944 Z" fill="#000000" fill-rule="nonzero" fill-opacity="1" /><path clip-path="url(#clip940)" d="M171.436 157.342 Q167.825 157.342 165.996 160.907 Q164.19 164.449 164.19 171.578 Q164.19 178.685 165.996 182.25 Q167.825 185.791 171.436 185.791 Q175.07 185.791 176.876 182.25 Q178.704 178.685 178.704 171.578 Q178.704 164.449 176.876 160.907 Q175.07 157.342 171.436 157.342 M171.436 153.639 Q177.246 153.639 180.301 158.245 Q183.38 162.828 183.38 171.578 Q183.38 180.305 180.301 184.912 Q177.246 189.495 171.436 189.495 Q165.626 189.495 162.547 184.912 Q159.491 180.305 159.491 171.578 Q159.491 162.828 162.547 158.245 Q165.626 153.639 171.436 153.639 Z" fill="#000000" fill-rule="nonzero" fill-opacity="1" /><path clip-path="url(#clip940)" d="M201.598 157.342 Q197.987 157.342 196.158 160.907 Q194.352 164.449 194.352 171.578 Q194.352 178.685 196.158 182.25 Q197.987 185.791 201.598 185.791 Q205.232 185.791 207.037 182.25 Q208.866 178.685 208.866 171.578 Q208.866 164.449 207.037 160.907 Q205.232 157.342 201.598 157.342 M201.598 153.639 Q207.408 153.639 210.463 158.245 Q213.542 162.828 213.542 171.578 Q213.542 180.305 210.463 184.912 Q207.408 189.495 201.598 189.495 Q195.787 189.495 192.709 184.912 Q189.653 180.305 189.653 171.578 Q189.653 162.828 192.709 158.245 Q195.787 153.639 201.598 153.639 Z" fill="#000000" fill-rule="nonzero" fill-opacity="1" /><path clip-path="url(#clip940)" d="M21.7677 1091.81 L39.6235 1091.81 L39.6235 1083.73 Q39.6235 1079.24 37.3 1076.79 Q34.9765 1074.34 30.6797 1074.34 Q26.4147 1074.34 24.0912 1076.79 Q21.7677 1079.24 21.7677 1083.73 L21.7677 1091.81 M16.4842 1098.24 L16.4842 1083.73 Q16.4842 1075.74 20.1126 1071.66 Q23.7092 1067.56 30.6797 1067.56 Q37.7138 1067.56 41.3104 1071.66 Q44.907 1075.74 44.907 1083.73 L44.907 1091.81 L64.0042 1091.81 L64.0042 1098.24 L16.4842 1098.24 Z" fill="#000000" fill-rule="nonzero" fill-opacity="1" /><path clip-path="url(#clip940)" d="M33.8307 1039.68 Q33.2578 1040.66 33.0032 1041.84 Q32.7167 1042.99 32.7167 1044.39 Q32.7167 1049.35 35.9632 1052.03 Q39.1779 1054.67 45.2253 1054.67 L64.0042 1054.67 L64.0042 1060.56 L28.3562 1060.56 L28.3562 1054.67 L33.8944 1054.67 Q30.6479 1052.82 29.0883 1049.86 Q27.4968 1046.9 27.4968 1042.67 Q27.4968 1042.06 27.5923 1041.33 Q27.656 1040.6 27.8151 1039.71 L33.8307 1039.68 Z" fill="#000000" fill-rule="nonzero" fill-opacity="1" /><path clip-path="url(#clip940)" d="M32.4621 1021.15 Q32.4621 1025.86 36.1542 1028.6 Q39.8145 1031.34 46.212 1031.34 Q52.6095 1031.34 56.3017 1028.63 Q59.9619 1025.89 59.9619 1021.15 Q59.9619 1016.47 56.2698 1013.74 Q52.5777 1011 46.212 1011 Q39.8781 1011 36.186 1013.74 Q32.4621 1016.47 32.4621 1021.15 M27.4968 1021.15 Q27.4968 1013.51 32.4621 1009.15 Q37.4273 1004.79 46.212 1004.79 Q54.9649 1004.79 59.9619 1009.15 Q64.9272 1013.51 64.9272 1021.15 Q64.9272 1028.82 59.9619 1033.18 Q54.9649 1037.51 46.212 1037.51 Q37.4273 1037.51 32.4621 1033.18 Q27.4968 1028.82 27.4968 1021.15 Z" fill="#000000" fill-rule="nonzero" fill-opacity="1" /><path clip-path="url(#clip940)" d="M58.657 989.419 L77.5631 989.419 L77.5631 995.308 L28.3562 995.308 L28.3562 989.419 L33.7671 989.419 Q30.5842 987.573 29.0564 984.772 Q27.4968 981.94 27.4968 978.025 Q27.4968 971.532 32.6531 967.489 Q37.8093 963.415 46.212 963.415 Q54.6147 963.415 59.771 967.489 Q64.9272 971.532 64.9272 978.025 Q64.9272 981.94 63.3994 984.772 Q61.8398 987.573 58.657 989.419 M46.212 969.495 Q39.7508 969.495 36.0905 972.168 Q32.3984 974.81 32.3984 979.457 Q32.3984 984.104 36.0905 986.777 Q39.7508 989.419 46.212 989.419 Q52.6732 989.419 56.3653 986.777 Q60.0256 984.104 60.0256 979.457 Q60.0256 974.81 56.3653 972.168 Q52.6732 969.495 46.212 969.495 Z" fill="#000000" fill-rule="nonzero" fill-opacity="1" /><path clip-path="url(#clip940)" d="M32.4621 939.894 Q32.4621 944.605 36.1542 947.342 Q39.8145 950.079 46.212 950.079 Q52.6095 950.079 56.3017 947.374 Q59.9619 944.636 59.9619 939.894 Q59.9619 935.215 56.2698 932.478 Q52.5777 929.741 46.212 929.741 Q39.8781 929.741 36.186 932.478 Q32.4621 935.215 32.4621 939.894 M27.4968 939.894 Q27.4968 932.255 32.4621 927.895 Q37.4273 923.534 46.212 923.534 Q54.9649 923.534 59.9619 927.895 Q64.9272 932.255 64.9272 939.894 Q64.9272 947.565 59.9619 951.925 Q54.9649 956.254 46.212 956.254 Q37.4273 956.254 32.4621 951.925 Q27.4968 947.565 27.4968 939.894 Z" fill="#000000" fill-rule="nonzero" fill-opacity="1" /><path clip-path="url(#clip940)" d="M33.8307 893.17 Q33.2578 894.156 33.0032 895.334 Q32.7167 896.48 32.7167 897.88 Q32.7167 902.846 35.9632 905.519 Q39.1779 908.161 45.2253 908.161 L64.0042 908.161 L64.0042 914.049 L28.3562 914.049 L28.3562 908.161 L33.8944 908.161 Q30.6479 906.315 29.0883 903.355 Q27.4968 900.395 27.4968 896.162 Q27.4968 895.557 27.5923 894.825 Q27.656 894.093 27.8151 893.202 L33.8307 893.17 Z" fill="#000000" fill-rule="nonzero" fill-opacity="1" /><path clip-path="url(#clip940)" d="M18.2347 881.234 L28.3562 881.234 L28.3562 869.171 L32.9077 869.171 L32.9077 881.234 L52.2594 881.234 Q56.6199 881.234 57.8613 880.056 Q59.1026 878.847 59.1026 875.187 L59.1026 869.171 L64.0042 869.171 L64.0042 875.187 Q64.0042 881.966 61.4897 884.544 Q58.9434 887.122 52.2594 887.122 L32.9077 887.122 L32.9077 891.419 L28.3562 891.419 L28.3562 887.122 L18.2347 887.122 L18.2347 881.234 Z" fill="#000000" fill-rule="nonzero" fill-opacity="1" /><path clip-path="url(#clip940)" d="M28.3562 861.469 L28.3562 855.612 L64.0042 855.612 L64.0042 861.469 L28.3562 861.469 M14.479 861.469 L14.479 855.612 L21.895 855.612 L21.895 861.469 L14.479 861.469 Z" fill="#000000" fill-rule="nonzero" fill-opacity="1" /><path clip-path="url(#clip940)" d="M32.4621 829.545 Q32.4621 834.255 36.1542 836.992 Q39.8145 839.73 46.212 839.73 Q52.6095 839.73 56.3017 837.024 Q59.9619 834.287 59.9619 829.545 Q59.9619 824.866 56.2698 822.128 Q52.5777 819.391 46.212 819.391 Q39.8781 819.391 36.186 822.128 Q32.4621 824.866 32.4621 829.545 M27.4968 829.545 Q27.4968 821.906 32.4621 817.545 Q37.4273 813.185 46.212 813.185 Q54.9649 813.185 59.9619 817.545 Q64.9272 821.906 64.9272 829.545 Q64.9272 837.215 59.9619 841.576 Q54.9649 845.904 46.212 845.904 Q37.4273 845.904 32.4621 841.576 Q27.4968 837.215 27.4968 829.545 Z" fill="#000000" fill-rule="nonzero" fill-opacity="1" /><path clip-path="url(#clip940)" d="M42.4881 773.845 L64.0042 773.845 L64.0042 779.701 L42.679 779.701 Q37.6183 779.701 35.1038 781.674 Q32.5894 783.648 32.5894 787.595 Q32.5894 792.337 35.6131 795.074 Q38.6368 797.811 43.8567 797.811 L64.0042 797.811 L64.0042 803.7 L28.3562 803.7 L28.3562 797.811 L33.8944 797.811 Q30.6797 795.711 29.0883 792.878 Q27.4968 790.013 27.4968 786.29 Q27.4968 780.147 31.3163 776.996 Q35.1038 773.845 42.4881 773.845 Z" fill="#000000" fill-rule="nonzero" fill-opacity="1" /><path clip-path="url(#clip940)" d="M32.4621 727.63 Q32.4621 732.34 36.1542 735.077 Q39.8145 737.815 46.212 737.815 Q52.6095 737.815 56.3017 735.109 Q59.9619 732.372 59.9619 727.63 Q59.9619 722.951 56.2698 720.213 Q52.5777 717.476 46.212 717.476 Q39.8781 717.476 36.186 720.213 Q32.4621 722.951 32.4621 727.63 M27.4968 727.63 Q27.4968 719.991 32.4621 715.63 Q37.4273 711.27 46.212 711.27 Q54.9649 711.27 59.9619 715.63 Q64.9272 719.991 64.9272 727.63 Q64.9272 735.3 59.9619 739.661 Q54.9649 743.989 46.212 743.989 Q37.4273 743.989 32.4621 739.661 Q27.4968 735.3 27.4968 727.63 Z" fill="#000000" fill-rule="nonzero" fill-opacity="1" /><path clip-path="url(#clip940)" d="M14.479 683.515 L19.3487 683.515 L19.3487 689.117 Q19.3487 692.268 20.6219 693.509 Q21.895 694.719 25.2052 694.719 L28.3562 694.719 L28.3562 685.075 L32.9077 685.075 L32.9077 694.719 L64.0042 694.719 L64.0042 700.607 L32.9077 700.607 L32.9077 706.209 L28.3562 706.209 L28.3562 700.607 L25.8736 700.607 Q19.9216 700.607 17.2162 697.838 Q14.479 695.069 14.479 689.053 L14.479 683.515 Z" fill="#000000" fill-rule="nonzero" fill-opacity="1" /><path clip-path="url(#clip940)" d="M58.657 652.228 L77.5631 652.228 L77.5631 658.116 L28.3562 658.116 L28.3562 652.228 L33.7671 652.228 Q30.5842 650.382 29.0564 647.581 Q27.4968 644.748 27.4968 640.833 Q27.4968 634.34 32.6531 630.298 Q37.8093 626.224 46.212 626.224 Q54.6147 626.224 59.771 630.298 Q64.9272 634.34 64.9272 640.833 Q64.9272 644.748 63.3994 647.581 Q61.8398 650.382 58.657 652.228 M46.212 632.303 Q39.7508 632.303 36.0905 634.977 Q32.3984 637.618 32.3984 642.265 Q32.3984 646.912 36.0905 649.586 Q39.7508 652.228 46.212 652.228 Q52.6732 652.228 56.3653 649.586 Q60.0256 646.912 60.0256 642.265 Q60.0256 637.618 56.3653 634.977 Q52.6732 632.303 46.212 632.303 Z" fill="#000000" fill-rule="nonzero" fill-opacity="1" /><path clip-path="url(#clip940)" d="M33.8307 595.859 Q33.2578 596.846 33.0032 598.024 Q32.7167 599.17 32.7167 600.57 Q32.7167 605.535 35.9632 608.209 Q39.1779 610.851 45.2253 610.851 L64.0042 610.851 L64.0042 616.739 L28.3562 616.739 L28.3562 610.851 L33.8944 610.851 Q30.6479 609.005 29.0883 606.045 Q27.4968 603.084 27.4968 598.851 Q27.4968 598.247 27.5923 597.515 Q27.656 596.782 27.8151 595.891 L33.8307 595.859 Z" fill="#000000" fill-rule="nonzero" fill-opacity="1" /><path clip-path="url(#clip940)" d="M32.4621 577.335 Q32.4621 582.046 36.1542 584.783 Q39.8145 587.52 46.212 587.52 Q52.6095 587.52 56.3017 584.815 Q59.9619 582.078 59.9619 577.335 Q59.9619 572.656 56.2698 569.919 Q52.5777 567.182 46.212 567.182 Q39.8781 567.182 36.186 569.919 Q32.4621 572.656 32.4621 577.335 M27.4968 577.335 Q27.4968 569.696 32.4621 565.336 Q37.4273 560.975 46.212 560.975 Q54.9649 560.975 59.9619 565.336 Q64.9272 569.696 64.9272 577.335 Q64.9272 585.006 59.9619 589.366 Q54.9649 593.695 46.212 593.695 Q37.4273 593.695 32.4621 589.366 Q27.4968 585.006 27.4968 577.335 Z" fill="#000000" fill-rule="nonzero" fill-opacity="1" /><path clip-path="url(#clip940)" d="M46.212 525.678 Q39.7508 525.678 36.0905 528.351 Q32.3984 530.993 32.3984 535.64 Q32.3984 540.287 36.0905 542.96 Q39.7508 545.602 46.212 545.602 Q52.6732 545.602 56.3653 542.96 Q60.0256 540.287 60.0256 535.64 Q60.0256 530.993 56.3653 528.351 Q52.6732 525.678 46.212 525.678 M33.7671 545.602 Q30.5842 543.756 29.0564 540.955 Q27.4968 538.122 27.4968 534.208 Q27.4968 527.715 32.6531 523.672 Q37.8093 519.598 46.212 519.598 Q54.6147 519.598 59.771 523.672 Q64.9272 527.715 64.9272 534.208 Q64.9272 538.122 63.3994 540.955 Q61.8398 543.756 58.657 545.602 L64.0042 545.602 L64.0042 551.49 L14.479 551.49 L14.479 545.602 L33.7671 545.602 Z" fill="#000000" fill-rule="nonzero" fill-opacity="1" /><path clip-path="url(#clip940)" d="M14.479 509.891 L14.479 504.034 L64.0042 504.034 L64.0042 509.891 L14.479 509.891 Z" fill="#000000" fill-rule="nonzero" fill-opacity="1" /><path clip-path="url(#clip940)" d="M44.7161 461.288 L47.5806 461.288 L47.5806 488.215 Q53.6281 487.833 56.8109 484.587 Q59.9619 481.309 59.9619 475.484 Q59.9619 472.11 59.1344 468.959 Q58.3069 465.776 56.6518 462.657 L62.1899 462.657 Q63.5267 465.808 64.227 469.118 Q64.9272 472.428 64.9272 475.834 Q64.9272 484.364 59.9619 489.361 Q54.9967 494.326 46.5303 494.326 Q37.7774 494.326 32.6531 489.616 Q27.4968 484.873 27.4968 476.853 Q27.4968 469.659 32.1438 465.49 Q36.7589 461.288 44.7161 461.288 M42.9973 467.145 Q38.1912 467.208 35.3266 469.85 Q32.4621 472.46 32.4621 476.789 Q32.4621 481.69 35.2312 484.651 Q38.0002 487.579 43.0292 488.024 L42.9973 467.145 Z" fill="#000000" fill-rule="nonzero" fill-opacity="1" /><path clip-path="url(#clip940)" d="M35.1993 423.922 Q31.2526 421.726 29.3747 418.67 Q27.4968 415.614 27.4968 411.477 Q27.4968 405.907 31.4117 402.883 Q35.2948 399.859 42.4881 399.859 L64.0042 399.859 L64.0042 405.748 L42.679 405.748 Q37.5546 405.748 35.072 407.562 Q32.5894 409.376 32.5894 413.1 Q32.5894 417.651 35.6131 420.293 Q38.6368 422.935 43.8567 422.935 L64.0042 422.935 L64.0042 428.823 L42.679 428.823 Q37.5228 428.823 35.072 430.638 Q32.5894 432.452 32.5894 436.239 Q32.5894 440.727 35.6449 443.369 Q38.6686 446.011 43.8567 446.011 L64.0042 446.011 L64.0042 451.899 L28.3562 451.899 L28.3562 446.011 L33.8944 446.011 Q30.616 444.005 29.0564 441.205 Q27.4968 438.404 27.4968 434.552 Q27.4968 430.669 29.4702 427.964 Q31.4436 425.227 35.1993 423.922 Z" fill="#000000" fill-rule="nonzero" fill-opacity="1" /><path clip-path="url(#clip940)" d="M29.4065 365.453 L34.9447 365.453 Q33.6716 367.935 33.035 370.609 Q32.3984 373.282 32.3984 376.147 Q32.3984 380.508 33.7352 382.704 Q35.072 384.868 37.7456 384.868 Q39.7826 384.868 40.9603 383.308 Q42.1061 381.749 43.1565 377.038 L43.6021 375.033 Q44.9389 368.795 47.3897 366.185 Q49.8086 363.543 54.1691 363.543 Q59.1344 363.543 62.0308 367.49 Q64.9272 371.405 64.9272 378.28 Q64.9272 381.144 64.3543 384.263 Q63.8132 387.351 62.6992 390.788 L56.6518 390.788 Q58.3387 387.542 59.198 384.391 Q60.0256 381.24 60.0256 378.152 Q60.0256 374.015 58.6251 371.787 Q57.1929 369.559 54.6147 369.559 Q52.2276 369.559 50.9545 371.182 Q49.6813 372.773 48.5037 378.216 L48.0262 380.253 Q46.8804 385.696 44.5251 388.115 Q42.138 390.534 38.0002 390.534 Q32.9713 390.534 30.2341 386.969 Q27.4968 383.404 27.4968 376.847 Q27.4968 373.601 27.9743 370.736 Q28.4517 367.872 29.4065 365.453 Z" fill="#000000" fill-rule="nonzero" fill-opacity="1" /><polyline clip-path="url(#clip942)" style="stroke:#009af9; stroke-linecap:round; stroke-linejoin:round; stroke-width:4; stroke-opacity:1; fill:none" points="249.542,1175.5 249.937,1175.5 249.937,1151.6 283.505,1151.6 283.505,1127.69 292.277,1127.69 292.277,1103.79 292.464,1103.79 292.464,1079.89 305.942,1079.89 305.942,1055.98 311.555,1055.98 311.555,1032.08 311.755,1032.08 311.755,1008.18 311.829,1008.18 311.829,984.272 311.928,984.272 311.928,960.368 325.353,960.368 325.353,936.464 335.163,936.464 335.163,912.561 336.444,912.561 336.444,888.657 336.745,888.657 336.745,864.753 337.103,864.753 337.103,840.849 339.471,840.849 339.471,816.946 347.762,816.946 347.762,793.042 363.815,793.042 363.815,769.138 363.95,769.138 363.95,745.234 371.352,745.234 371.352,721.33 385.361,721.33 385.361,697.427 402.26,697.427 402.26,673.523 417.626,673.523 417.626,649.619 418.964,649.619 418.964,625.715 431.14,625.715 431.14,601.812 448.793,601.812 448.793,577.908 457.23,577.908 457.23,554.004 460.35,554.004 460.35,530.1 464.531,530.1 464.531,506.197 467.221,506.197 467.221,482.293 492.649,482.293 492.649,458.389 514.982,458.389 514.982,434.485 542.967,434.485 542.967,410.581 613.301,410.581 613.301,386.678 673.076,386.678 673.076,362.774 751.557,362.774 751.557,338.87 780.893,338.87 780.893,314.966 835.273,314.966 835.273,291.063 862.73,291.063 862.73,267.159 919.282,267.159 919.282,243.255 960.286,243.255 960.286,219.351 1072.29,219.351 1072.29,195.447 1091.38,195.447 1091.38,171.544 4073.57,171.544 4073.57,147.64 "/>
<polyline clip-path="url(#clip942)" style="stroke:#e26f46; stroke-linecap:round; stroke-linejoin:round; stroke-width:4; stroke-opacity:1; fill:none" points="249.542,1223.31 261.318,1223.31 261.318,1199.41 274.818,1199.41 274.818,1175.5 279.961,1175.5 279.961,1151.6 306.187,1151.6 306.187,1127.69 315.559,1127.69 315.559,1103.79 330.878,1103.79 330.878,1079.89 340.26,1079.89 340.26,1055.98 347.478,1055.98 347.478,1032.08 352.406,1032.08 352.406,1008.18 360.975,1008.18 360.975,984.272 412.903,984.272 412.903,960.368 417.943,960.368 417.943,936.464 417.95,936.464 417.95,912.561 491.332,912.561 491.332,888.657 495.611,888.657 495.611,864.753 508.402,864.753 508.402,840.849 508.72,840.849 508.72,816.946 513.954,816.946 513.954,793.042 537.334,793.042 537.334,769.138 562.038,769.138 562.038,745.234 632.201,745.234 632.201,721.33 706.482,721.33 706.482,697.427 841.013,697.427 841.013,673.523 948.322,673.523 948.322,649.619 1122.28,649.619 1122.28,625.715 1148.2,625.715 1148.2,601.812 1167.38,601.812 1167.38,577.908 1209.91,577.908 1209.91,554.004 1259.12,554.004 1259.12,530.1 1263.66,530.1 1263.66,506.197 1408.56,506.197 1408.56,482.293 1459.97,482.293 1459.97,458.389 1512.33,458.389 1512.33,434.485 1549.05,434.485 1549.05,410.581 1589.68,410.581 1589.68,386.678 1605.97,386.678 1605.97,362.774 1674.54,362.774 1674.54,338.87 1703.11,338.87 1703.11,314.966 1719.39,314.966 1719.39,291.063 1813.44,291.063 1813.44,267.159 1866.86,267.159 1866.86,243.255 1895.81,243.255 1895.81,219.351 2033.96,219.351 2033.96,195.447 2161.55,195.447 2161.55,171.544 4073.57,171.544 4073.57,147.64 "/>
<polyline clip-path="url(#clip942)" style="stroke:#3da44d; stroke-linecap:round; stroke-linejoin:round; stroke-width:4; stroke-opacity:1; fill:none" points="249.542,1342.83 282.912,1342.83 282.912,1318.92 284.138,1318.92 284.138,1295.02 289.659,1295.02 289.659,1271.12 296.725,1271.12 296.725,1247.21 320.656,1247.21 320.656,1223.31 343.439,1223.31 343.439,1199.41 353.458,1199.41 353.458,1175.5 357.816,1175.5 357.816,1151.6 388.554,1151.6 388.554,1127.69 392.035,1127.69 392.035,1103.79 405.218,1103.79 405.218,1079.89 436.215,1079.89 436.215,1055.98 436.748,1055.98 436.748,1032.08 445.088,1032.08 445.088,1008.18 450.222,1008.18 450.222,984.272 452.714,984.272 452.714,960.368 495.254,960.368 495.254,936.464 503.188,936.464 503.188,912.561 508.551,912.561 508.551,888.657 513.353,888.657 513.353,864.753 529.341,864.753 529.341,840.849 529.851,840.849 529.851,816.946 562.736,816.946 562.736,793.042 564.818,793.042 564.818,769.138 568.55,769.138 568.55,745.234 576.459,745.234 576.459,721.33 651.501,721.33 651.501,697.427 664.757,697.427 664.757,673.523 684.67,673.523 684.67,649.619 702.327,649.619 702.327,625.715 713.296,625.715 713.296,601.812 785.06,601.812 785.06,577.908 786.519,577.908 786.519,554.004 856.628,554.004 856.628,530.1 857.661,530.1 857.661,506.197 862.141,506.197 862.141,482.293 873.795,482.293 873.795,458.389 952.174,458.389 952.174,434.485 1014.63,434.485 1014.63,410.581 1104.93,410.581 1104.93,386.678 1132.96,386.678 1132.96,362.774 1142.57,362.774 1142.57,338.87 1162.82,338.87 1162.82,314.966 1165.22,314.966 1165.22,291.063 1191.58,291.063 1191.58,267.159 1323.3,267.159 1323.3,243.255 1326.5,243.255 1326.5,219.351 1565.09,219.351 1565.09,195.447 1575.29,195.447 1575.29,171.544 4073.57,171.544 4073.57,147.64 "/>
<polyline clip-path="url(#clip942)" style="stroke:#c271d2; stroke-linecap:round; stroke-linejoin:round; stroke-width:4; stroke-opacity:1; fill:none" points="249.542,721.33 254.611,721.33 254.611,697.427 254.732,697.427 254.732,673.523 255.538,673.523 255.538,649.619 257.427,649.619 257.427,625.715 257.619,625.715 257.619,601.812 280.79,601.812 280.79,577.908 293.777,577.908 293.777,554.004 301.519,554.004 301.519,530.1 302.179,530.1 302.179,506.197 336.43,506.197 336.43,482.293 349.749,482.293 349.749,458.389 397.254,458.389 397.254,434.485 443.077,434.485 443.077,410.581 459.898,410.581 459.898,386.678 460.567,386.678 460.567,362.774 578.558,362.774 578.558,338.87 630.792,338.87 630.792,314.966 659.9,314.966 659.9,291.063 680.249,291.063 680.249,267.159 843.799,267.159 843.799,243.255 880.993,243.255 880.993,219.351 898.115,219.351 898.115,195.447 939.879,195.447 939.879,171.544 4073.57,171.544 4073.57,147.64 "/>
<polyline clip-path="url(#clip942)" style="stroke:#ac8d18; stroke-linecap:round; stroke-linejoin:round; stroke-width:4; stroke-opacity:1; fill:none" points="249.542,1366.73 252.592,1366.73 252.592,1342.83 254.764,1342.83 254.764,1318.92 255.172,1318.92 255.172,1295.02 256.056,1295.02 256.056,1271.12 257.562,1271.12 257.562,1247.21 257.635,1247.21 257.635,1223.31 281.186,1223.31 281.186,1199.41 286.751,1199.41 286.751,1175.5 312.706,1175.5 312.706,1151.6 314.131,1151.6 314.131,1127.69 357.261,1127.69 357.261,1103.79 362.335,1103.79 362.335,1079.89 366.966,1079.89 366.966,1055.98 373.753,1055.98 373.753,1032.08 389.172,1032.08 389.172,1008.18 431.165,1008.18 431.165,984.272 449.511,984.272 449.511,960.368 486.853,960.368 486.853,936.464 488.749,936.464 488.749,912.561 497.731,912.561 497.731,888.657 502.77,888.657 502.77,864.753 502.98,864.753 502.98,840.849 515.12,840.849 515.12,816.946 558.588,816.946 558.588,793.042 602.359,793.042 602.359,769.138 648.314,769.138 648.314,745.234 681.968,745.234 681.968,721.33 683.171,721.33 683.171,697.427 685.943,697.427 685.943,673.523 760.175,673.523 760.175,649.619 774.004,649.619 774.004,625.715 790.669,625.715 790.669,601.812 792.963,601.812 792.963,577.908 830.943,577.908 830.943,554.004 844.564,554.004 844.564,530.1 848.322,530.1 848.322,506.197 857.442,506.197 857.442,482.293 875.023,482.293 875.023,458.389 909.419,458.389 909.419,434.485 914.427,434.485 914.427,410.581 923.86,410.581 923.86,386.678 968.995,386.678 968.995,362.774 1001.65,362.774 1001.65,338.87 1002.25,338.87 1002.25,314.966 1014.04,314.966 1014.04,291.063 1039.75,291.063 1039.75,267.159 1094.36,267.159 1094.36,243.255 1140.08,243.255 1140.08,219.351 1155.76,219.351 1155.76,195.447 1165.08,195.447 1165.08,171.544 4073.57,171.544 4073.57,147.64 "/>
<path clip-path="url(#clip940)" d="M1829.62 1368.96 L2282.65 1368.96 L2282.65 1057.92 L1829.62 1057.92  Z" fill="#ffffff" fill-rule="evenodd" fill-opacity="1"/>
<polyline clip-path="url(#clip940)" style="stroke:#000000; stroke-linecap:round; stroke-linejoin:round; stroke-width:4; stroke-opacity:1; fill:none" points="1829.62,1368.96 2282.65,1368.96 2282.65,1057.92 1829.62,1057.92 1829.62,1368.96 "/>
<polyline clip-path="url(#clip940)" style="stroke:#009af9; stroke-linecap:round; stroke-linejoin:round; stroke-width:4; stroke-opacity:1; fill:none" points="1852.99,1109.76 1993.2,1109.76 "/>
<path clip-path="url(#clip940)" d="M2036.92 1106.09 Q2038.52 1103.22 2040.74 1101.86 Q2042.96 1100.49 2045.97 1100.49 Q2050.02 1100.49 2052.22 1103.34 Q2054.42 1106.16 2054.42 1111.4 L2054.42 1127.04 L2050.14 1127.04 L2050.14 1111.53 Q2050.14 1107.81 2048.82 1106 Q2047.5 1104.2 2044.79 1104.2 Q2041.48 1104.2 2039.56 1106.4 Q2037.64 1108.59 2037.64 1112.39 L2037.64 1127.04 L2033.36 1127.04 L2033.36 1111.53 Q2033.36 1107.78 2032.04 1106 Q2030.72 1104.2 2027.96 1104.2 Q2024.7 1104.2 2022.78 1106.42 Q2020.86 1108.62 2020.86 1112.39 L2020.86 1127.04 L2016.57 1127.04 L2016.57 1101.12 L2020.86 1101.12 L2020.86 1105.15 Q2022.31 1102.76 2024.35 1101.63 Q2026.39 1100.49 2029.19 1100.49 Q2032.01 1100.49 2033.98 1101.93 Q2035.97 1103.36 2036.92 1106.09 Z" fill="#000000" fill-rule="nonzero" fill-opacity="1" /><path clip-path="url(#clip940)" d="M2074.7 1114.01 Q2069.54 1114.01 2067.54 1115.19 Q2065.55 1116.37 2065.55 1119.22 Q2065.55 1121.49 2067.04 1122.83 Q2068.54 1124.15 2071.11 1124.15 Q2074.65 1124.15 2076.78 1121.65 Q2078.93 1119.13 2078.93 1114.96 L2078.93 1114.01 L2074.7 1114.01 M2083.19 1112.25 L2083.19 1127.04 L2078.93 1127.04 L2078.93 1123.11 Q2077.48 1125.47 2075.3 1126.6 Q2073.12 1127.71 2069.98 1127.71 Q2065.99 1127.71 2063.63 1125.49 Q2061.29 1123.25 2061.29 1119.5 Q2061.29 1115.12 2064.21 1112.9 Q2067.15 1110.68 2072.96 1110.68 L2078.93 1110.68 L2078.93 1110.26 Q2078.93 1107.32 2076.99 1105.72 Q2075.07 1104.1 2071.57 1104.1 Q2069.35 1104.1 2067.24 1104.64 Q2065.14 1105.17 2063.19 1106.23 L2063.19 1102.3 Q2065.53 1101.4 2067.73 1100.96 Q2069.93 1100.49 2072.01 1100.49 Q2077.64 1100.49 2080.41 1103.41 Q2083.19 1106.33 2083.19 1112.25 Z" fill="#000000" fill-rule="nonzero" fill-opacity="1" /><path clip-path="url(#clip940)" d="M2109.03 1105.05 L2109.03 1091.02 L2113.29 1091.02 L2113.29 1127.04 L2109.03 1127.04 L2109.03 1123.15 Q2107.68 1125.47 2105.62 1126.6 Q2103.59 1127.71 2100.72 1127.71 Q2096.02 1127.71 2093.05 1123.96 Q2090.11 1120.21 2090.11 1114.1 Q2090.11 1107.99 2093.05 1104.24 Q2096.02 1100.49 2100.72 1100.49 Q2103.59 1100.49 2105.62 1101.63 Q2107.68 1102.74 2109.03 1105.05 M2094.51 1114.1 Q2094.51 1118.8 2096.43 1121.49 Q2098.38 1124.15 2101.76 1124.15 Q2105.14 1124.15 2107.08 1121.49 Q2109.03 1118.8 2109.03 1114.1 Q2109.03 1109.4 2107.08 1106.74 Q2105.14 1104.06 2101.76 1104.06 Q2098.38 1104.06 2096.43 1106.74 Q2094.51 1109.4 2094.51 1114.1 Z" fill="#000000" fill-rule="nonzero" fill-opacity="1" /><path clip-path="url(#clip940)" d="M2143.61 1111.4 L2143.61 1127.04 L2139.35 1127.04 L2139.35 1111.53 Q2139.35 1107.85 2137.91 1106.02 Q2136.48 1104.2 2133.61 1104.2 Q2130.16 1104.2 2128.17 1106.4 Q2126.18 1108.59 2126.18 1112.39 L2126.18 1127.04 L2121.9 1127.04 L2121.9 1101.12 L2126.18 1101.12 L2126.18 1105.15 Q2127.71 1102.81 2129.77 1101.65 Q2131.85 1100.49 2134.56 1100.49 Q2139.03 1100.49 2141.32 1103.27 Q2143.61 1106.02 2143.61 1111.4 Z" fill="#000000" fill-rule="nonzero" fill-opacity="1" /><path clip-path="url(#clip940)" d="M2170.76 1102.11 L2170.76 1106.09 Q2168.96 1105.1 2167.13 1104.61 Q2165.32 1104.1 2163.47 1104.1 Q2159.33 1104.1 2157.03 1106.74 Q2154.74 1109.36 2154.74 1114.1 Q2154.74 1118.85 2157.03 1121.49 Q2159.33 1124.1 2163.47 1124.1 Q2165.32 1124.1 2167.13 1123.62 Q2168.96 1123.11 2170.76 1122.11 L2170.76 1126.05 Q2168.98 1126.88 2167.06 1127.3 Q2165.16 1127.71 2163.01 1127.71 Q2157.15 1127.71 2153.7 1124.03 Q2150.25 1120.35 2150.25 1114.1 Q2150.25 1107.76 2153.72 1104.13 Q2157.22 1100.49 2163.28 1100.49 Q2165.25 1100.49 2167.13 1100.91 Q2169 1101.3 2170.76 1102.11 Z" fill="#000000" fill-rule="nonzero" fill-opacity="1" /><path clip-path="url(#clip940)" d="M2178.17 1091.02 L2182.43 1091.02 L2182.43 1127.04 L2178.17 1127.04 L2178.17 1091.02 Z" fill="#000000" fill-rule="nonzero" fill-opacity="1" /><polyline clip-path="url(#clip940)" style="stroke:#e26f46; stroke-linecap:round; stroke-linejoin:round; stroke-width:4; stroke-opacity:1; fill:none" points="1852.99,1161.6 1993.2,1161.6 "/>
<path clip-path="url(#clip940)" d="M2038.29 1163.24 L2038.29 1178.88 L2034.03 1178.88 L2034.03 1163.37 Q2034.03 1159.69 2032.59 1157.86 Q2031.16 1156.04 2028.29 1156.04 Q2024.84 1156.04 2022.85 1158.24 Q2020.86 1160.43 2020.86 1164.23 L2020.86 1178.88 L2016.57 1178.88 L2016.57 1142.86 L2020.86 1142.86 L2020.86 1156.99 Q2022.38 1154.65 2024.44 1153.49 Q2026.53 1152.33 2029.23 1152.33 Q2033.7 1152.33 2035.99 1155.11 Q2038.29 1157.86 2038.29 1163.24 Z" fill="#000000" fill-rule="nonzero" fill-opacity="1" /><path clip-path="url(#clip940)" d="M2057.57 1181.29 Q2055.76 1185.92 2054.05 1187.33 Q2052.34 1188.74 2049.47 1188.74 L2046.06 1188.74 L2046.06 1185.18 L2048.56 1185.18 Q2050.32 1185.18 2051.29 1184.35 Q2052.27 1183.51 2053.45 1180.41 L2054.21 1178.47 L2043.73 1152.96 L2048.24 1152.96 L2056.34 1173.24 L2064.44 1152.96 L2068.96 1152.96 L2057.57 1181.29 Z" fill="#000000" fill-rule="nonzero" fill-opacity="1" /><path clip-path="url(#clip940)" d="M2093.45 1165.94 Q2093.45 1161.24 2091.5 1158.58 Q2089.58 1155.9 2086.2 1155.9 Q2082.82 1155.9 2080.88 1158.58 Q2078.96 1161.24 2078.96 1165.94 Q2078.96 1170.64 2080.88 1173.33 Q2082.82 1175.99 2086.2 1175.99 Q2089.58 1175.99 2091.5 1173.33 Q2093.45 1170.64 2093.45 1165.94 M2078.96 1156.89 Q2080.3 1154.58 2082.34 1153.47 Q2084.4 1152.33 2087.24 1152.33 Q2091.97 1152.33 2094.91 1156.08 Q2097.87 1159.83 2097.87 1165.94 Q2097.87 1172.05 2094.91 1175.8 Q2091.97 1179.55 2087.24 1179.55 Q2084.4 1179.55 2082.34 1178.44 Q2080.3 1177.31 2078.96 1174.99 L2078.96 1178.88 L2074.67 1178.88 L2074.67 1142.86 L2078.96 1142.86 L2078.96 1156.89 Z" fill="#000000" fill-rule="nonzero" fill-opacity="1" /><path clip-path="url(#clip940)" d="M2119.95 1156.94 Q2119.23 1156.52 2118.38 1156.34 Q2117.54 1156.13 2116.53 1156.13 Q2112.91 1156.13 2110.97 1158.49 Q2109.05 1160.83 2109.05 1165.23 L2109.05 1178.88 L2104.77 1178.88 L2104.77 1152.96 L2109.05 1152.96 L2109.05 1156.99 Q2110.39 1154.62 2112.54 1153.49 Q2114.7 1152.33 2117.78 1152.33 Q2118.22 1152.33 2118.75 1152.4 Q2119.28 1152.45 2119.93 1152.56 L2119.95 1156.94 Z" fill="#000000" fill-rule="nonzero" fill-opacity="1" /><path clip-path="url(#clip940)" d="M2124.42 1152.96 L2128.68 1152.96 L2128.68 1178.88 L2124.42 1178.88 L2124.42 1152.96 M2124.42 1142.86 L2128.68 1142.86 L2128.68 1148.26 L2124.42 1148.26 L2124.42 1142.86 Z" fill="#000000" fill-rule="nonzero" fill-opacity="1" /><path clip-path="url(#clip940)" d="M2154.65 1156.89 L2154.65 1142.86 L2158.91 1142.86 L2158.91 1178.88 L2154.65 1178.88 L2154.65 1174.99 Q2153.31 1177.31 2151.25 1178.44 Q2149.21 1179.55 2146.34 1179.55 Q2141.64 1179.55 2138.68 1175.8 Q2135.74 1172.05 2135.74 1165.94 Q2135.74 1159.83 2138.68 1156.08 Q2141.64 1152.33 2146.34 1152.33 Q2149.21 1152.33 2151.25 1153.47 Q2153.31 1154.58 2154.65 1156.89 M2140.14 1165.94 Q2140.14 1170.64 2142.06 1173.33 Q2144 1175.99 2147.38 1175.99 Q2150.76 1175.99 2152.71 1173.33 Q2154.65 1170.64 2154.65 1165.94 Q2154.65 1161.24 2152.71 1158.58 Q2150.76 1155.9 2147.38 1155.9 Q2144 1155.9 2142.06 1158.58 Q2140.14 1161.24 2140.14 1165.94 Z" fill="#000000" fill-rule="nonzero" fill-opacity="1" /><path clip-path="url(#clip940)" d="M2187.38 1186.75 L2187.38 1190.06 L2162.75 1190.06 L2162.75 1186.75 L2187.38 1186.75 Z" fill="#000000" fill-rule="nonzero" fill-opacity="1" /><path clip-path="url(#clip940)" d="M2191.22 1142.86 L2195.51 1142.86 L2195.51 1164.14 L2208.22 1152.96 L2213.65 1152.96 L2199.91 1165.09 L2214.23 1178.88 L2208.68 1178.88 L2195.51 1166.22 L2195.51 1178.88 L2191.22 1178.88 L2191.22 1142.86 Z" fill="#000000" fill-rule="nonzero" fill-opacity="1" /><path clip-path="url(#clip940)" d="M2218.68 1142.86 L2222.96 1142.86 L2222.96 1164.14 L2235.67 1152.96 L2241.11 1152.96 L2227.36 1165.09 L2241.69 1178.88 L2236.13 1178.88 L2222.96 1166.22 L2222.96 1178.88 L2218.68 1178.88 L2218.68 1142.86 Z" fill="#000000" fill-rule="nonzero" fill-opacity="1" /><path clip-path="url(#clip940)" d="M2250.51 1145.6 L2250.51 1152.96 L2259.28 1152.96 L2259.28 1156.27 L2250.51 1156.27 L2250.51 1170.34 Q2250.51 1173.51 2251.36 1174.42 Q2252.24 1175.32 2254.9 1175.32 L2259.28 1175.32 L2259.28 1178.88 L2254.9 1178.88 Q2249.97 1178.88 2248.1 1177.05 Q2246.22 1175.2 2246.22 1170.34 L2246.22 1156.27 L2243.1 1156.27 L2243.1 1152.96 L2246.22 1152.96 L2246.22 1145.6 L2250.51 1145.6 Z" fill="#000000" fill-rule="nonzero" fill-opacity="1" /><polyline clip-path="url(#clip940)" style="stroke:#3da44d; stroke-linecap:round; stroke-linejoin:round; stroke-width:4; stroke-opacity:1; fill:none" points="1852.99,1213.44 1993.2,1213.44 "/>
<path clip-path="url(#clip940)" d="M2036.92 1209.77 Q2038.52 1206.9 2040.74 1205.54 Q2042.96 1204.17 2045.97 1204.17 Q2050.02 1204.17 2052.22 1207.02 Q2054.42 1209.84 2054.42 1215.08 L2054.42 1230.72 L2050.14 1230.72 L2050.14 1215.21 Q2050.14 1211.49 2048.82 1209.68 Q2047.5 1207.88 2044.79 1207.88 Q2041.48 1207.88 2039.56 1210.08 Q2037.64 1212.27 2037.64 1216.07 L2037.64 1230.72 L2033.36 1230.72 L2033.36 1215.21 Q2033.36 1211.46 2032.04 1209.68 Q2030.72 1207.88 2027.96 1207.88 Q2024.7 1207.88 2022.78 1210.1 Q2020.86 1212.3 2020.86 1216.07 L2020.86 1230.72 L2016.57 1230.72 L2016.57 1204.8 L2020.86 1204.8 L2020.86 1208.83 Q2022.31 1206.44 2024.35 1205.31 Q2026.39 1204.17 2029.19 1204.17 Q2032.01 1204.17 2033.98 1205.61 Q2035.97 1207.04 2036.92 1209.77 Z" fill="#000000" fill-rule="nonzero" fill-opacity="1" /><path clip-path="url(#clip940)" d="M2074.7 1217.69 Q2069.54 1217.69 2067.54 1218.87 Q2065.55 1220.05 2065.55 1222.9 Q2065.55 1225.17 2067.04 1226.51 Q2068.54 1227.83 2071.11 1227.83 Q2074.65 1227.83 2076.78 1225.33 Q2078.93 1222.81 2078.93 1218.64 L2078.93 1217.69 L2074.7 1217.69 M2083.19 1215.93 L2083.19 1230.72 L2078.93 1230.72 L2078.93 1226.79 Q2077.48 1229.15 2075.3 1230.28 Q2073.12 1231.39 2069.98 1231.39 Q2065.99 1231.39 2063.63 1229.17 Q2061.29 1226.93 2061.29 1223.18 Q2061.29 1218.8 2064.21 1216.58 Q2067.15 1214.36 2072.96 1214.36 L2078.93 1214.36 L2078.93 1213.94 Q2078.93 1211 2076.99 1209.4 Q2075.07 1207.78 2071.57 1207.78 Q2069.35 1207.78 2067.24 1208.32 Q2065.14 1208.85 2063.19 1209.91 L2063.19 1205.98 Q2065.53 1205.08 2067.73 1204.64 Q2069.93 1204.17 2072.01 1204.17 Q2077.64 1204.17 2080.41 1207.09 Q2083.19 1210.01 2083.19 1215.93 Z" fill="#000000" fill-rule="nonzero" fill-opacity="1" /><path clip-path="url(#clip940)" d="M2096.6 1226.79 L2112.91 1226.79 L2112.91 1230.72 L2090.97 1230.72 L2090.97 1226.79 Q2093.63 1224.03 2098.22 1219.4 Q2102.82 1214.75 2104 1213.41 Q2106.25 1210.89 2107.13 1209.15 Q2108.03 1207.39 2108.03 1205.7 Q2108.03 1202.95 2106.09 1201.21 Q2104.16 1199.47 2101.06 1199.47 Q2098.86 1199.47 2096.41 1200.24 Q2093.98 1201 2091.2 1202.55 L2091.2 1197.83 Q2094.03 1196.7 2096.48 1196.12 Q2098.93 1195.54 2100.97 1195.54 Q2106.34 1195.54 2109.54 1198.22 Q2112.73 1200.91 2112.73 1205.4 Q2112.73 1207.53 2111.92 1209.45 Q2111.13 1211.35 2109.03 1213.94 Q2108.45 1214.61 2105.35 1217.83 Q2102.24 1221.02 2096.6 1226.79 Z" fill="#000000" fill-rule="nonzero" fill-opacity="1" /><path clip-path="url(#clip940)" d="M2121.55 1196.16 L2143.77 1196.16 L2143.77 1198.15 L2131.22 1230.72 L2126.34 1230.72 L2138.15 1200.1 L2121.55 1200.1 L2121.55 1196.16 Z" fill="#000000" fill-rule="nonzero" fill-opacity="1" /><polyline clip-path="url(#clip940)" style="stroke:#c271d2; stroke-linecap:round; stroke-linejoin:round; stroke-width:4; stroke-opacity:1; fill:none" points="1852.99,1265.28 1993.2,1265.28 "/>
<path clip-path="url(#clip940)" d="M2016.57 1246.54 L2020.83 1246.54 L2020.83 1282.56 L2016.57 1282.56 L2016.57 1246.54 Z" fill="#000000" fill-rule="nonzero" fill-opacity="1" /><path clip-path="url(#clip940)" d="M2029.74 1256.64 L2034 1256.64 L2034 1282.56 L2029.74 1282.56 L2029.74 1256.64 M2029.74 1246.54 L2034 1246.54 L2034 1251.94 L2029.74 1251.94 L2029.74 1246.54 Z" fill="#000000" fill-rule="nonzero" fill-opacity="1" /><path clip-path="url(#clip940)" d="M2056.04 1246.54 L2056.04 1250.09 L2051.97 1250.09 Q2049.67 1250.09 2048.77 1251.01 Q2047.89 1251.94 2047.89 1254.35 L2047.89 1256.64 L2054.91 1256.64 L2054.91 1259.95 L2047.89 1259.95 L2047.89 1282.56 L2043.61 1282.56 L2043.61 1259.95 L2039.54 1259.95 L2039.54 1256.64 L2043.61 1256.64 L2043.61 1254.83 Q2043.61 1250.5 2045.62 1248.54 Q2047.64 1246.54 2052.01 1246.54 L2056.04 1246.54 Z" fill="#000000" fill-rule="nonzero" fill-opacity="1" /><path clip-path="url(#clip940)" d="M2062.98 1249.28 L2062.98 1256.64 L2071.76 1256.64 L2071.76 1259.95 L2062.98 1259.95 L2062.98 1274.02 Q2062.98 1277.19 2063.84 1278.1 Q2064.72 1279 2067.38 1279 L2071.76 1279 L2071.76 1282.56 L2067.38 1282.56 Q2062.45 1282.56 2060.58 1280.73 Q2058.7 1278.88 2058.7 1274.02 L2058.7 1259.95 L2055.58 1259.95 L2055.58 1256.64 L2058.7 1256.64 L2058.7 1249.28 L2062.98 1249.28 Z" fill="#000000" fill-rule="nonzero" fill-opacity="1" /><path clip-path="url(#clip940)" d="M2099.54 1268.54 L2099.54 1270.62 L2079.95 1270.62 Q2080.23 1275.02 2082.59 1277.33 Q2084.98 1279.62 2089.21 1279.62 Q2091.66 1279.62 2093.96 1279.02 Q2096.27 1278.42 2098.54 1277.22 L2098.54 1281.24 Q2096.25 1282.22 2093.84 1282.73 Q2091.43 1283.23 2088.96 1283.23 Q2082.75 1283.23 2079.12 1279.62 Q2075.51 1276.01 2075.51 1269.86 Q2075.51 1263.49 2078.93 1259.76 Q2082.38 1256.01 2088.22 1256.01 Q2093.45 1256.01 2096.48 1259.39 Q2099.54 1262.75 2099.54 1268.54 M2095.28 1267.29 Q2095.23 1263.79 2093.31 1261.71 Q2091.41 1259.62 2088.26 1259.62 Q2084.7 1259.62 2082.54 1261.64 Q2080.41 1263.65 2080.09 1267.31 L2095.28 1267.29 Z" fill="#000000" fill-rule="nonzero" fill-opacity="1" /><path clip-path="url(#clip940)" d="M2123.59 1260.57 L2123.59 1246.54 L2127.85 1246.54 L2127.85 1282.56 L2123.59 1282.56 L2123.59 1278.67 Q2122.24 1280.99 2120.18 1282.12 Q2118.15 1283.23 2115.28 1283.23 Q2110.58 1283.23 2107.61 1279.48 Q2104.67 1275.73 2104.67 1269.62 Q2104.67 1263.51 2107.61 1259.76 Q2110.58 1256.01 2115.28 1256.01 Q2118.15 1256.01 2120.18 1257.15 Q2122.24 1258.26 2123.59 1260.57 M2109.07 1269.62 Q2109.07 1274.32 2110.99 1277.01 Q2112.94 1279.67 2116.32 1279.67 Q2119.7 1279.67 2121.64 1277.01 Q2123.59 1274.32 2123.59 1269.62 Q2123.59 1264.92 2121.64 1262.26 Q2119.7 1259.58 2116.32 1259.58 Q2112.94 1259.58 2110.99 1262.26 Q2109.07 1264.92 2109.07 1269.62 Z" fill="#000000" fill-rule="nonzero" fill-opacity="1" /><path clip-path="url(#clip940)" d="M2156.32 1290.43 L2156.32 1293.74 L2131.69 1293.74 L2131.69 1290.43 L2156.32 1290.43 Z" fill="#000000" fill-rule="nonzero" fill-opacity="1" /><path clip-path="url(#clip940)" d="M2160.16 1246.54 L2164.44 1246.54 L2164.44 1267.82 L2177.15 1256.64 L2182.59 1256.64 L2168.84 1268.77 L2183.17 1282.56 L2177.61 1282.56 L2164.44 1269.9 L2164.44 1282.56 L2160.16 1282.56 L2160.16 1246.54 Z" fill="#000000" fill-rule="nonzero" fill-opacity="1" /><path clip-path="url(#clip940)" d="M2187.61 1246.54 L2191.9 1246.54 L2191.9 1267.82 L2204.6 1256.64 L2210.04 1256.64 L2196.29 1268.77 L2210.62 1282.56 L2205.07 1282.56 L2191.9 1269.9 L2191.9 1282.56 L2187.61 1282.56 L2187.61 1246.54 Z" fill="#000000" fill-rule="nonzero" fill-opacity="1" /><path clip-path="url(#clip940)" d="M2219.44 1249.28 L2219.44 1256.64 L2228.22 1256.64 L2228.22 1259.95 L2219.44 1259.95 L2219.44 1274.02 Q2219.44 1277.19 2220.3 1278.1 Q2221.18 1279 2223.84 1279 L2228.22 1279 L2228.22 1282.56 L2223.84 1282.56 Q2218.91 1282.56 2217.03 1280.73 Q2215.16 1278.88 2215.16 1274.02 L2215.16 1259.95 L2212.03 1259.95 L2212.03 1256.64 L2215.16 1256.64 L2215.16 1249.28 L2219.44 1249.28 Z" fill="#000000" fill-rule="nonzero" fill-opacity="1" /><polyline clip-path="url(#clip940)" style="stroke:#ac8d18; stroke-linecap:round; stroke-linejoin:round; stroke-width:4; stroke-opacity:1; fill:none" points="1852.99,1317.12 1993.2,1317.12 "/>
<path clip-path="url(#clip940)" d="M2036.92 1313.45 Q2038.52 1310.58 2040.74 1309.22 Q2042.96 1307.85 2045.97 1307.85 Q2050.02 1307.85 2052.22 1310.7 Q2054.42 1313.52 2054.42 1318.76 L2054.42 1334.4 L2050.14 1334.4 L2050.14 1318.89 Q2050.14 1315.17 2048.82 1313.36 Q2047.5 1311.56 2044.79 1311.56 Q2041.48 1311.56 2039.56 1313.76 Q2037.64 1315.95 2037.64 1319.75 L2037.64 1334.4 L2033.36 1334.4 L2033.36 1318.89 Q2033.36 1315.14 2032.04 1313.36 Q2030.72 1311.56 2027.96 1311.56 Q2024.7 1311.56 2022.78 1313.78 Q2020.86 1315.98 2020.86 1319.75 L2020.86 1334.4 L2016.57 1334.4 L2016.57 1308.48 L2020.86 1308.48 L2020.86 1312.51 Q2022.31 1310.12 2024.35 1308.99 Q2026.39 1307.85 2029.19 1307.85 Q2032.01 1307.85 2033.98 1309.29 Q2035.97 1310.72 2036.92 1313.45 Z" fill="#000000" fill-rule="nonzero" fill-opacity="1" /><path clip-path="url(#clip940)" d="M2074.7 1321.37 Q2069.54 1321.37 2067.54 1322.55 Q2065.55 1323.73 2065.55 1326.58 Q2065.55 1328.85 2067.04 1330.19 Q2068.54 1331.51 2071.11 1331.51 Q2074.65 1331.51 2076.78 1329.01 Q2078.93 1326.49 2078.93 1322.32 L2078.93 1321.37 L2074.7 1321.37 M2083.19 1319.61 L2083.19 1334.4 L2078.93 1334.4 L2078.93 1330.47 Q2077.48 1332.83 2075.3 1333.96 Q2073.12 1335.07 2069.98 1335.07 Q2065.99 1335.07 2063.63 1332.85 Q2061.29 1330.61 2061.29 1326.86 Q2061.29 1322.48 2064.21 1320.26 Q2067.15 1318.04 2072.96 1318.04 L2078.93 1318.04 L2078.93 1317.62 Q2078.93 1314.68 2076.99 1313.08 Q2075.07 1311.46 2071.57 1311.46 Q2069.35 1311.46 2067.24 1312 Q2065.14 1312.53 2063.19 1313.59 L2063.19 1309.66 Q2065.53 1308.76 2067.73 1308.32 Q2069.93 1307.85 2072.01 1307.85 Q2077.64 1307.85 2080.41 1310.77 Q2083.19 1313.69 2083.19 1319.61 Z" fill="#000000" fill-rule="nonzero" fill-opacity="1" /><path clip-path="url(#clip940)" d="M2102.57 1317.99 Q2099.23 1317.99 2097.31 1319.77 Q2095.41 1321.56 2095.41 1324.68 Q2095.41 1327.81 2097.31 1329.59 Q2099.23 1331.37 2102.57 1331.37 Q2105.9 1331.37 2107.82 1329.59 Q2109.74 1327.78 2109.74 1324.68 Q2109.74 1321.56 2107.82 1319.77 Q2105.92 1317.99 2102.57 1317.99 M2097.89 1316 Q2094.88 1315.26 2093.19 1313.2 Q2091.53 1311.14 2091.53 1308.18 Q2091.53 1304.03 2094.47 1301.63 Q2097.43 1299.22 2102.57 1299.22 Q2107.73 1299.22 2110.67 1301.63 Q2113.61 1304.03 2113.61 1308.18 Q2113.61 1311.14 2111.92 1313.2 Q2110.25 1315.26 2107.27 1316 Q2110.65 1316.79 2112.52 1319.08 Q2114.42 1321.37 2114.42 1324.68 Q2114.42 1329.7 2111.34 1332.39 Q2108.29 1335.07 2102.57 1335.07 Q2096.85 1335.07 2093.77 1332.39 Q2090.72 1329.7 2090.72 1324.68 Q2090.72 1321.37 2092.61 1319.08 Q2094.51 1316.79 2097.89 1316 M2096.18 1308.62 Q2096.18 1311.3 2097.85 1312.81 Q2099.54 1314.31 2102.57 1314.31 Q2105.58 1314.31 2107.27 1312.81 Q2108.98 1311.3 2108.98 1308.62 Q2108.98 1305.93 2107.27 1304.43 Q2105.58 1302.92 2102.57 1302.92 Q2099.54 1302.92 2097.85 1304.43 Q2096.18 1305.93 2096.18 1308.62 Z" fill="#000000" fill-rule="nonzero" fill-opacity="1" /><path clip-path="url(#clip940)" d="M2133.31 1315.26 Q2130.16 1315.26 2128.31 1317.41 Q2126.48 1319.57 2126.48 1323.32 Q2126.48 1327.04 2128.31 1329.22 Q2130.16 1331.37 2133.31 1331.37 Q2136.46 1331.37 2138.29 1329.22 Q2140.14 1327.04 2140.14 1323.32 Q2140.14 1319.57 2138.29 1317.41 Q2136.46 1315.26 2133.31 1315.26 M2142.59 1300.61 L2142.59 1304.87 Q2140.83 1304.03 2139.03 1303.59 Q2137.24 1303.15 2135.48 1303.15 Q2130.85 1303.15 2128.4 1306.28 Q2125.97 1309.4 2125.62 1315.72 Q2126.99 1313.71 2129.05 1312.64 Q2131.11 1311.56 2133.59 1311.56 Q2138.79 1311.56 2141.8 1314.73 Q2144.84 1317.88 2144.84 1323.32 Q2144.84 1328.64 2141.69 1331.86 Q2138.54 1335.07 2133.31 1335.07 Q2127.31 1335.07 2124.14 1330.49 Q2120.97 1325.88 2120.97 1317.16 Q2120.97 1308.96 2124.86 1304.1 Q2128.75 1299.22 2135.3 1299.22 Q2137.06 1299.22 2138.84 1299.57 Q2140.65 1299.91 2142.59 1300.61 Z" fill="#000000" fill-rule="nonzero" fill-opacity="1" /></svg>
