<?xml version="1.0" encoding="utf-8"?>
<svg xmlns="http://www.w3.org/2000/svg" xmlns:xlink="http://www.w3.org/1999/xlink" width="600" height="400" viewBox="0 0 2400 1600">
<defs>
  <clipPath id="clip000">
    <rect x="0" y="0" width="2400" height="1600"/>
  </clipPath>
</defs>
<path clip-path="url(#clip000)" d="M0 1600 L2400 1600 L2400 0 L0 0  Z" fill="#ffffff" fill-rule="evenodd" fill-opacity="1"/>
<defs>
  <clipPath id="clip001">
    <rect x="480" y="0" width="1681" height="1600"/>
  </clipPath>
</defs>
<path clip-path="url(#clip000)" d="M258.519 1410.9 L2352.76 1410.9 L2352.76 123.472 L258.519 123.472  Z" fill="#ffffff" fill-rule="evenodd" fill-opacity="1"/>
<defs>
  <clipPath id="clip002">
    <rect x="258" y="123" width="2095" height="1288"/>
  </clipPath>
</defs>
<polyline clip-path="url(#clip002)" style="stroke:#000000; stroke-linecap:round; stroke-linejoin:round; stroke-width:2; stroke-opacity:0.1; fill:none" points="555.346,1410.9 555.346,123.472 "/>
<polyline clip-path="url(#clip002)" style="stroke:#000000; stroke-linecap:round; stroke-linejoin:round; stroke-width:2; stroke-opacity:0.1; fill:none" points="1465.74,1410.9 1465.74,123.472 "/>
<polyline clip-path="url(#clip002)" style="stroke:#000000; stroke-linecap:round; stroke-linejoin:round; stroke-width:2; stroke-opacity:0.1; fill:none" points="258.519,1374.46 2352.76,1374.46 "/>
<polyline clip-path="url(#clip002)" style="stroke:#000000; stroke-linecap:round; stroke-linejoin:round; stroke-width:2; stroke-opacity:0.1; fill:none" points="258.519,1057.19 2352.76,1057.19 "/>
<polyline clip-path="url(#clip002)" style="stroke:#000000; stroke-linecap:round; stroke-linejoin:round; stroke-width:2; stroke-opacity:0.1; fill:none" points="258.519,739.917 2352.76,739.917 "/>
<polyline clip-path="url(#clip002)" style="stroke:#000000; stroke-linecap:round; stroke-linejoin:round; stroke-width:2; stroke-opacity:0.1; fill:none" points="258.519,422.645 2352.76,422.645 "/>
<polyline clip-path="url(#clip000)" style="stroke:#000000; stroke-linecap:round; stroke-linejoin:round; stroke-width:4; stroke-opacity:1; fill:none" points="258.519,1410.9 2352.76,1410.9 "/>
<polyline clip-path="url(#clip000)" style="stroke:#000000; stroke-linecap:round; stroke-linejoin:round; stroke-width:4; stroke-opacity:1; fill:none" points="555.346,1410.9 555.346,1392 "/>
<polyline clip-path="url(#clip000)" style="stroke:#000000; stroke-linecap:round; stroke-linejoin:round; stroke-width:4; stroke-opacity:1; fill:none" points="1465.74,1410.9 1465.74,1392 "/>
<path clip-path="url(#clip000)" d="M502.819 1485.02 L510.457 1485.02 L510.457 1458.66 L502.147 1460.32 L502.147 1456.06 L510.411 1454.4 L515.087 1454.4 L515.087 1485.02 L522.726 1485.02 L522.726 1488.96 L502.819 1488.96 L502.819 1485.02 Z" fill="#000000" fill-rule="nonzero" fill-opacity="1" /><path clip-path="url(#clip000)" d="M542.17 1457.48 Q538.559 1457.48 536.73 1461.04 Q534.925 1464.58 534.925 1471.71 Q534.925 1478.82 536.73 1482.38 Q538.559 1485.92 542.17 1485.92 Q545.804 1485.92 547.61 1482.38 Q549.439 1478.82 549.439 1471.71 Q549.439 1464.58 547.61 1461.04 Q545.804 1457.48 542.17 1457.48 M542.17 1453.77 Q547.98 1453.77 551.036 1458.38 Q554.115 1462.96 554.115 1471.71 Q554.115 1480.44 551.036 1485.04 Q547.98 1489.63 542.17 1489.63 Q536.36 1489.63 533.281 1485.04 Q530.226 1480.44 530.226 1471.71 Q530.226 1462.96 533.281 1458.38 Q536.36 1453.77 542.17 1453.77 Z" fill="#000000" fill-rule="nonzero" fill-opacity="1" /><path clip-path="url(#clip000)" d="M555.299 1433.47 L570.214 1433.47 L570.214 1436.66 L558.779 1436.66 L558.779 1443.55 Q559.606 1443.27 560.434 1443.13 Q561.261 1442.98 562.089 1442.98 Q566.791 1442.98 569.537 1445.56 Q572.283 1448.14 572.283 1452.54 Q572.283 1457.07 569.462 1459.59 Q566.641 1462.09 561.506 1462.09 Q559.738 1462.09 557.895 1461.79 Q556.071 1461.49 554.115 1460.89 L554.115 1457.07 Q555.807 1457.99 557.613 1458.44 Q559.418 1458.89 561.431 1458.89 Q564.684 1458.89 566.584 1457.18 Q568.484 1455.47 568.484 1452.54 Q568.484 1449.6 566.584 1447.89 Q564.684 1446.18 561.431 1446.18 Q559.907 1446.18 558.384 1446.52 Q556.879 1446.86 555.299 1447.57 L555.299 1433.47 Z" fill="#000000" fill-rule="nonzero" fill-opacity="1" /><path clip-path="url(#clip000)" d="M579.768 1456.77 L583.737 1456.77 L583.737 1461.55 L579.768 1461.55 L579.768 1456.77 Z" fill="#000000" fill-rule="nonzero" fill-opacity="1" /><path clip-path="url(#clip000)" d="M595.285 1458.35 L608.544 1458.35 L608.544 1461.55 L590.714 1461.55 L590.714 1458.35 Q592.877 1456.11 596.601 1452.35 Q600.344 1448.57 601.303 1447.48 Q603.128 1445.43 603.842 1444.02 Q604.576 1442.59 604.576 1441.22 Q604.576 1438.98 602.996 1437.57 Q601.435 1436.16 598.915 1436.16 Q597.128 1436.16 595.134 1436.78 Q593.159 1437.4 590.903 1438.66 L590.903 1434.82 Q593.197 1433.9 595.191 1433.43 Q597.184 1432.96 598.839 1432.96 Q603.203 1432.96 605.798 1435.14 Q608.394 1437.32 608.394 1440.97 Q608.394 1442.7 607.735 1444.26 Q607.096 1445.8 605.385 1447.91 Q604.914 1448.46 602.394 1451.07 Q599.874 1453.67 595.285 1458.35 Z" fill="#000000" fill-rule="nonzero" fill-opacity="1" /><path clip-path="url(#clip000)" d="M1412.36 1485.02 L1420 1485.02 L1420 1458.66 L1411.69 1460.32 L1411.69 1456.06 L1419.95 1454.4 L1424.63 1454.4 L1424.63 1485.02 L1432.27 1485.02 L1432.27 1488.96 L1412.36 1488.96 L1412.36 1485.02 Z" fill="#000000" fill-rule="nonzero" fill-opacity="1" /><path clip-path="url(#clip000)" d="M1451.71 1457.48 Q1448.1 1457.48 1446.27 1461.04 Q1444.47 1464.58 1444.47 1471.71 Q1444.47 1478.82 1446.27 1482.38 Q1448.1 1485.92 1451.71 1485.92 Q1455.35 1485.92 1457.15 1482.38 Q1458.98 1478.82 1458.98 1471.71 Q1458.98 1464.58 1457.15 1461.04 Q1455.35 1457.48 1451.71 1457.48 M1451.71 1453.77 Q1457.52 1453.77 1460.58 1458.38 Q1463.66 1462.96 1463.66 1471.71 Q1463.66 1480.44 1460.58 1485.04 Q1457.52 1489.63 1451.71 1489.63 Q1445.9 1489.63 1442.82 1485.04 Q1439.77 1480.44 1439.77 1471.71 Q1439.77 1462.96 1442.82 1458.38 Q1445.9 1453.77 1451.71 1453.77 Z" fill="#000000" fill-rule="nonzero" fill-opacity="1" /><path clip-path="url(#clip000)" d="M1464.84 1433.47 L1479.76 1433.47 L1479.76 1436.66 L1468.32 1436.66 L1468.32 1443.55 Q1469.15 1443.27 1469.98 1443.13 Q1470.81 1442.98 1471.63 1442.98 Q1476.33 1442.98 1479.08 1445.56 Q1481.83 1448.14 1481.83 1452.54 Q1481.83 1457.07 1479.01 1459.59 Q1476.18 1462.09 1471.05 1462.09 Q1469.28 1462.09 1467.44 1461.79 Q1465.61 1461.49 1463.66 1460.89 L1463.66 1457.07 Q1465.35 1457.99 1467.16 1458.44 Q1468.96 1458.89 1470.97 1458.89 Q1474.23 1458.89 1476.13 1457.18 Q1478.03 1455.47 1478.03 1452.54 Q1478.03 1449.6 1476.13 1447.89 Q1474.23 1446.18 1470.97 1446.18 Q1469.45 1446.18 1467.93 1446.52 Q1466.42 1446.86 1464.84 1447.57 L1464.84 1433.47 Z" fill="#000000" fill-rule="nonzero" fill-opacity="1" /><path clip-path="url(#clip000)" d="M1489.31 1456.77 L1493.28 1456.77 L1493.28 1461.55 L1489.31 1461.55 L1489.31 1456.77 Z" fill="#000000" fill-rule="nonzero" fill-opacity="1" /><path clip-path="url(#clip000)" d="M1511.99 1436.78 L1502.4 1451.77 L1511.99 1451.77 L1511.99 1436.78 M1511 1433.47 L1515.77 1433.47 L1515.77 1451.77 L1519.78 1451.77 L1519.78 1454.93 L1515.77 1454.93 L1515.77 1461.55 L1511.99 1461.55 L1511.99 1454.93 L1499.32 1454.93 L1499.32 1451.26 L1511 1433.47 Z" fill="#000000" fill-rule="nonzero" fill-opacity="1" /><path clip-path="url(#clip000)" d="M1265.14 1552.67 L1265.14 1574.19 L1259.28 1574.19 L1259.28 1552.86 Q1259.28 1547.8 1257.31 1545.29 Q1255.33 1542.77 1251.39 1542.77 Q1246.64 1542.77 1243.91 1545.79 Q1241.17 1548.82 1241.17 1554.04 L1241.17 1574.19 L1235.28 1574.19 L1235.28 1538.54 L1241.17 1538.54 L1241.17 1544.08 Q1243.27 1540.86 1246.1 1539.27 Q1248.97 1537.68 1252.69 1537.68 Q1258.83 1537.68 1261.98 1541.5 Q1265.14 1545.29 1265.14 1552.67 Z" fill="#000000" fill-rule="nonzero" fill-opacity="1" /><path clip-path="url(#clip000)" d="M1272.62 1538.54 L1278.82 1538.54 L1289.96 1568.46 L1301.1 1538.54 L1307.31 1538.54 L1293.94 1574.19 L1285.98 1574.19 L1272.62 1538.54 Z" fill="#000000" fill-rule="nonzero" fill-opacity="1" /><path clip-path="url(#clip000)" d="M1331.59 1556.27 Q1324.5 1556.27 1321.76 1557.89 Q1319.02 1559.51 1319.02 1563.43 Q1319.02 1566.55 1321.06 1568.39 Q1323.13 1570.21 1326.66 1570.21 Q1331.53 1570.21 1334.46 1566.77 Q1337.42 1563.3 1337.42 1557.57 L1337.42 1556.27 L1331.59 1556.27 M1343.27 1553.85 L1343.27 1574.19 L1337.42 1574.19 L1337.42 1568.77 Q1335.41 1572.02 1332.42 1573.58 Q1329.43 1575.11 1325.1 1575.11 Q1319.63 1575.11 1316.38 1572.05 Q1313.16 1568.97 1313.16 1563.81 Q1313.16 1557.79 1317.18 1554.74 Q1321.22 1551.68 1329.21 1551.68 L1337.42 1551.68 L1337.42 1551.11 Q1337.42 1547.07 1334.74 1544.87 Q1332.1 1542.64 1327.3 1542.64 Q1324.24 1542.64 1321.34 1543.38 Q1318.45 1544.11 1315.77 1545.57 L1315.77 1540.16 Q1318.99 1538.92 1322.01 1538.31 Q1325.04 1537.68 1327.9 1537.68 Q1335.64 1537.68 1339.46 1541.69 Q1343.27 1545.7 1343.27 1553.85 Z" fill="#000000" fill-rule="nonzero" fill-opacity="1" /><path clip-path="url(#clip000)" d="M1375.99 1544.01 Q1375.01 1543.44 1373.83 1543.18 Q1372.68 1542.9 1371.28 1542.9 Q1366.32 1542.9 1363.65 1546.14 Q1361 1549.36 1361 1555.41 L1361 1574.19 L1355.11 1574.19 L1355.11 1538.54 L1361 1538.54 L1361 1544.08 Q1362.85 1540.83 1365.81 1539.27 Q1368.77 1537.68 1373 1537.68 Q1373.61 1537.68 1374.34 1537.77 Q1375.07 1537.84 1375.96 1538 L1375.99 1544.01 Z" fill="#000000" fill-rule="nonzero" fill-opacity="1" /><polyline clip-path="url(#clip000)" style="stroke:#000000; stroke-linecap:round; stroke-linejoin:round; stroke-width:4; stroke-opacity:1; fill:none" points="258.519,1410.9 258.519,123.472 "/>
<polyline clip-path="url(#clip000)" style="stroke:#000000; stroke-linecap:round; stroke-linejoin:round; stroke-width:4; stroke-opacity:1; fill:none" points="258.519,1374.46 277.417,1374.46 "/>
<polyline clip-path="url(#clip000)" style="stroke:#000000; stroke-linecap:round; stroke-linejoin:round; stroke-width:4; stroke-opacity:1; fill:none" points="258.519,1057.19 277.417,1057.19 "/>
<polyline clip-path="url(#clip000)" style="stroke:#000000; stroke-linecap:round; stroke-linejoin:round; stroke-width:4; stroke-opacity:1; fill:none" points="258.519,739.917 277.417,739.917 "/>
<polyline clip-path="url(#clip000)" style="stroke:#000000; stroke-linecap:round; stroke-linejoin:round; stroke-width:4; stroke-opacity:1; fill:none" points="258.519,422.645 277.417,422.645 "/>
<path clip-path="url(#clip000)" d="M115.063 1394.25 L122.702 1394.25 L122.702 1367.89 L114.392 1369.55 L114.392 1365.29 L122.656 1363.63 L127.332 1363.63 L127.332 1394.25 L134.97 1394.25 L134.97 1398.19 L115.063 1398.19 L115.063 1394.25 Z" fill="#000000" fill-rule="nonzero" fill-opacity="1" /><path clip-path="url(#clip000)" d="M154.415 1366.71 Q150.804 1366.71 148.975 1370.27 Q147.169 1373.81 147.169 1380.94 Q147.169 1388.05 148.975 1391.61 Q150.804 1395.16 154.415 1395.16 Q158.049 1395.16 159.855 1391.61 Q161.683 1388.05 161.683 1380.94 Q161.683 1373.81 159.855 1370.27 Q158.049 1366.71 154.415 1366.71 M154.415 1363 Q160.225 1363 163.28 1367.61 Q166.359 1372.19 166.359 1380.94 Q166.359 1389.67 163.28 1394.28 Q160.225 1398.86 154.415 1398.86 Q148.605 1398.86 145.526 1394.28 Q142.47 1389.67 142.47 1380.94 Q142.47 1372.19 145.526 1367.61 Q148.605 1363 154.415 1363 Z" fill="#000000" fill-rule="nonzero" fill-opacity="1" /><path clip-path="url(#clip000)" d="M176.064 1345.2 Q173.13 1345.2 171.644 1348.1 Q170.177 1350.97 170.177 1356.77 Q170.177 1362.54 171.644 1365.44 Q173.13 1368.31 176.064 1368.31 Q179.017 1368.31 180.484 1365.44 Q181.97 1362.54 181.97 1356.77 Q181.97 1350.97 180.484 1348.1 Q179.017 1345.2 176.064 1345.2 M176.064 1342.19 Q180.785 1342.19 183.267 1345.93 Q185.769 1349.66 185.769 1356.77 Q185.769 1363.86 183.267 1367.6 Q180.785 1371.32 176.064 1371.32 Q171.343 1371.32 168.842 1367.6 Q166.359 1363.86 166.359 1356.77 Q166.359 1349.66 168.842 1345.93 Q171.343 1342.19 176.064 1342.19 Z" fill="#000000" fill-rule="nonzero" fill-opacity="1" /><path clip-path="url(#clip000)" d="M192.446 1366 L196.414 1366 L196.414 1370.78 L192.446 1370.78 L192.446 1366 Z" fill="#000000" fill-rule="nonzero" fill-opacity="1" /><path clip-path="url(#clip000)" d="M212.814 1345.2 Q209.88 1345.2 208.394 1348.1 Q206.927 1350.97 206.927 1356.77 Q206.927 1362.54 208.394 1365.44 Q209.88 1368.31 212.814 1368.31 Q215.767 1368.31 217.234 1365.44 Q218.72 1362.54 218.72 1356.77 Q218.72 1350.97 217.234 1348.1 Q215.767 1345.2 212.814 1345.2 M212.814 1342.19 Q217.535 1342.19 220.018 1345.93 Q222.519 1349.66 222.519 1356.77 Q222.519 1363.86 220.018 1367.6 Q217.535 1371.32 212.814 1371.32 Q208.094 1371.32 205.592 1367.6 Q203.11 1363.86 203.11 1356.77 Q203.11 1349.66 205.592 1345.93 Q208.094 1342.19 212.814 1342.19 Z" fill="#000000" fill-rule="nonzero" fill-opacity="1" /><path clip-path="url(#clip000)" d="M115.59 1076.98 L123.229 1076.98 L123.229 1050.62 L114.918 1052.28 L114.918 1048.02 L123.182 1046.36 L127.858 1046.36 L127.858 1076.98 L135.497 1076.98 L135.497 1080.92 L115.59 1080.92 L115.59 1076.98 Z" fill="#000000" fill-rule="nonzero" fill-opacity="1" /><path clip-path="url(#clip000)" d="M154.941 1049.43 Q151.33 1049.43 149.502 1053 Q147.696 1056.54 147.696 1063.67 Q147.696 1070.78 149.502 1074.34 Q151.33 1077.88 154.941 1077.88 Q158.576 1077.88 160.381 1074.34 Q162.21 1070.78 162.21 1063.67 Q162.21 1056.54 160.381 1053 Q158.576 1049.43 154.941 1049.43 M154.941 1045.73 Q160.752 1045.73 163.807 1050.34 Q166.886 1054.92 166.886 1063.67 Q166.886 1072.4 163.807 1077 Q160.752 1081.59 154.941 1081.59 Q149.131 1081.59 146.053 1077 Q142.997 1072.4 142.997 1063.67 Q142.997 1054.92 146.053 1050.34 Q149.131 1045.73 154.941 1045.73 Z" fill="#000000" fill-rule="nonzero" fill-opacity="1" /><path clip-path="url(#clip000)" d="M176.591 1027.93 Q173.657 1027.93 172.171 1030.82 Q170.704 1033.7 170.704 1039.49 Q170.704 1045.27 172.171 1048.16 Q173.657 1051.04 176.591 1051.04 Q179.543 1051.04 181.01 1048.16 Q182.496 1045.27 182.496 1039.49 Q182.496 1033.7 181.01 1030.82 Q179.543 1027.93 176.591 1027.93 M176.591 1024.92 Q181.311 1024.92 183.794 1028.66 Q186.295 1032.38 186.295 1039.49 Q186.295 1046.58 183.794 1050.33 Q181.311 1054.05 176.591 1054.05 Q171.87 1054.05 169.368 1050.33 Q166.886 1046.58 166.886 1039.49 Q166.886 1032.38 169.368 1028.66 Q171.87 1024.92 176.591 1024.92 Z" fill="#000000" fill-rule="nonzero" fill-opacity="1" /><path clip-path="url(#clip000)" d="M192.972 1048.73 L196.941 1048.73 L196.941 1053.51 L192.972 1053.51 L192.972 1048.73 Z" fill="#000000" fill-rule="nonzero" fill-opacity="1" /><path clip-path="url(#clip000)" d="M216.726 1038.37 Q219.453 1038.95 220.977 1040.79 Q222.519 1042.63 222.519 1045.34 Q222.519 1049.5 219.66 1051.78 Q216.802 1054.05 211.535 1054.05 Q209.767 1054.05 207.887 1053.69 Q206.025 1053.36 204.031 1052.66 L204.031 1048.99 Q205.611 1049.91 207.492 1050.38 Q209.372 1050.85 211.423 1050.85 Q214.996 1050.85 216.858 1049.44 Q218.739 1048.03 218.739 1045.34 Q218.739 1042.86 216.99 1041.47 Q215.259 1040.06 212.156 1040.06 L208.883 1040.06 L208.883 1036.94 L212.307 1036.94 Q215.109 1036.94 216.595 1035.83 Q218.08 1034.7 218.08 1032.59 Q218.08 1030.43 216.538 1029.28 Q215.015 1028.12 212.156 1028.12 Q210.595 1028.12 208.808 1028.45 Q207.022 1028.79 204.877 1029.51 L204.877 1026.12 Q207.04 1025.52 208.921 1025.22 Q210.821 1024.92 212.495 1024.92 Q216.82 1024.92 219.341 1026.89 Q221.861 1028.85 221.861 1032.2 Q221.861 1034.53 220.526 1036.15 Q219.19 1037.74 216.726 1038.37 Z" fill="#000000" fill-rule="nonzero" fill-opacity="1" /><path clip-path="url(#clip000)" d="M114.931 759.709 L122.57 759.709 L122.57 733.344 L114.26 735.01 L114.26 730.751 L122.524 729.084 L127.2 729.084 L127.2 759.709 L134.839 759.709 L134.839 763.644 L114.931 763.644 L114.931 759.709 Z" fill="#000000" fill-rule="nonzero" fill-opacity="1" /><path clip-path="url(#clip000)" d="M154.283 732.163 Q150.672 732.163 148.843 735.728 Q147.038 739.269 147.038 746.399 Q147.038 753.505 148.843 757.07 Q150.672 760.612 154.283 760.612 Q157.917 760.612 159.723 757.07 Q161.552 753.505 161.552 746.399 Q161.552 739.269 159.723 735.728 Q157.917 732.163 154.283 732.163 M154.283 728.459 Q160.093 728.459 163.149 733.066 Q166.227 737.649 166.227 746.399 Q166.227 755.126 163.149 759.732 Q160.093 764.316 154.283 764.316 Q148.473 764.316 145.394 759.732 Q142.339 755.126 142.339 746.399 Q142.339 737.649 145.394 733.066 Q148.473 728.459 154.283 728.459 Z" fill="#000000" fill-rule="nonzero" fill-opacity="1" /><path clip-path="url(#clip000)" d="M175.932 710.655 Q172.998 710.655 171.512 713.552 Q170.045 716.429 170.045 722.222 Q170.045 727.996 171.512 730.893 Q172.998 733.77 175.932 733.77 Q178.885 733.77 180.352 730.893 Q181.838 727.996 181.838 722.222 Q181.838 716.429 180.352 713.552 Q178.885 710.655 175.932 710.655 M175.932 707.646 Q180.653 707.646 183.136 711.389 Q185.637 715.113 185.637 722.222 Q185.637 729.313 183.136 733.055 Q180.653 736.779 175.932 736.779 Q171.212 736.779 168.71 733.055 Q166.227 729.313 166.227 722.222 Q166.227 715.113 168.71 711.389 Q171.212 707.646 175.932 707.646 Z" fill="#000000" fill-rule="nonzero" fill-opacity="1" /><path clip-path="url(#clip000)" d="M192.314 731.457 L196.282 731.457 L196.282 736.234 L192.314 736.234 L192.314 731.457 Z" fill="#000000" fill-rule="nonzero" fill-opacity="1" /><path clip-path="url(#clip000)" d="M213.153 720.68 Q210.595 720.68 209.09 722.429 Q207.605 724.178 207.605 727.225 Q207.605 730.253 209.09 732.021 Q210.595 733.77 213.153 733.77 Q215.711 733.77 217.197 732.021 Q218.701 730.253 218.701 727.225 Q218.701 724.178 217.197 722.429 Q215.711 720.68 213.153 720.68 M220.695 708.775 L220.695 712.235 Q219.265 711.558 217.798 711.201 Q216.35 710.843 214.921 710.843 Q211.159 710.843 209.166 713.382 Q207.191 715.922 206.909 721.056 Q208.018 719.42 209.692 718.555 Q211.366 717.671 213.379 717.671 Q217.61 717.671 220.055 720.247 Q222.519 722.805 222.519 727.225 Q222.519 731.551 219.961 734.165 Q217.403 736.779 213.153 736.779 Q208.282 736.779 205.705 733.055 Q203.128 729.313 203.128 722.222 Q203.128 715.564 206.288 711.615 Q209.448 707.646 214.77 707.646 Q216.2 707.646 217.648 707.928 Q219.115 708.21 220.695 708.775 Z" fill="#000000" fill-rule="nonzero" fill-opacity="1" /><path clip-path="url(#clip000)" d="M115.214 442.437 L122.852 442.437 L122.852 416.072 L114.542 417.739 L114.542 413.479 L122.806 411.813 L127.482 411.813 L127.482 442.437 L135.121 442.437 L135.121 446.373 L115.214 446.373 L115.214 442.437 Z" fill="#000000" fill-rule="nonzero" fill-opacity="1" /><path clip-path="url(#clip000)" d="M154.565 414.891 Q150.954 414.891 149.125 418.456 Q147.32 421.998 147.32 429.127 Q147.32 436.234 149.125 439.799 Q150.954 443.34 154.565 443.34 Q158.199 443.34 160.005 439.799 Q161.834 436.234 161.834 429.127 Q161.834 421.998 160.005 418.456 Q158.199 414.891 154.565 414.891 M154.565 411.188 Q160.375 411.188 163.431 415.794 Q166.51 420.377 166.51 429.127 Q166.51 437.854 163.431 442.461 Q160.375 447.044 154.565 447.044 Q148.755 447.044 145.676 442.461 Q142.621 437.854 142.621 429.127 Q142.621 420.377 145.676 415.794 Q148.755 411.188 154.565 411.188 Z" fill="#000000" fill-rule="nonzero" fill-opacity="1" /><path clip-path="url(#clip000)" d="M176.214 393.384 Q173.28 393.384 171.795 396.28 Q170.328 399.158 170.328 404.95 Q170.328 410.724 171.795 413.621 Q173.28 416.498 176.214 416.498 Q179.167 416.498 180.634 413.621 Q182.12 410.724 182.12 404.95 Q182.12 399.158 180.634 396.28 Q179.167 393.384 176.214 393.384 M176.214 390.374 Q180.935 390.374 183.418 394.117 Q185.919 397.841 185.919 404.95 Q185.919 412.041 183.418 415.784 Q180.935 419.508 176.214 419.508 Q171.494 419.508 168.992 415.784 Q166.51 412.041 166.51 404.95 Q166.51 397.841 168.992 394.117 Q171.494 390.374 176.214 390.374 Z" fill="#000000" fill-rule="nonzero" fill-opacity="1" /><path clip-path="url(#clip000)" d="M192.596 414.185 L196.564 414.185 L196.564 418.962 L192.596 418.962 L192.596 414.185 Z" fill="#000000" fill-rule="nonzero" fill-opacity="1" /><path clip-path="url(#clip000)" d="M204.953 418.379 L204.953 414.919 Q206.382 415.596 207.849 415.953 Q209.316 416.31 210.727 416.31 Q214.488 416.31 216.463 413.79 Q218.457 411.251 218.739 406.098 Q217.648 407.715 215.974 408.58 Q214.3 409.445 212.269 409.445 Q208.056 409.445 205.592 406.906 Q203.147 404.349 203.147 399.929 Q203.147 395.603 205.705 392.989 Q208.263 390.374 212.513 390.374 Q217.385 390.374 219.942 394.117 Q222.519 397.841 222.519 404.95 Q222.519 411.59 219.359 415.558 Q216.219 419.508 210.896 419.508 Q209.467 419.508 208 419.226 Q206.533 418.943 204.953 418.379 M212.513 406.474 Q215.071 406.474 216.557 404.725 Q218.062 402.976 218.062 399.929 Q218.062 396.901 216.557 395.152 Q215.071 393.384 212.513 393.384 Q209.956 393.384 208.451 395.152 Q206.965 396.901 206.965 399.929 Q206.965 402.976 208.451 404.725 Q209.956 406.474 212.513 406.474 Z" fill="#000000" fill-rule="nonzero" fill-opacity="1" /><path clip-path="url(#clip000)" d="M18.0438 1032.09 L24.314 1032.09 Q22.5634 1035.75 21.704 1039 Q20.8447 1042.25 20.8447 1045.27 Q20.8447 1050.52 22.8817 1053.39 Q24.9187 1056.22 28.6745 1056.22 Q31.8255 1056.22 33.4488 1054.34 Q35.0402 1052.43 36.0269 1047.15 L36.8226 1043.27 Q38.1912 1036.07 41.6605 1032.67 Q45.098 1029.23 50.8908 1029.23 Q57.7976 1029.23 61.3624 1033.88 Q64.9272 1038.49 64.9272 1047.43 Q64.9272 1050.81 64.1633 1054.63 Q63.3994 1058.42 61.9035 1062.49 L55.2831 1062.49 Q57.4793 1058.57 58.5933 1054.82 Q59.7073 1051.06 59.7073 1047.43 Q59.7073 1041.93 57.543 1038.94 Q55.3786 1035.94 51.3682 1035.94 Q47.8671 1035.94 45.8937 1038.11 Q43.9204 1040.24 42.9337 1045.14 L42.1698 1049.06 Q40.7375 1056.25 37.682 1059.47 Q34.6264 1062.68 29.1837 1062.68 Q22.8817 1062.68 19.2532 1058.26 Q15.6248 1053.8 15.6248 1046 Q15.6248 1042.66 16.2295 1039.19 Q16.8343 1035.72 18.0438 1032.09 Z" fill="#000000" fill-rule="nonzero" fill-opacity="1" /><path clip-path="url(#clip000)" d="M58.657 1013.79 L77.5631 1013.79 L77.5631 1019.68 L28.3562 1019.68 L28.3562 1013.79 L33.7671 1013.79 Q30.5842 1011.95 29.0564 1009.14 Q27.4968 1006.31 27.4968 1002.4 Q27.4968 995.904 32.6531 991.862 Q37.8093 987.788 46.212 987.788 Q54.6147 987.788 59.771 991.862 Q64.9272 995.904 64.9272 1002.4 Q64.9272 1006.31 63.3994 1009.14 Q61.8398 1011.95 58.657 1013.79 M46.212 993.867 Q39.7508 993.867 36.0905 996.541 Q32.3984 999.183 32.3984 1003.83 Q32.3984 1008.48 36.0905 1011.15 Q39.7508 1013.79 46.212 1013.79 Q52.6732 1013.79 56.3653 1011.15 Q60.0256 1008.48 60.0256 1003.83 Q60.0256 999.183 56.3653 996.541 Q52.6732 993.867 46.212 993.867 Z" fill="#000000" fill-rule="nonzero" fill-opacity="1" /><path clip-path="url(#clip000)" d="M44.7161 947.589 L47.5806 947.589 L47.5806 974.515 Q53.6281 974.134 56.8109 970.887 Q59.9619 967.609 59.9619 961.784 Q59.9619 958.41 59.1344 955.259 Q58.3069 952.076 56.6518 948.957 L62.1899 948.957 Q63.5267 952.108 64.227 955.418 Q64.9272 958.728 64.9272 962.134 Q64.9272 970.664 59.9619 975.661 Q54.9967 980.627 46.5303 980.627 Q37.7774 980.627 32.6531 975.916 Q27.4968 971.173 27.4968 963.153 Q27.4968 955.959 32.1438 951.79 Q36.7589 947.589 44.7161 947.589 M42.9973 953.445 Q38.1912 953.509 35.3266 956.15 Q32.4621 958.76 32.4621 963.089 Q32.4621 967.991 35.2312 970.951 Q38.0002 973.879 43.0292 974.324 L42.9973 953.445 Z" fill="#000000" fill-rule="nonzero" fill-opacity="1" /><path clip-path="url(#clip000)" d="M44.7161 907.485 L47.5806 907.485 L47.5806 934.411 Q53.6281 934.03 56.8109 930.783 Q59.9619 927.505 59.9619 921.68 Q59.9619 918.306 59.1344 915.155 Q58.3069 911.972 56.6518 908.853 L62.1899 908.853 Q63.5267 912.004 64.227 915.314 Q64.9272 918.625 64.9272 922.03 Q64.9272 930.56 59.9619 935.557 Q54.9967 940.523 46.5303 940.523 Q37.7774 940.523 32.6531 935.812 Q27.4968 931.07 27.4968 923.049 Q27.4968 915.855 32.1438 911.686 Q36.7589 907.485 44.7161 907.485 M42.9973 913.341 Q38.1912 913.405 35.3266 916.046 Q32.4621 918.656 32.4621 922.985 Q32.4621 927.887 35.2312 930.847 Q38.0002 933.775 43.0292 934.221 L42.9973 913.341 Z" fill="#000000" fill-rule="nonzero" fill-opacity="1" /><path clip-path="url(#clip000)" d="M33.7671 874.415 L14.479 874.415 L14.479 868.558 L64.0042 868.558 L64.0042 874.415 L58.657 874.415 Q61.8398 876.261 63.3994 879.094 Q64.9272 881.894 64.9272 885.841 Q64.9272 892.302 59.771 896.376 Q54.6147 900.419 46.212 900.419 Q37.8093 900.419 32.6531 896.376 Q27.4968 892.302 27.4968 885.841 Q27.4968 881.894 29.0564 879.094 Q30.5842 876.261 33.7671 874.415 M46.212 894.371 Q52.6732 894.371 56.3653 891.729 Q60.0256 889.056 60.0256 884.409 Q60.0256 879.762 56.3653 877.088 Q52.6732 874.415 46.212 874.415 Q39.7508 874.415 36.0905 877.088 Q32.3984 879.762 32.3984 884.409 Q32.3984 889.056 36.0905 891.729 Q39.7508 894.371 46.212 894.371 Z" fill="#000000" fill-rule="nonzero" fill-opacity="1" /><path clip-path="url(#clip000)" d="M49.9359 857.1 L28.3562 857.1 L28.3562 851.244 L49.7131 851.244 Q54.7739 851.244 57.3202 849.27 Q59.8346 847.297 59.8346 843.35 Q59.8346 838.608 56.8109 835.87 Q53.7872 833.101 48.5673 833.101 L28.3562 833.101 L28.3562 827.245 L64.0042 827.245 L64.0042 833.101 L58.5296 833.101 Q61.7762 835.234 63.3676 838.067 Q64.9272 840.867 64.9272 844.591 Q64.9272 850.734 61.1078 853.917 Q57.2883 857.1 49.9359 857.1 M27.4968 842.363 L27.4968 842.363 Z" fill="#000000" fill-rule="nonzero" fill-opacity="1" /><path clip-path="url(#clip000)" d="M58.657 809.516 L77.5631 809.516 L77.5631 815.405 L28.3562 815.405 L28.3562 809.516 L33.7671 809.516 Q30.5842 807.67 29.0564 804.869 Q27.4968 802.037 27.4968 798.122 Q27.4968 791.629 32.6531 787.586 Q37.8093 783.512 46.212 783.512 Q54.6147 783.512 59.771 787.586 Q64.9272 791.629 64.9272 798.122 Q64.9272 802.037 63.3994 804.869 Q61.8398 807.67 58.657 809.516 M46.212 789.592 Q39.7508 789.592 36.0905 792.265 Q32.3984 794.907 32.3984 799.554 Q32.3984 804.201 36.0905 806.875 Q39.7508 809.516 46.212 809.516 Q52.6732 809.516 56.3653 806.875 Q60.0256 804.201 60.0256 799.554 Q60.0256 794.907 56.3653 792.265 Q52.6732 789.592 46.212 789.592 Z" fill="#000000" fill-rule="nonzero" fill-opacity="1" /><path clip-path="url(#clip000)" d="M28.3562 757.286 L28.3562 751.079 L58.275 739.939 L28.3562 728.799 L28.3562 722.593 L64.0042 735.961 L64.0042 743.918 L28.3562 757.286 Z" fill="#000000" fill-rule="nonzero" fill-opacity="1" /><path clip-path="url(#clip000)" d="M29.4065 691.783 L34.9447 691.783 Q33.6716 694.265 33.035 696.939 Q32.3984 699.612 32.3984 702.477 Q32.3984 706.837 33.7352 709.034 Q35.072 711.198 37.7456 711.198 Q39.7826 711.198 40.9603 709.638 Q42.1061 708.079 43.1565 703.368 L43.6021 701.363 Q44.9389 695.125 47.3897 692.515 Q49.8086 689.873 54.1691 689.873 Q59.1344 689.873 62.0308 693.82 Q64.9272 697.735 64.9272 704.609 Q64.9272 707.474 64.3543 710.593 Q63.8132 713.681 62.6992 717.118 L56.6518 717.118 Q58.3387 713.872 59.198 710.721 Q60.0256 707.57 60.0256 704.482 Q60.0256 700.344 58.6251 698.116 Q57.1929 695.888 54.6147 695.888 Q52.2276 695.888 50.9545 697.512 Q49.6813 699.103 48.5037 704.546 L48.0262 706.583 Q46.8804 712.026 44.5251 714.445 Q42.138 716.863 38.0002 716.863 Q32.9713 716.863 30.2341 713.299 Q27.4968 709.734 27.4968 703.177 Q27.4968 699.931 27.9743 697.066 Q28.4517 694.202 29.4065 691.783 Z" fill="#000000" fill-rule="nonzero" fill-opacity="1" /><path clip-path="url(#clip000)" d="M55.9197 679.72 L55.9197 673.004 L64.0042 673.004 L64.0042 679.72 L55.9197 679.72 Z" fill="#000000" fill-rule="nonzero" fill-opacity="1" /><path clip-path="url(#clip000)" d="M16.4842 638.852 L16.4842 629.271 L48.8219 617.145 L16.4842 604.954 L16.4842 595.374 L64.0042 595.374 L64.0042 601.644 L22.277 601.644 L54.8694 613.898 L54.8694 620.359 L22.277 632.613 L64.0042 632.613 L64.0042 638.852 L16.4842 638.852 Z" fill="#000000" fill-rule="nonzero" fill-opacity="1" /><path clip-path="url(#clip000)" d="M46.0847 566.665 Q46.0847 573.762 47.7079 576.5 Q49.3312 579.237 53.2461 579.237 Q56.3653 579.237 58.2114 577.2 Q60.0256 575.131 60.0256 571.598 Q60.0256 566.728 56.5881 563.8 Q53.1188 560.84 47.3897 560.84 L46.0847 560.84 L46.0847 566.665 M43.6657 554.984 L64.0042 554.984 L64.0042 560.84 L58.5933 560.84 Q61.8398 562.845 63.3994 565.837 Q64.9272 568.829 64.9272 573.158 Q64.9272 578.632 61.8716 581.879 Q58.7843 585.093 53.6281 585.093 Q47.6125 585.093 44.5569 581.083 Q41.5014 577.041 41.5014 569.052 L41.5014 560.84 L40.9285 560.84 Q36.8862 560.84 34.6901 563.514 Q32.4621 566.155 32.4621 570.961 Q32.4621 574.017 33.1941 576.913 Q33.9262 579.81 35.3903 582.483 L29.9795 582.483 Q28.7381 579.269 28.1334 576.245 Q27.4968 573.221 27.4968 570.357 Q27.4968 562.622 31.5072 558.803 Q35.5176 554.984 43.6657 554.984 Z" fill="#000000" fill-rule="nonzero" fill-opacity="1" /><path clip-path="url(#clip000)" d="M58.5933 536.555 L58.5933 514.116 L64.0042 514.116 L64.0042 544.289 L58.5933 544.289 Q54.8057 540.629 48.44 534.327 Q42.0425 527.993 40.1964 526.37 Q36.7271 523.282 34.34 522.073 Q31.921 520.832 29.5975 520.832 Q25.8099 520.832 23.4228 523.505 Q21.0356 526.147 21.0356 530.412 Q21.0356 533.436 22.086 536.809 Q23.1363 540.151 25.2688 543.971 L18.7758 543.971 Q17.2162 540.088 16.4205 536.714 Q15.6248 533.34 15.6248 530.539 Q15.6248 523.155 19.3169 518.763 Q23.009 514.37 29.1837 514.37 Q32.112 514.37 34.7537 515.484 Q37.3637 516.567 40.9285 519.463 Q41.8515 520.259 46.2757 524.524 Q50.668 528.789 58.5933 536.555 Z" fill="#000000" fill-rule="nonzero" fill-opacity="1" /><path clip-path="url(#clip000)" d="M16.4842 502.244 L16.4842 471.688 L19.2214 471.688 L64.0042 488.939 L64.0042 495.655 L21.895 479.423 L21.895 502.244 L16.4842 502.244 Z" fill="#000000" fill-rule="nonzero" fill-opacity="1" /><path clip-path="url(#clip000)" d="M813.21 14.0809 L813.21 22.0612 Q808.551 19.8332 804.419 18.7395 Q800.287 17.6457 796.439 17.6457 Q789.755 17.6457 786.109 20.2383 Q782.504 22.8309 782.504 27.611 Q782.504 31.6214 784.894 33.6873 Q787.324 35.7128 794.049 36.9686 L798.991 37.9813 Q808.146 39.7232 812.48 44.1387 Q816.855 48.5136 816.855 55.8863 Q816.855 64.6767 810.941 69.2137 Q805.067 73.7508 793.684 73.7508 Q789.39 73.7508 784.529 72.7785 Q779.709 71.8063 774.523 69.9024 L774.523 61.4765 Q779.506 64.2716 784.286 65.6895 Q789.066 67.1073 793.684 67.1073 Q800.692 67.1073 804.5 64.3527 Q808.308 61.598 808.308 56.4939 Q808.308 52.0379 805.553 49.5264 Q802.839 47.0148 796.601 45.759 L791.618 44.7868 Q782.463 42.9639 778.372 39.075 Q774.28 35.1862 774.28 28.2591 Q774.28 20.2383 779.911 15.6203 Q785.582 11.0023 795.507 11.0023 Q799.761 11.0023 804.176 11.7719 Q808.592 12.5416 813.21 14.0809 Z" fill="#000000" fill-rule="nonzero" fill-opacity="1" /><path clip-path="url(#clip000)" d="M836.502 65.7705 L836.502 89.8329 L829.008 89.8329 L829.008 27.2059 L836.502 27.2059 L836.502 34.0924 Q838.852 30.0415 842.417 28.0971 Q846.022 26.1121 851.005 26.1121 Q859.268 26.1121 864.413 32.6746 Q869.598 39.2371 869.598 49.9314 Q869.598 60.6258 864.413 67.1883 Q859.268 73.7508 851.005 73.7508 Q846.022 73.7508 842.417 71.8063 Q838.852 69.8214 836.502 65.7705 M861.861 49.9314 Q861.861 41.7081 858.458 37.0496 Q855.096 32.3505 849.182 32.3505 Q843.267 32.3505 839.865 37.0496 Q836.502 41.7081 836.502 49.9314 Q836.502 58.1548 839.865 62.8538 Q843.267 67.5124 849.182 67.5124 Q855.096 67.5124 858.458 62.8538 Q861.861 58.1548 861.861 49.9314 Z" fill="#000000" fill-rule="nonzero" fill-opacity="1" /><path clip-path="url(#clip000)" d="M920.761 48.0275 L920.761 51.6733 L886.49 51.6733 Q886.977 59.3701 891.108 63.421 Q895.281 67.4314 902.694 67.4314 Q906.988 67.4314 910.998 66.3781 Q915.049 65.3249 919.019 63.2184 L919.019 70.267 Q915.009 71.9684 910.796 72.8596 Q906.583 73.7508 902.248 73.7508 Q891.392 73.7508 885.032 67.4314 Q878.713 61.1119 878.713 50.3365 Q878.713 39.1965 884.708 32.6746 Q890.744 26.1121 900.952 26.1121 Q910.107 26.1121 915.414 32.0264 Q920.761 37.9003 920.761 48.0275 M913.307 45.84 Q913.226 39.7232 909.864 36.0774 Q906.542 32.4315 901.033 32.4315 Q894.795 32.4315 891.027 35.9558 Q887.301 39.4801 886.734 45.8805 L913.307 45.84 Z" fill="#000000" fill-rule="nonzero" fill-opacity="1" /><path clip-path="url(#clip000)" d="M971.802 48.0275 L971.802 51.6733 L937.532 51.6733 Q938.018 59.3701 942.15 63.421 Q946.322 67.4314 953.735 67.4314 Q958.029 67.4314 962.04 66.3781 Q966.091 65.3249 970.061 63.2184 L970.061 70.267 Q966.05 71.9684 961.837 72.8596 Q957.624 73.7508 953.29 73.7508 Q942.433 73.7508 936.074 67.4314 Q929.754 61.1119 929.754 50.3365 Q929.754 39.1965 935.749 32.6746 Q941.785 26.1121 951.994 26.1121 Q961.149 26.1121 966.455 32.0264 Q971.802 37.9003 971.802 48.0275 M964.349 45.84 Q964.268 39.7232 960.906 36.0774 Q957.584 32.4315 952.075 32.4315 Q945.836 32.4315 942.069 35.9558 Q938.342 39.4801 937.775 45.8805 L964.349 45.84 Z" fill="#000000" fill-rule="nonzero" fill-opacity="1" /><path clip-path="url(#clip000)" d="M1013.89 34.0924 L1013.89 9.54393 L1021.35 9.54393 L1021.35 72.576 L1013.89 72.576 L1013.89 65.7705 Q1011.54 69.8214 1007.94 71.8063 Q1004.37 73.7508 999.349 73.7508 Q991.125 73.7508 985.94 67.1883 Q980.796 60.6258 980.796 49.9314 Q980.796 39.2371 985.94 32.6746 Q991.125 26.1121 999.349 26.1121 Q1004.37 26.1121 1007.94 28.0971 Q1011.54 30.0415 1013.89 34.0924 M988.492 49.9314 Q988.492 58.1548 991.854 62.8538 Q995.257 67.5124 1001.17 67.5124 Q1007.09 67.5124 1010.49 62.8538 Q1013.89 58.1548 1013.89 49.9314 Q1013.89 41.7081 1010.49 37.0496 Q1007.09 32.3505 1001.17 32.3505 Q995.257 32.3505 991.854 37.0496 Q988.492 41.7081 988.492 49.9314 Z" fill="#000000" fill-rule="nonzero" fill-opacity="1" /><path clip-path="url(#clip000)" d="M1035.93 54.671 L1035.93 27.2059 L1043.38 27.2059 L1043.38 54.3874 Q1043.38 60.8284 1045.89 64.0691 Q1048.41 67.2693 1053.43 67.2693 Q1059.46 67.2693 1062.95 63.421 Q1066.47 59.5726 1066.47 52.9291 L1066.47 27.2059 L1073.93 27.2059 L1073.93 72.576 L1066.47 72.576 L1066.47 65.6084 Q1063.76 69.7404 1060.15 71.7658 Q1056.59 73.7508 1051.85 73.7508 Q1044.03 73.7508 1039.98 68.8897 Q1035.93 64.0286 1035.93 54.671 M1054.68 26.1121 L1054.68 26.1121 Z" fill="#000000" fill-rule="nonzero" fill-opacity="1" /><path clip-path="url(#clip000)" d="M1096.49 65.7705 L1096.49 89.8329 L1089 89.8329 L1089 27.2059 L1096.49 27.2059 L1096.49 34.0924 Q1098.84 30.0415 1102.4 28.0971 Q1106.01 26.1121 1110.99 26.1121 Q1119.26 26.1121 1124.4 32.6746 Q1129.59 39.2371 1129.59 49.9314 Q1129.59 60.6258 1124.4 67.1883 Q1119.26 73.7508 1110.99 73.7508 Q1106.01 73.7508 1102.4 71.8063 Q1098.84 69.8214 1096.49 65.7705 M1121.85 49.9314 Q1121.85 41.7081 1118.45 37.0496 Q1115.08 32.3505 1109.17 32.3505 Q1103.25 32.3505 1099.85 37.0496 Q1096.49 41.7081 1096.49 49.9314 Q1096.49 58.1548 1099.85 62.8538 Q1103.25 67.5124 1109.17 67.5124 Q1115.08 67.5124 1118.45 62.8538 Q1121.85 58.1548 1121.85 49.9314 Z" fill="#000000" fill-rule="nonzero" fill-opacity="1" /><path clip-path="url(#clip000)" d="M1162.96 27.2059 L1170.86 27.2059 L1185.04 65.2844 L1199.22 27.2059 L1207.12 27.2059 L1190.11 72.576 L1179.98 72.576 L1162.96 27.2059 Z" fill="#000000" fill-rule="nonzero" fill-opacity="1" /><path clip-path="url(#clip000)" d="M1246.33 28.5427 L1246.33 35.5912 Q1243.17 33.9709 1239.77 33.1607 Q1236.37 32.3505 1232.72 32.3505 Q1227.17 32.3505 1224.38 34.0519 Q1221.62 35.7533 1221.62 39.156 Q1221.62 41.7486 1223.61 43.2475 Q1225.59 44.7058 1231.59 46.0426 L1234.14 46.6097 Q1242.08 48.3111 1245.4 51.4303 Q1248.76 54.509 1248.76 60.0587 Q1248.76 66.3781 1243.74 70.0644 Q1238.76 73.7508 1230.01 73.7508 Q1226.36 73.7508 1222.39 73.0216 Q1218.46 72.3329 1214.09 70.9151 L1214.09 63.2184 Q1218.22 65.3654 1222.23 66.4591 Q1226.24 67.5124 1230.17 67.5124 Q1235.44 67.5124 1238.27 65.73 Q1241.11 63.9071 1241.11 60.6258 Q1241.11 57.5877 1239.04 55.9673 Q1237.02 54.3469 1230.09 52.8481 L1227.5 52.2405 Q1220.57 50.7821 1217.49 47.7845 Q1214.41 44.7463 1214.41 39.4801 Q1214.41 33.0797 1218.95 29.5959 Q1223.49 26.1121 1231.83 26.1121 Q1235.96 26.1121 1239.61 26.7198 Q1243.25 27.3274 1246.33 28.5427 Z" fill="#000000" fill-rule="nonzero" fill-opacity="1" /><path clip-path="url(#clip000)" d="M1261.69 62.2867 L1270.23 62.2867 L1270.23 72.576 L1261.69 72.576 L1261.69 62.2867 Z" fill="#000000" fill-rule="nonzero" fill-opacity="1" /><path clip-path="url(#clip000)" d="M1321.88 18.8205 L1321.88 41.5461 L1332.17 41.5461 Q1337.88 41.5461 1341 38.5889 Q1344.12 35.6318 1344.12 30.163 Q1344.12 24.7348 1341 21.7777 Q1337.88 18.8205 1332.17 18.8205 L1321.88 18.8205 M1313.7 12.096 L1332.17 12.096 Q1342.34 12.096 1347.52 16.714 Q1352.75 21.2916 1352.75 30.163 Q1352.75 39.1155 1347.52 43.6931 Q1342.34 48.2706 1332.17 48.2706 L1321.88 48.2706 L1321.88 72.576 L1313.7 72.576 L1313.7 12.096 Z" fill="#000000" fill-rule="nonzero" fill-opacity="1" /><path clip-path="url(#clip000)" d="M1388.24 34.1734 Q1386.98 33.4443 1385.48 33.1202 Q1384.02 32.7556 1382.24 32.7556 Q1375.92 32.7556 1372.52 36.8875 Q1369.16 40.9789 1369.16 48.6757 L1369.16 72.576 L1361.66 72.576 L1361.66 27.2059 L1369.16 27.2059 L1369.16 34.2544 Q1371.51 30.1225 1375.27 28.1376 Q1379.04 26.1121 1384.43 26.1121 Q1385.2 26.1121 1386.13 26.2337 Q1387.06 26.3147 1388.19 26.5172 L1388.24 34.1734 Z" fill="#000000" fill-rule="nonzero" fill-opacity="1" /><path clip-path="url(#clip000)" d="M1411.81 32.4315 Q1405.82 32.4315 1402.33 37.1306 Q1398.85 41.7891 1398.85 49.9314 Q1398.85 58.0738 1402.29 62.7728 Q1405.78 67.4314 1411.81 67.4314 Q1417.77 67.4314 1421.25 62.7323 Q1424.73 58.0333 1424.73 49.9314 Q1424.73 41.8701 1421.25 37.1711 Q1417.77 32.4315 1411.81 32.4315 M1411.81 26.1121 Q1421.53 26.1121 1427.08 32.4315 Q1432.63 38.7509 1432.63 49.9314 Q1432.63 61.0714 1427.08 67.4314 Q1421.53 73.7508 1411.81 73.7508 Q1402.05 73.7508 1396.5 67.4314 Q1390.99 61.0714 1390.99 49.9314 Q1390.99 38.7509 1396.5 32.4315 Q1402.05 26.1121 1411.81 26.1121 Z" fill="#000000" fill-rule="nonzero" fill-opacity="1" /><path clip-path="url(#clip000)" d="M1477.56 49.9314 Q1477.56 41.7081 1474.16 37.0496 Q1470.79 32.3505 1464.88 32.3505 Q1458.96 32.3505 1455.56 37.0496 Q1452.2 41.7081 1452.2 49.9314 Q1452.2 58.1548 1455.56 62.8538 Q1458.96 67.5124 1464.88 67.5124 Q1470.79 67.5124 1474.16 62.8538 Q1477.56 58.1548 1477.56 49.9314 M1452.2 34.0924 Q1454.55 30.0415 1458.11 28.0971 Q1461.72 26.1121 1466.7 26.1121 Q1474.97 26.1121 1480.11 32.6746 Q1485.3 39.2371 1485.3 49.9314 Q1485.3 60.6258 1480.11 67.1883 Q1474.97 73.7508 1466.7 73.7508 Q1461.72 73.7508 1458.11 71.8063 Q1454.55 69.8214 1452.2 65.7705 L1452.2 72.576 L1444.71 72.576 L1444.71 9.54393 L1452.2 9.54393 L1452.2 34.0924 Z" fill="#000000" fill-rule="nonzero" fill-opacity="1" /><path clip-path="url(#clip000)" d="M1497.65 9.54393 L1505.1 9.54393 L1505.1 72.576 L1497.65 72.576 L1497.65 9.54393 Z" fill="#000000" fill-rule="nonzero" fill-opacity="1" /><path clip-path="url(#clip000)" d="M1559.51 48.0275 L1559.51 51.6733 L1525.24 51.6733 Q1525.72 59.3701 1529.86 63.421 Q1534.03 67.4314 1541.44 67.4314 Q1545.73 67.4314 1549.75 66.3781 Q1553.8 65.3249 1557.77 63.2184 L1557.77 70.267 Q1553.76 71.9684 1549.54 72.8596 Q1545.33 73.7508 1541 73.7508 Q1530.14 73.7508 1523.78 67.4314 Q1517.46 61.1119 1517.46 50.3365 Q1517.46 39.1965 1523.45 32.6746 Q1529.49 26.1121 1539.7 26.1121 Q1548.85 26.1121 1554.16 32.0264 Q1559.51 37.9003 1559.51 48.0275 M1552.05 45.84 Q1551.97 39.7232 1548.61 36.0774 Q1545.29 32.4315 1539.78 32.4315 Q1533.54 32.4315 1529.77 35.9558 Q1526.05 39.4801 1525.48 45.8805 L1552.05 45.84 Z" fill="#000000" fill-rule="nonzero" fill-opacity="1" /><path clip-path="url(#clip000)" d="M1607.07 35.9153 Q1609.86 30.8922 1613.75 28.5022 Q1617.64 26.1121 1622.9 26.1121 Q1629.99 26.1121 1633.84 31.0947 Q1637.69 36.0368 1637.69 45.1919 L1637.69 72.576 L1630.2 72.576 L1630.2 45.4349 Q1630.2 38.913 1627.89 35.7533 Q1625.58 32.5936 1620.84 32.5936 Q1615.05 32.5936 1611.68 36.4419 Q1608.32 40.2903 1608.32 46.9338 L1608.32 72.576 L1600.83 72.576 L1600.83 45.4349 Q1600.83 38.8725 1598.52 35.7533 Q1596.21 32.5936 1591.39 32.5936 Q1585.68 32.5936 1582.31 36.4824 Q1578.95 40.3308 1578.95 46.9338 L1578.95 72.576 L1571.46 72.576 L1571.46 27.2059 L1578.95 27.2059 L1578.95 34.2544 Q1581.5 30.082 1585.07 28.0971 Q1588.63 26.1121 1593.54 26.1121 Q1598.48 26.1121 1601.92 28.6237 Q1605.4 31.1352 1607.07 35.9153 Z" fill="#000000" fill-rule="nonzero" fill-opacity="1" /><path clip-path="url(#clip000)" d="M1715.51 14.0809 L1715.51 22.0612 Q1710.85 19.8332 1706.72 18.7395 Q1702.59 17.6457 1698.74 17.6457 Q1692.05 17.6457 1688.41 20.2383 Q1684.8 22.8309 1684.8 27.611 Q1684.8 31.6214 1687.19 33.6873 Q1689.62 35.7128 1696.35 36.9686 L1701.29 37.9813 Q1710.44 39.7232 1714.78 44.1387 Q1719.15 48.5136 1719.15 55.8863 Q1719.15 64.6767 1713.24 69.2137 Q1707.37 73.7508 1695.98 73.7508 Q1691.69 73.7508 1686.83 72.7785 Q1682.01 71.8063 1676.82 69.9024 L1676.82 61.4765 Q1681.8 64.2716 1686.58 65.6895 Q1691.36 67.1073 1695.98 67.1073 Q1702.99 67.1073 1706.8 64.3527 Q1710.61 61.598 1710.61 56.4939 Q1710.61 52.0379 1707.85 49.5264 Q1705.14 47.0148 1698.9 45.759 L1693.92 44.7868 Q1684.76 42.9639 1680.67 39.075 Q1676.58 35.1862 1676.58 28.2591 Q1676.58 20.2383 1682.21 15.6203 Q1687.88 11.0023 1697.81 11.0023 Q1702.06 11.0023 1706.47 11.7719 Q1710.89 12.5416 1715.51 14.0809 Z" fill="#000000" fill-rule="nonzero" fill-opacity="1" /><path clip-path="url(#clip000)" d="M1731.59 27.2059 L1739.04 27.2059 L1739.04 72.576 L1731.59 72.576 L1731.59 27.2059 M1731.59 9.54393 L1739.04 9.54393 L1739.04 18.9825 L1731.59 18.9825 L1731.59 9.54393 Z" fill="#000000" fill-rule="nonzero" fill-opacity="1" /><path clip-path="url(#clip000)" d="M1751.4 27.2059 L1786.8 27.2059 L1786.8 34.0114 L1758.77 66.6212 L1786.8 66.6212 L1786.8 72.576 L1750.39 72.576 L1750.39 65.7705 L1778.42 33.1607 L1751.4 33.1607 L1751.4 27.2059 Z" fill="#000000" fill-rule="nonzero" fill-opacity="1" /><path clip-path="url(#clip000)" d="M1836.99 48.0275 L1836.99 51.6733 L1802.72 51.6733 Q1803.21 59.3701 1807.34 63.421 Q1811.51 67.4314 1818.93 67.4314 Q1823.22 67.4314 1827.23 66.3781 Q1831.28 65.3249 1835.25 63.2184 L1835.25 70.267 Q1831.24 71.9684 1827.03 72.8596 Q1822.82 73.7508 1818.48 73.7508 Q1807.63 73.7508 1801.27 67.4314 Q1794.95 61.1119 1794.95 50.3365 Q1794.95 39.1965 1800.94 32.6746 Q1806.98 26.1121 1817.19 26.1121 Q1826.34 26.1121 1831.65 32.0264 Q1836.99 37.9003 1836.99 48.0275 M1829.54 45.84 Q1829.46 39.7232 1826.1 36.0774 Q1822.78 32.4315 1817.27 32.4315 Q1811.03 32.4315 1807.26 35.9558 Q1803.53 39.4801 1802.97 45.8805 L1829.54 45.84 Z" fill="#000000" fill-rule="nonzero" fill-opacity="1" /><circle clip-path="url(#clip002)" cx="317.79" cy="1054.98" r="14.4" fill="#009af9" fill-rule="evenodd" fill-opacity="1" stroke="#000000" stroke-opacity="1" stroke-width="3.2"/>
<circle clip-path="url(#clip002)" cx="2258.74" cy="1322.43" r="14.4" fill="#009af9" fill-rule="evenodd" fill-opacity="1" stroke="#000000" stroke-opacity="1" stroke-width="3.2"/>
<circle clip-path="url(#clip002)" cx="1995.04" cy="621.511" r="14.4" fill="#009af9" fill-rule="evenodd" fill-opacity="1" stroke="#000000" stroke-opacity="1" stroke-width="3.2"/>
<circle clip-path="url(#clip002)" cx="2293.49" cy="1373.33" r="14.4" fill="#009af9" fill-rule="evenodd" fill-opacity="1" stroke="#000000" stroke-opacity="1" stroke-width="3.2"/>
<circle clip-path="url(#clip002)" cx="317.79" cy="1374.46" r="14.4" fill="#e26f46" fill-rule="evenodd" fill-opacity="1" stroke="#000000" stroke-opacity="1" stroke-width="3.2"/>
<circle clip-path="url(#clip002)" cx="2258.74" cy="1374.46" r="14.4" fill="#e26f46" fill-rule="evenodd" fill-opacity="1" stroke="#000000" stroke-opacity="1" stroke-width="3.2"/>
<circle clip-path="url(#clip002)" cx="1995.04" cy="1374.46" r="14.4" fill="#e26f46" fill-rule="evenodd" fill-opacity="1" stroke="#000000" stroke-opacity="1" stroke-width="3.2"/>
<circle clip-path="url(#clip002)" cx="2293.49" cy="1374.46" r="14.4" fill="#e26f46" fill-rule="evenodd" fill-opacity="1" stroke="#000000" stroke-opacity="1" stroke-width="3.2"/>
<circle clip-path="url(#clip002)" cx="317.79" cy="357.592" r="14.4" fill="#3da44d" fill-rule="evenodd" fill-opacity="1" stroke="#000000" stroke-opacity="1" stroke-width="3.2"/>
<circle clip-path="url(#clip002)" cx="2258.74" cy="594.843" r="14.4" fill="#3da44d" fill-rule="evenodd" fill-opacity="1" stroke="#000000" stroke-opacity="1" stroke-width="3.2"/>
<circle clip-path="url(#clip002)" cx="1995.04" cy="159.909" r="14.4" fill="#3da44d" fill-rule="evenodd" fill-opacity="1" stroke="#000000" stroke-opacity="1" stroke-width="3.2"/>
<circle clip-path="url(#clip002)" cx="2293.49" cy="456.131" r="14.4" fill="#3da44d" fill-rule="evenodd" fill-opacity="1" stroke="#000000" stroke-opacity="1" stroke-width="3.2"/>
<circle clip-path="url(#clip002)" cx="317.79" cy="906.09" r="14.4" fill="#c271d2" fill-rule="evenodd" fill-opacity="1" stroke="#000000" stroke-opacity="1" stroke-width="3.2"/>
<circle clip-path="url(#clip002)" cx="2258.74" cy="998.809" r="14.4" fill="#c271d2" fill-rule="evenodd" fill-opacity="1" stroke="#000000" stroke-opacity="1" stroke-width="3.2"/>
<circle clip-path="url(#clip002)" cx="1995.04" cy="926.514" r="14.4" fill="#c271d2" fill-rule="evenodd" fill-opacity="1" stroke="#000000" stroke-opacity="1" stroke-width="3.2"/>
<circle clip-path="url(#clip002)" cx="2293.49" cy="1031.28" r="14.4" fill="#c271d2" fill-rule="evenodd" fill-opacity="1" stroke="#000000" stroke-opacity="1" stroke-width="3.2"/>
<circle clip-path="url(#clip002)" cx="317.79" cy="823.029" r="14.4" fill="#ac8d18" fill-rule="evenodd" fill-opacity="1" stroke="#000000" stroke-opacity="1" stroke-width="3.2"/>
<circle clip-path="url(#clip002)" cx="2258.74" cy="488.004" r="14.4" fill="#ac8d18" fill-rule="evenodd" fill-opacity="1" stroke="#000000" stroke-opacity="1" stroke-width="3.2"/>
<circle clip-path="url(#clip002)" cx="1995.04" cy="417.622" r="14.4" fill="#ac8d18" fill-rule="evenodd" fill-opacity="1" stroke="#000000" stroke-opacity="1" stroke-width="3.2"/>
<circle clip-path="url(#clip002)" cx="2293.49" cy="895.037" r="14.4" fill="#ac8d18" fill-rule="evenodd" fill-opacity="1" stroke="#000000" stroke-opacity="1" stroke-width="3.2"/>
<path clip-path="url(#clip000)" d="M328.327 477.426 L1155.34 477.426 L1155.34 166.386 L328.327 166.386  Z" fill="#ffffff" fill-rule="evenodd" fill-opacity="1"/>
<polyline clip-path="url(#clip000)" style="stroke:#000000; stroke-linecap:round; stroke-linejoin:round; stroke-width:4; stroke-opacity:1; fill:none" points="328.327,477.426 1155.34,477.426 1155.34,166.386 328.327,166.386 328.327,477.426 "/>
<circle clip-path="url(#clip000)" cx="421.404" cy="218.226" r="20.48" fill="#009af9" fill-rule="evenodd" fill-opacity="1" stroke="#000000" stroke-opacity="1" stroke-width="4.55111"/>
<path clip-path="url(#clip000)" d="M514.481 200.946 L521.449 200.946 L530.268 224.465 L539.134 200.946 L546.102 200.946 L546.102 235.506 L541.541 235.506 L541.541 205.159 L532.629 228.863 L527.93 228.863 L519.018 205.159 L519.018 235.506 L514.481 235.506 L514.481 200.946 Z" fill="#000000" fill-rule="nonzero" fill-opacity="1" /><path clip-path="url(#clip000)" d="M566.981 222.474 Q561.819 222.474 559.828 223.654 Q557.838 224.835 557.838 227.682 Q557.838 229.951 559.319 231.293 Q560.824 232.613 563.393 232.613 Q566.935 232.613 569.064 230.113 Q571.217 227.59 571.217 223.423 L571.217 222.474 L566.981 222.474 M575.476 220.715 L575.476 235.506 L571.217 235.506 L571.217 231.571 Q569.759 233.932 567.583 235.066 Q565.407 236.178 562.259 236.178 Q558.277 236.178 555.916 233.955 Q553.578 231.71 553.578 227.96 Q553.578 223.585 556.495 221.363 Q559.435 219.141 565.245 219.141 L571.217 219.141 L571.217 218.724 Q571.217 215.784 569.273 214.187 Q567.351 212.567 563.856 212.567 Q561.634 212.567 559.527 213.099 Q557.421 213.631 555.477 214.696 L555.477 210.761 Q557.815 209.858 560.014 209.418 Q562.213 208.955 564.296 208.955 Q569.921 208.955 572.699 211.872 Q575.476 214.789 575.476 220.715 Z" fill="#000000" fill-rule="nonzero" fill-opacity="1" /><path clip-path="url(#clip000)" d="M601.31 213.516 L601.31 199.488 L605.569 199.488 L605.569 235.506 L601.31 235.506 L601.31 231.617 Q599.967 233.932 597.907 235.066 Q595.87 236.178 592.999 236.178 Q588.3 236.178 585.338 232.428 Q582.398 228.678 582.398 222.567 Q582.398 216.455 585.338 212.705 Q588.3 208.955 592.999 208.955 Q595.87 208.955 597.907 210.09 Q599.967 211.201 601.31 213.516 M586.796 222.567 Q586.796 227.266 588.717 229.951 Q590.662 232.613 594.041 232.613 Q597.421 232.613 599.365 229.951 Q601.31 227.266 601.31 222.567 Q601.31 217.867 599.365 215.205 Q597.421 212.52 594.041 212.52 Q590.662 212.52 588.717 215.205 Q586.796 217.867 586.796 222.567 Z" fill="#000000" fill-rule="nonzero" fill-opacity="1" /><path clip-path="url(#clip000)" d="M614.527 200.946 L620.823 200.946 L636.147 229.858 L636.147 200.946 L640.684 200.946 L640.684 235.506 L634.388 235.506 L619.064 206.594 L619.064 235.506 L614.527 235.506 L614.527 200.946 Z" fill="#000000" fill-rule="nonzero" fill-opacity="1" /><path clip-path="url(#clip000)" d="M649.99 200.946 L654.666 200.946 L654.666 231.571 L671.494 231.571 L671.494 235.506 L649.99 235.506 L649.99 200.946 Z" fill="#000000" fill-rule="nonzero" fill-opacity="1" /><path clip-path="url(#clip000)" d="M681.078 204.789 L681.078 217.775 L686.957 217.775 Q690.221 217.775 692.004 216.085 Q693.786 214.395 693.786 211.27 Q693.786 208.168 692.004 206.479 Q690.221 204.789 686.957 204.789 L681.078 204.789 M676.402 200.946 L686.957 200.946 Q692.767 200.946 695.73 203.585 Q698.717 206.201 698.717 211.27 Q698.717 216.386 695.73 219.002 Q692.767 221.617 686.957 221.617 L681.078 221.617 L681.078 235.506 L676.402 235.506 L676.402 200.946 Z" fill="#000000" fill-rule="nonzero" fill-opacity="1" /><path clip-path="url(#clip000)" d="M722.142 205.784 L722.142 218.678 L735.036 218.678 L735.036 222.613 L722.142 222.613 L722.142 235.506 L718.253 235.506 L718.253 222.613 L705.36 222.613 L705.36 218.678 L718.253 218.678 L718.253 205.784 L722.142 205.784 Z" fill="#000000" fill-rule="nonzero" fill-opacity="1" /><path clip-path="url(#clip000)" d="M744.712 200.946 L751.679 200.946 L760.499 224.465 L769.364 200.946 L776.332 200.946 L776.332 235.506 L771.772 235.506 L771.772 205.159 L762.86 228.863 L758.161 228.863 L749.249 205.159 L749.249 235.506 L744.712 235.506 L744.712 200.946 Z" fill="#000000" fill-rule="nonzero" fill-opacity="1" /><path clip-path="url(#clip000)" d="M797.211 222.474 Q792.049 222.474 790.059 223.654 Q788.068 224.835 788.068 227.682 Q788.068 229.951 789.549 231.293 Q791.054 232.613 793.623 232.613 Q797.165 232.613 799.295 230.113 Q801.447 227.59 801.447 223.423 L801.447 222.474 L797.211 222.474 M805.707 220.715 L805.707 235.506 L801.447 235.506 L801.447 231.571 Q799.989 233.932 797.813 235.066 Q795.637 236.178 792.489 236.178 Q788.508 236.178 786.147 233.955 Q783.809 231.71 783.809 227.96 Q783.809 223.585 786.725 221.363 Q789.665 219.141 795.475 219.141 L801.447 219.141 L801.447 218.724 Q801.447 215.784 799.503 214.187 Q797.582 212.567 794.086 212.567 Q791.864 212.567 789.758 213.099 Q787.651 213.631 785.707 214.696 L785.707 210.761 Q788.045 209.858 790.244 209.418 Q792.443 208.955 794.526 208.955 Q800.151 208.955 802.929 211.872 Q805.707 214.789 805.707 220.715 Z" fill="#000000" fill-rule="nonzero" fill-opacity="1" /><path clip-path="url(#clip000)" d="M825.082 219.094 Q821.748 219.094 819.827 220.877 Q817.929 222.659 817.929 225.784 Q817.929 228.909 819.827 230.691 Q821.748 232.474 825.082 232.474 Q828.415 232.474 830.336 230.691 Q832.257 228.886 832.257 225.784 Q832.257 222.659 830.336 220.877 Q828.438 219.094 825.082 219.094 M820.406 217.104 Q817.396 216.363 815.707 214.303 Q814.04 212.243 814.04 209.28 Q814.04 205.136 816.98 202.729 Q819.943 200.321 825.082 200.321 Q830.244 200.321 833.183 202.729 Q836.123 205.136 836.123 209.28 Q836.123 212.243 834.433 214.303 Q832.767 216.363 829.781 217.104 Q833.16 217.891 835.035 220.182 Q836.933 222.474 836.933 225.784 Q836.933 230.807 833.855 233.492 Q830.799 236.178 825.082 236.178 Q819.364 236.178 816.285 233.492 Q813.23 230.807 813.23 225.784 Q813.23 222.474 815.128 220.182 Q817.026 217.891 820.406 217.104 M818.693 209.719 Q818.693 212.405 820.359 213.909 Q822.049 215.414 825.082 215.414 Q828.091 215.414 829.781 213.909 Q831.494 212.405 831.494 209.719 Q831.494 207.034 829.781 205.53 Q828.091 204.025 825.082 204.025 Q822.049 204.025 820.359 205.53 Q818.693 207.034 818.693 209.719 Z" fill="#000000" fill-rule="nonzero" fill-opacity="1" /><path clip-path="url(#clip000)" d="M855.822 216.363 Q852.674 216.363 850.822 218.516 Q848.993 220.668 848.993 224.418 Q848.993 228.145 850.822 230.321 Q852.674 232.474 855.822 232.474 Q858.97 232.474 860.799 230.321 Q862.651 228.145 862.651 224.418 Q862.651 220.668 860.799 218.516 Q858.97 216.363 855.822 216.363 M865.105 201.71 L865.105 205.969 Q863.345 205.136 861.54 204.696 Q859.757 204.256 857.998 204.256 Q853.368 204.256 850.915 207.381 Q848.484 210.506 848.137 216.826 Q849.503 214.812 851.563 213.747 Q853.623 212.659 856.1 212.659 Q861.308 212.659 864.317 215.83 Q867.35 218.979 867.35 224.418 Q867.35 229.742 864.202 232.96 Q861.054 236.178 855.822 236.178 Q849.827 236.178 846.656 231.594 Q843.484 226.988 843.484 218.261 Q843.484 210.067 847.373 205.206 Q851.262 200.321 857.813 200.321 Q859.572 200.321 861.355 200.669 Q863.16 201.016 865.105 201.71 Z" fill="#000000" fill-rule="nonzero" fill-opacity="1" /><path clip-path="url(#clip000)" d="M900.104 199.534 Q897.002 204.858 895.498 210.067 Q893.993 215.275 893.993 220.622 Q893.993 225.969 895.498 231.224 Q897.026 236.455 900.104 241.756 L896.401 241.756 Q892.928 236.316 891.192 231.062 Q889.479 225.807 889.479 220.622 Q889.479 215.46 891.192 210.229 Q892.905 204.997 896.401 199.534 L900.104 199.534 Z" fill="#000000" fill-rule="nonzero" fill-opacity="1" /><path clip-path="url(#clip000)" d="M934.433 203.608 L934.433 208.539 Q932.072 206.34 929.387 205.252 Q926.725 204.164 923.715 204.164 Q917.789 204.164 914.641 207.798 Q911.493 211.409 911.493 218.261 Q911.493 225.09 914.641 228.724 Q917.789 232.335 923.715 232.335 Q926.725 232.335 929.387 231.247 Q932.072 230.159 934.433 227.96 L934.433 232.844 Q931.979 234.511 929.225 235.344 Q926.493 236.178 923.438 236.178 Q915.59 236.178 911.076 231.386 Q906.563 226.571 906.563 218.261 Q906.563 209.928 911.076 205.136 Q915.59 200.321 923.438 200.321 Q926.539 200.321 929.271 201.155 Q932.025 201.965 934.433 203.608 Z" fill="#000000" fill-rule="nonzero" fill-opacity="1" /><path clip-path="url(#clip000)" d="M946.331 204.789 L946.331 217.775 L952.211 217.775 Q955.474 217.775 957.257 216.085 Q959.039 214.395 959.039 211.27 Q959.039 208.168 957.257 206.479 Q955.474 204.789 952.211 204.789 L946.331 204.789 M941.655 200.946 L952.211 200.946 Q958.021 200.946 960.984 203.585 Q963.97 206.201 963.97 211.27 Q963.97 216.386 960.984 219.002 Q958.021 221.617 952.211 221.617 L946.331 221.617 L946.331 235.506 L941.655 235.506 L941.655 200.946 Z" fill="#000000" fill-rule="nonzero" fill-opacity="1" /><path clip-path="url(#clip000)" d="M969.71 200.946 L974.409 200.946 L974.409 221.942 Q974.409 227.497 976.423 229.951 Q978.437 232.381 982.951 232.381 Q987.442 232.381 989.456 229.951 Q991.47 227.497 991.47 221.942 L991.47 200.946 L996.169 200.946 L996.169 222.52 Q996.169 229.279 992.812 232.729 Q989.479 236.178 982.951 236.178 Q976.4 236.178 973.044 232.729 Q969.71 229.279 969.71 222.52 L969.71 200.946 Z" fill="#000000" fill-rule="nonzero" fill-opacity="1" /><path clip-path="url(#clip000)" d="M1004.09 199.534 L1007.79 199.534 Q1011.26 204.997 1012.97 210.229 Q1014.71 215.46 1014.71 220.622 Q1014.71 225.807 1012.97 231.062 Q1011.26 236.316 1007.79 241.756 L1004.09 241.756 Q1007.16 236.455 1008.67 231.224 Q1010.2 225.969 1010.2 220.622 Q1010.2 215.275 1008.67 210.067 Q1007.16 204.858 1004.09 199.534 Z" fill="#000000" fill-rule="nonzero" fill-opacity="1" /><circle clip-path="url(#clip000)" cx="421.404" cy="270.066" r="20.48" fill="#e26f46" fill-rule="evenodd" fill-opacity="1" stroke="#000000" stroke-opacity="1" stroke-width="4.55111"/>
<path clip-path="url(#clip000)" d="M514.481 252.786 L519.157 252.786 L519.157 287.346 L514.481 287.346 L514.481 252.786 Z" fill="#000000" fill-rule="nonzero" fill-opacity="1" /><path clip-path="url(#clip000)" d="M532.398 283.457 L532.398 297.207 L528.116 297.207 L528.116 261.42 L532.398 261.42 L532.398 265.356 Q533.741 263.041 535.778 261.93 Q537.838 260.795 540.685 260.795 Q545.407 260.795 548.347 264.545 Q551.31 268.295 551.31 274.407 Q551.31 280.518 548.347 284.268 Q545.407 288.018 540.685 288.018 Q537.838 288.018 535.778 286.906 Q533.741 285.772 532.398 283.457 M546.889 274.407 Q546.889 269.707 544.944 267.045 Q543.023 264.36 539.643 264.36 Q536.264 264.36 534.319 267.045 Q532.398 269.707 532.398 274.407 Q532.398 279.106 534.319 281.791 Q536.264 284.453 539.643 284.453 Q543.023 284.453 544.944 281.791 Q546.889 279.106 546.889 274.407 Z" fill="#000000" fill-rule="nonzero" fill-opacity="1" /><path clip-path="url(#clip000)" d="M568.416 264.407 Q564.99 264.407 563 267.092 Q561.009 269.754 561.009 274.407 Q561.009 279.059 562.977 281.744 Q564.967 284.406 568.416 284.406 Q571.819 284.406 573.81 281.721 Q575.801 279.036 575.801 274.407 Q575.801 269.8 573.81 267.115 Q571.819 264.407 568.416 264.407 M568.416 260.795 Q573.972 260.795 577.143 264.407 Q580.314 268.018 580.314 274.407 Q580.314 280.772 577.143 284.406 Q573.972 288.018 568.416 288.018 Q562.838 288.018 559.666 284.406 Q556.518 280.772 556.518 274.407 Q556.518 268.018 559.666 264.407 Q562.838 260.795 568.416 260.795 Z" fill="#000000" fill-rule="nonzero" fill-opacity="1" /><path clip-path="url(#clip000)" d="M591.495 283.457 L591.495 297.207 L587.212 297.207 L587.212 261.42 L591.495 261.42 L591.495 265.356 Q592.837 263.041 594.874 261.93 Q596.935 260.795 599.782 260.795 Q604.504 260.795 607.444 264.545 Q610.407 268.295 610.407 274.407 Q610.407 280.518 607.444 284.268 Q604.504 288.018 599.782 288.018 Q596.935 288.018 594.874 286.906 Q592.837 285.772 591.495 283.457 M605.986 274.407 Q605.986 269.707 604.041 267.045 Q602.12 264.36 598.74 264.36 Q595.361 264.36 593.416 267.045 Q591.495 269.707 591.495 274.407 Q591.495 279.106 593.416 281.791 Q595.361 284.453 598.74 284.453 Q602.12 284.453 604.041 281.791 Q605.986 279.106 605.986 274.407 Z" fill="#000000" fill-rule="nonzero" fill-opacity="1" /><path clip-path="url(#clip000)" d="M621.68 254.059 L621.68 261.42 L630.453 261.42 L630.453 264.731 L621.68 264.731 L621.68 278.805 Q621.68 281.976 622.536 282.879 Q623.416 283.781 626.078 283.781 L630.453 283.781 L630.453 287.346 L626.078 287.346 Q621.147 287.346 619.273 285.518 Q617.398 283.666 617.398 278.805 L617.398 264.731 L614.273 264.731 L614.273 261.42 L617.398 261.42 L617.398 254.059 L621.68 254.059 Z" fill="#000000" fill-rule="nonzero" fill-opacity="1" /><path clip-path="url(#clip000)" d="M653.393 257.624 L653.393 270.518 L666.286 270.518 L666.286 274.453 L653.393 274.453 L653.393 287.346 L649.504 287.346 L649.504 274.453 L636.61 274.453 L636.61 270.518 L649.504 270.518 L649.504 257.624 L653.393 257.624 Z" fill="#000000" fill-rule="nonzero" fill-opacity="1" /><path clip-path="url(#clip000)" d="M675.962 252.786 L682.93 252.786 L691.749 276.305 L700.615 252.786 L707.582 252.786 L707.582 287.346 L703.022 287.346 L703.022 256.999 L694.11 280.703 L689.411 280.703 L680.499 256.999 L680.499 287.346 L675.962 287.346 L675.962 252.786 Z" fill="#000000" fill-rule="nonzero" fill-opacity="1" /><path clip-path="url(#clip000)" d="M728.462 274.314 Q723.3 274.314 721.309 275.494 Q719.318 276.675 719.318 279.522 Q719.318 281.791 720.8 283.133 Q722.304 284.453 724.874 284.453 Q728.415 284.453 730.545 281.953 Q732.698 279.43 732.698 275.263 L732.698 274.314 L728.462 274.314 M736.957 272.555 L736.957 287.346 L732.698 287.346 L732.698 283.411 Q731.239 285.772 729.064 286.906 Q726.888 288.018 723.74 288.018 Q719.758 288.018 717.397 285.795 Q715.059 283.55 715.059 279.8 Q715.059 275.425 717.976 273.203 Q720.915 270.981 726.726 270.981 L732.698 270.981 L732.698 270.564 Q732.698 267.624 730.753 266.027 Q728.832 264.407 725.337 264.407 Q723.115 264.407 721.008 264.939 Q718.902 265.471 716.957 266.536 L716.957 262.601 Q719.295 261.698 721.494 261.258 Q723.693 260.795 725.777 260.795 Q731.402 260.795 734.179 263.712 Q736.957 266.629 736.957 272.555 Z" fill="#000000" fill-rule="nonzero" fill-opacity="1" /><path clip-path="url(#clip000)" d="M750.36 283.411 L766.679 283.411 L766.679 287.346 L744.735 287.346 L744.735 283.411 Q747.397 280.656 751.98 276.027 Q756.587 271.374 757.767 270.032 Q760.012 267.508 760.892 265.772 Q761.795 264.013 761.795 262.323 Q761.795 259.569 759.85 257.833 Q757.929 256.096 754.827 256.096 Q752.628 256.096 750.175 256.86 Q747.744 257.624 744.966 259.175 L744.966 254.453 Q747.79 253.319 750.244 252.74 Q752.698 252.161 754.735 252.161 Q760.105 252.161 763.3 254.846 Q766.494 257.532 766.494 262.022 Q766.494 264.152 765.684 266.073 Q764.897 267.971 762.79 270.564 Q762.212 271.235 759.11 274.453 Q756.008 277.647 750.36 283.411 Z" fill="#000000" fill-rule="nonzero" fill-opacity="1" /><path clip-path="url(#clip000)" d="M775.313 252.786 L797.535 252.786 L797.535 254.777 L784.989 287.346 L780.105 287.346 L791.91 256.721 L775.313 256.721 L775.313 252.786 Z" fill="#000000" fill-rule="nonzero" fill-opacity="1" /><path clip-path="url(#clip000)" d="M831.355 251.374 Q828.253 256.698 826.748 261.907 Q825.244 267.115 825.244 272.462 Q825.244 277.809 826.748 283.064 Q828.276 288.295 831.355 293.596 L827.651 293.596 Q824.179 288.156 822.443 282.902 Q820.73 277.647 820.73 272.462 Q820.73 267.3 822.443 262.069 Q824.156 256.837 827.651 251.374 L831.355 251.374 Z" fill="#000000" fill-rule="nonzero" fill-opacity="1" /><path clip-path="url(#clip000)" d="M865.683 255.448 L865.683 260.379 Q863.322 258.18 860.637 257.092 Q857.975 256.004 854.966 256.004 Q849.04 256.004 845.892 259.638 Q842.744 263.249 842.744 270.101 Q842.744 276.93 845.892 280.564 Q849.04 284.175 854.966 284.175 Q857.975 284.175 860.637 283.087 Q863.322 281.999 865.683 279.8 L865.683 284.684 Q863.23 286.351 860.475 287.184 Q857.743 288.018 854.688 288.018 Q846.841 288.018 842.327 283.226 Q837.813 278.411 837.813 270.101 Q837.813 261.768 842.327 256.976 Q846.841 252.161 854.688 252.161 Q857.79 252.161 860.521 252.995 Q863.276 253.805 865.683 255.448 Z" fill="#000000" fill-rule="nonzero" fill-opacity="1" /><path clip-path="url(#clip000)" d="M877.581 256.629 L877.581 269.615 L883.461 269.615 Q886.725 269.615 888.507 267.925 Q890.29 266.235 890.29 263.11 Q890.29 260.008 888.507 258.319 Q886.725 256.629 883.461 256.629 L877.581 256.629 M872.905 252.786 L883.461 252.786 Q889.271 252.786 892.234 255.425 Q895.22 258.041 895.22 263.11 Q895.22 268.226 892.234 270.842 Q889.271 273.457 883.461 273.457 L877.581 273.457 L877.581 287.346 L872.905 287.346 L872.905 252.786 Z" fill="#000000" fill-rule="nonzero" fill-opacity="1" /><path clip-path="url(#clip000)" d="M900.961 252.786 L905.66 252.786 L905.66 273.782 Q905.66 279.337 907.674 281.791 Q909.688 284.221 914.201 284.221 Q918.692 284.221 920.706 281.791 Q922.72 279.337 922.72 273.782 L922.72 252.786 L927.419 252.786 L927.419 274.36 Q927.419 281.119 924.063 284.569 Q920.729 288.018 914.201 288.018 Q907.651 288.018 904.294 284.569 Q900.961 281.119 900.961 274.36 L900.961 252.786 Z" fill="#000000" fill-rule="nonzero" fill-opacity="1" /><path clip-path="url(#clip000)" d="M935.336 251.374 L939.039 251.374 Q942.512 256.837 944.224 262.069 Q945.961 267.3 945.961 272.462 Q945.961 277.647 944.224 282.902 Q942.512 288.156 939.039 293.596 L935.336 293.596 Q938.414 288.295 939.919 283.064 Q941.447 277.809 941.447 272.462 Q941.447 267.115 939.919 261.907 Q938.414 256.698 935.336 251.374 Z" fill="#000000" fill-rule="nonzero" fill-opacity="1" /><circle clip-path="url(#clip000)" cx="421.404" cy="321.906" r="20.48" fill="#3da44d" fill-rule="evenodd" fill-opacity="1" stroke="#000000" stroke-opacity="1" stroke-width="4.55111"/>
<path clip-path="url(#clip000)" d="M514.481 304.626 L521.449 304.626 L530.268 328.145 L539.134 304.626 L546.102 304.626 L546.102 339.186 L541.541 339.186 L541.541 308.839 L532.629 332.543 L527.93 332.543 L519.018 308.839 L519.018 339.186 L514.481 339.186 L514.481 304.626 Z" fill="#000000" fill-rule="nonzero" fill-opacity="1" /><path clip-path="url(#clip000)" d="M566.981 326.154 Q561.819 326.154 559.828 327.334 Q557.838 328.515 557.838 331.362 Q557.838 333.631 559.319 334.973 Q560.824 336.293 563.393 336.293 Q566.935 336.293 569.064 333.793 Q571.217 331.27 571.217 327.103 L571.217 326.154 L566.981 326.154 M575.476 324.395 L575.476 339.186 L571.217 339.186 L571.217 335.251 Q569.759 337.612 567.583 338.746 Q565.407 339.858 562.259 339.858 Q558.277 339.858 555.916 337.635 Q553.578 335.39 553.578 331.64 Q553.578 327.265 556.495 325.043 Q559.435 322.821 565.245 322.821 L571.217 322.821 L571.217 322.404 Q571.217 319.464 569.273 317.867 Q567.351 316.247 563.856 316.247 Q561.634 316.247 559.527 316.779 Q557.421 317.311 555.477 318.376 L555.477 314.441 Q557.815 313.538 560.014 313.098 Q562.213 312.635 564.296 312.635 Q569.921 312.635 572.699 315.552 Q575.476 318.469 575.476 324.395 Z" fill="#000000" fill-rule="nonzero" fill-opacity="1" /><path clip-path="url(#clip000)" d="M601.31 317.196 L601.31 303.168 L605.569 303.168 L605.569 339.186 L601.31 339.186 L601.31 335.297 Q599.967 337.612 597.907 338.746 Q595.87 339.858 592.999 339.858 Q588.3 339.858 585.338 336.108 Q582.398 332.358 582.398 326.247 Q582.398 320.135 585.338 316.385 Q588.3 312.635 592.999 312.635 Q595.87 312.635 597.907 313.77 Q599.967 314.881 601.31 317.196 M586.796 326.247 Q586.796 330.946 588.717 333.631 Q590.662 336.293 594.041 336.293 Q597.421 336.293 599.365 333.631 Q601.31 330.946 601.31 326.247 Q601.31 321.547 599.365 318.885 Q597.421 316.2 594.041 316.2 Q590.662 316.2 588.717 318.885 Q586.796 321.547 586.796 326.247 Z" fill="#000000" fill-rule="nonzero" fill-opacity="1" /><path clip-path="url(#clip000)" d="M614.527 304.626 L620.823 304.626 L636.147 333.538 L636.147 304.626 L640.684 304.626 L640.684 339.186 L634.388 339.186 L619.064 310.274 L619.064 339.186 L614.527 339.186 L614.527 304.626 Z" fill="#000000" fill-rule="nonzero" fill-opacity="1" /><path clip-path="url(#clip000)" d="M649.99 304.626 L654.666 304.626 L654.666 335.251 L671.494 335.251 L671.494 339.186 L649.99 339.186 L649.99 304.626 Z" fill="#000000" fill-rule="nonzero" fill-opacity="1" /><path clip-path="url(#clip000)" d="M681.078 308.469 L681.078 321.455 L686.957 321.455 Q690.221 321.455 692.004 319.765 Q693.786 318.075 693.786 314.95 Q693.786 311.848 692.004 310.159 Q690.221 308.469 686.957 308.469 L681.078 308.469 M676.402 304.626 L686.957 304.626 Q692.767 304.626 695.73 307.265 Q698.717 309.881 698.717 314.95 Q698.717 320.066 695.73 322.682 Q692.767 325.297 686.957 325.297 L681.078 325.297 L681.078 339.186 L676.402 339.186 L676.402 304.626 Z" fill="#000000" fill-rule="nonzero" fill-opacity="1" /><path clip-path="url(#clip000)" d="M722.142 309.464 L722.142 322.358 L735.036 322.358 L735.036 326.293 L722.142 326.293 L722.142 339.186 L718.253 339.186 L718.253 326.293 L705.36 326.293 L705.36 322.358 L718.253 322.358 L718.253 309.464 L722.142 309.464 Z" fill="#000000" fill-rule="nonzero" fill-opacity="1" /><path clip-path="url(#clip000)" d="M744.712 304.626 L749.388 304.626 L749.388 318.793 L766.378 318.793 L766.378 304.626 L771.054 304.626 L771.054 339.186 L766.378 339.186 L766.378 322.728 L749.388 322.728 L749.388 339.186 L744.712 339.186 L744.712 304.626 Z" fill="#000000" fill-rule="nonzero" fill-opacity="1" /><path clip-path="url(#clip000)" d="M790.961 341.594 Q789.156 346.223 787.443 347.635 Q785.73 349.047 782.86 349.047 L779.457 349.047 L779.457 345.483 L781.957 345.483 Q783.716 345.483 784.688 344.649 Q785.661 343.816 786.841 340.714 L787.605 338.77 L777.119 313.26 L781.633 313.26 L789.735 333.538 L797.836 313.26 L802.35 313.26 L790.961 341.594 Z" fill="#000000" fill-rule="nonzero" fill-opacity="1" /><path clip-path="url(#clip000)" d="M826.841 326.247 Q826.841 321.547 824.896 318.885 Q822.975 316.2 819.596 316.2 Q816.216 316.2 814.271 318.885 Q812.35 321.547 812.35 326.247 Q812.35 330.946 814.271 333.631 Q816.216 336.293 819.596 336.293 Q822.975 336.293 824.896 333.631 Q826.841 330.946 826.841 326.247 M812.35 317.196 Q813.693 314.881 815.73 313.77 Q817.79 312.635 820.637 312.635 Q825.359 312.635 828.299 316.385 Q831.262 320.135 831.262 326.247 Q831.262 332.358 828.299 336.108 Q825.359 339.858 820.637 339.858 Q817.79 339.858 815.73 338.746 Q813.693 337.612 812.35 335.297 L812.35 339.186 L808.068 339.186 L808.068 303.168 L812.35 303.168 L812.35 317.196 Z" fill="#000000" fill-rule="nonzero" fill-opacity="1" /><path clip-path="url(#clip000)" d="M853.345 317.242 Q852.628 316.825 851.771 316.64 Q850.938 316.432 849.919 316.432 Q846.308 316.432 844.364 318.793 Q842.443 321.131 842.443 325.529 L842.443 339.186 L838.16 339.186 L838.16 313.26 L842.443 313.26 L842.443 317.288 Q843.785 314.927 845.938 313.793 Q848.091 312.635 851.169 312.635 Q851.609 312.635 852.142 312.705 Q852.674 312.751 853.322 312.867 L853.345 317.242 Z" fill="#000000" fill-rule="nonzero" fill-opacity="1" /><path clip-path="url(#clip000)" d="M857.813 313.26 L862.072 313.26 L862.072 339.186 L857.813 339.186 L857.813 313.26 M857.813 303.168 L862.072 303.168 L862.072 308.561 L857.813 308.561 L857.813 303.168 Z" fill="#000000" fill-rule="nonzero" fill-opacity="1" /><path clip-path="url(#clip000)" d="M888.044 317.196 L888.044 303.168 L892.303 303.168 L892.303 339.186 L888.044 339.186 L888.044 335.297 Q886.702 337.612 884.641 338.746 Q882.604 339.858 879.734 339.858 Q875.035 339.858 872.072 336.108 Q869.132 332.358 869.132 326.247 Q869.132 320.135 872.072 316.385 Q875.035 312.635 879.734 312.635 Q882.604 312.635 884.641 313.77 Q886.702 314.881 888.044 317.196 M873.53 326.247 Q873.53 330.946 875.452 333.631 Q877.396 336.293 880.776 336.293 Q884.155 336.293 886.1 333.631 Q888.044 330.946 888.044 326.247 Q888.044 321.547 886.1 318.885 Q884.155 316.2 880.776 316.2 Q877.396 316.2 875.452 318.885 Q873.53 321.547 873.53 326.247 Z" fill="#000000" fill-rule="nonzero" fill-opacity="1" /><path clip-path="url(#clip000)" d="M901.262 304.626 L905.938 304.626 L905.938 319.233 L921.447 304.626 L927.465 304.626 L910.313 320.737 L928.692 339.186 L922.535 339.186 L905.938 322.543 L905.938 339.186 L901.262 339.186 L901.262 304.626 Z" fill="#000000" fill-rule="nonzero" fill-opacity="1" /><path clip-path="url(#clip000)" d="M932.35 304.626 L937.025 304.626 L937.025 319.233 L952.535 304.626 L958.553 304.626 L941.4 320.737 L959.78 339.186 L953.623 339.186 L937.025 322.543 L937.025 339.186 L932.35 339.186 L932.35 304.626 Z" fill="#000000" fill-rule="nonzero" fill-opacity="1" /><path clip-path="url(#clip000)" d="M954.965 304.626 L984.201 304.626 L984.201 308.561 L971.933 308.561 L971.933 339.186 L967.234 339.186 L967.234 308.561 L954.965 308.561 L954.965 304.626 Z" fill="#000000" fill-rule="nonzero" fill-opacity="1" /><path clip-path="url(#clip000)" d="M1013.83 303.214 Q1010.73 308.538 1009.22 313.747 Q1007.72 318.955 1007.72 324.302 Q1007.72 329.649 1009.22 334.904 Q1010.75 340.135 1013.83 345.436 L1010.13 345.436 Q1006.65 339.996 1004.92 334.742 Q1003.21 329.487 1003.21 324.302 Q1003.21 319.14 1004.92 313.909 Q1006.63 308.677 1010.13 303.214 L1013.83 303.214 Z" fill="#000000" fill-rule="nonzero" fill-opacity="1" /><path clip-path="url(#clip000)" d="M1045.84 334.256 L1045.84 324.973 L1038.21 324.973 L1038.21 321.131 L1050.47 321.131 L1050.47 335.969 Q1047.77 337.89 1044.5 338.885 Q1041.24 339.858 1037.53 339.858 Q1029.43 339.858 1024.85 335.135 Q1020.29 330.39 1020.29 321.941 Q1020.29 313.469 1024.85 308.747 Q1029.43 304.001 1037.53 304.001 Q1040.91 304.001 1043.95 304.835 Q1047 305.668 1049.57 307.288 L1049.57 312.265 Q1046.98 310.066 1044.06 308.955 Q1041.15 307.844 1037.93 307.844 Q1031.59 307.844 1028.39 311.385 Q1025.22 314.927 1025.22 321.941 Q1025.22 328.932 1028.39 332.473 Q1031.59 336.015 1037.93 336.015 Q1040.4 336.015 1042.35 335.598 Q1044.29 335.159 1045.84 334.256 Z" fill="#000000" fill-rule="nonzero" fill-opacity="1" /><path clip-path="url(#clip000)" d="M1063.69 308.469 L1063.69 321.455 L1069.57 321.455 Q1072.83 321.455 1074.62 319.765 Q1076.4 318.075 1076.4 314.95 Q1076.4 311.848 1074.62 310.159 Q1072.83 308.469 1069.57 308.469 L1063.69 308.469 M1059.02 304.626 L1069.57 304.626 Q1075.38 304.626 1078.34 307.265 Q1081.33 309.881 1081.33 314.95 Q1081.33 320.066 1078.34 322.682 Q1075.38 325.297 1069.57 325.297 L1063.69 325.297 L1063.69 339.186 L1059.02 339.186 L1059.02 304.626 Z" fill="#000000" fill-rule="nonzero" fill-opacity="1" /><path clip-path="url(#clip000)" d="M1087.07 304.626 L1091.77 304.626 L1091.77 325.622 Q1091.77 331.177 1093.78 333.631 Q1095.8 336.061 1100.31 336.061 Q1104.8 336.061 1106.82 333.631 Q1108.83 331.177 1108.83 325.622 L1108.83 304.626 L1113.53 304.626 L1113.53 326.2 Q1113.53 332.959 1110.17 336.409 Q1106.84 339.858 1100.31 339.858 Q1093.76 339.858 1090.4 336.409 Q1087.07 332.959 1087.07 326.2 L1087.07 304.626 Z" fill="#000000" fill-rule="nonzero" fill-opacity="1" /><path clip-path="url(#clip000)" d="M1121.45 303.214 L1125.15 303.214 Q1128.62 308.677 1130.33 313.909 Q1132.07 319.14 1132.07 324.302 Q1132.07 329.487 1130.33 334.742 Q1128.62 339.996 1125.15 345.436 L1121.45 345.436 Q1124.52 340.135 1126.03 334.904 Q1127.56 329.649 1127.56 324.302 Q1127.56 318.955 1126.03 313.747 Q1124.52 308.538 1121.45 303.214 Z" fill="#000000" fill-rule="nonzero" fill-opacity="1" /><circle clip-path="url(#clip000)" cx="421.404" cy="373.746" r="20.48" fill="#c271d2" fill-rule="evenodd" fill-opacity="1" stroke="#000000" stroke-opacity="1" stroke-width="4.55111"/>
<path clip-path="url(#clip000)" d="M514.481 356.466 L521.449 356.466 L530.268 379.985 L539.134 356.466 L546.102 356.466 L546.102 391.026 L541.541 391.026 L541.541 360.679 L532.629 384.383 L527.93 384.383 L519.018 360.679 L519.018 391.026 L514.481 391.026 L514.481 356.466 Z" fill="#000000" fill-rule="nonzero" fill-opacity="1" /><path clip-path="url(#clip000)" d="M566.981 377.994 Q561.819 377.994 559.828 379.174 Q557.838 380.355 557.838 383.202 Q557.838 385.471 559.319 386.813 Q560.824 388.133 563.393 388.133 Q566.935 388.133 569.064 385.633 Q571.217 383.11 571.217 378.943 L571.217 377.994 L566.981 377.994 M575.476 376.235 L575.476 391.026 L571.217 391.026 L571.217 387.091 Q569.759 389.452 567.583 390.586 Q565.407 391.698 562.259 391.698 Q558.277 391.698 555.916 389.475 Q553.578 387.23 553.578 383.48 Q553.578 379.105 556.495 376.883 Q559.435 374.661 565.245 374.661 L571.217 374.661 L571.217 374.244 Q571.217 371.304 569.273 369.707 Q567.351 368.087 563.856 368.087 Q561.634 368.087 559.527 368.619 Q557.421 369.151 555.477 370.216 L555.477 366.281 Q557.815 365.378 560.014 364.938 Q562.213 364.475 564.296 364.475 Q569.921 364.475 572.699 367.392 Q575.476 370.309 575.476 376.235 Z" fill="#000000" fill-rule="nonzero" fill-opacity="1" /><path clip-path="url(#clip000)" d="M601.31 369.036 L601.31 355.008 L605.569 355.008 L605.569 391.026 L601.31 391.026 L601.31 387.137 Q599.967 389.452 597.907 390.586 Q595.87 391.698 592.999 391.698 Q588.3 391.698 585.338 387.948 Q582.398 384.198 582.398 378.087 Q582.398 371.975 585.338 368.225 Q588.3 364.475 592.999 364.475 Q595.87 364.475 597.907 365.61 Q599.967 366.721 601.31 369.036 M586.796 378.087 Q586.796 382.786 588.717 385.471 Q590.662 388.133 594.041 388.133 Q597.421 388.133 599.365 385.471 Q601.31 382.786 601.31 378.087 Q601.31 373.387 599.365 370.725 Q597.421 368.04 594.041 368.04 Q590.662 368.04 588.717 370.725 Q586.796 373.387 586.796 378.087 Z" fill="#000000" fill-rule="nonzero" fill-opacity="1" /><path clip-path="url(#clip000)" d="M614.527 356.466 L620.823 356.466 L636.147 385.378 L636.147 356.466 L640.684 356.466 L640.684 391.026 L634.388 391.026 L619.064 362.114 L619.064 391.026 L614.527 391.026 L614.527 356.466 Z" fill="#000000" fill-rule="nonzero" fill-opacity="1" /><path clip-path="url(#clip000)" d="M649.99 356.466 L654.666 356.466 L654.666 387.091 L671.494 387.091 L671.494 391.026 L649.99 391.026 L649.99 356.466 Z" fill="#000000" fill-rule="nonzero" fill-opacity="1" /><path clip-path="url(#clip000)" d="M681.078 360.309 L681.078 373.295 L686.957 373.295 Q690.221 373.295 692.004 371.605 Q693.786 369.915 693.786 366.79 Q693.786 363.688 692.004 361.999 Q690.221 360.309 686.957 360.309 L681.078 360.309 M676.402 356.466 L686.957 356.466 Q692.767 356.466 695.73 359.105 Q698.717 361.721 698.717 366.79 Q698.717 371.906 695.73 374.522 Q692.767 377.137 686.957 377.137 L681.078 377.137 L681.078 391.026 L676.402 391.026 L676.402 356.466 Z" fill="#000000" fill-rule="nonzero" fill-opacity="1" /><path clip-path="url(#clip000)" d="M722.142 361.304 L722.142 374.198 L735.036 374.198 L735.036 378.133 L722.142 378.133 L722.142 391.026 L718.253 391.026 L718.253 378.133 L705.36 378.133 L705.36 374.198 L718.253 374.198 L718.253 361.304 L722.142 361.304 Z" fill="#000000" fill-rule="nonzero" fill-opacity="1" /><path clip-path="url(#clip000)" d="M744.712 356.466 L749.388 356.466 L749.388 387.091 L766.216 387.091 L766.216 391.026 L744.712 391.026 L744.712 356.466 Z" fill="#000000" fill-rule="nonzero" fill-opacity="1" /><path clip-path="url(#clip000)" d="M770.938 365.1 L775.198 365.1 L775.198 391.026 L770.938 391.026 L770.938 365.1 M770.938 355.008 L775.198 355.008 L775.198 360.401 L770.938 360.401 L770.938 355.008 Z" fill="#000000" fill-rule="nonzero" fill-opacity="1" /><path clip-path="url(#clip000)" d="M797.235 355.008 L797.235 358.55 L793.16 358.55 Q790.869 358.55 789.966 359.476 Q789.086 360.401 789.086 362.809 L789.086 365.1 L796.1 365.1 L796.1 368.411 L789.086 368.411 L789.086 391.026 L784.804 391.026 L784.804 368.411 L780.73 368.411 L780.73 365.1 L784.804 365.1 L784.804 363.295 Q784.804 358.966 786.818 356.999 Q788.832 355.008 793.207 355.008 L797.235 355.008 Z" fill="#000000" fill-rule="nonzero" fill-opacity="1" /><path clip-path="url(#clip000)" d="M804.179 357.739 L804.179 365.1 L812.952 365.1 L812.952 368.411 L804.179 368.411 L804.179 382.485 Q804.179 385.656 805.035 386.559 Q805.915 387.461 808.577 387.461 L812.952 387.461 L812.952 391.026 L808.577 391.026 Q803.647 391.026 801.772 389.198 Q799.897 387.346 799.897 382.485 L799.897 368.411 L796.772 368.411 L796.772 365.1 L799.897 365.1 L799.897 357.739 L804.179 357.739 Z" fill="#000000" fill-rule="nonzero" fill-opacity="1" /><path clip-path="url(#clip000)" d="M840.73 376.999 L840.73 379.082 L821.146 379.082 Q821.424 383.48 823.785 385.795 Q826.17 388.086 830.406 388.086 Q832.859 388.086 835.151 387.485 Q837.466 386.883 839.734 385.679 L839.734 389.707 Q837.443 390.679 835.035 391.188 Q832.628 391.698 830.151 391.698 Q823.947 391.698 820.313 388.086 Q816.702 384.475 816.702 378.318 Q816.702 371.952 820.128 368.225 Q823.577 364.475 829.41 364.475 Q834.642 364.475 837.674 367.855 Q840.73 371.212 840.73 376.999 M836.47 375.749 Q836.424 372.253 834.503 370.17 Q832.605 368.087 829.457 368.087 Q825.892 368.087 823.739 370.1 Q821.609 372.114 821.285 375.772 L836.47 375.749 Z" fill="#000000" fill-rule="nonzero" fill-opacity="1" /><path clip-path="url(#clip000)" d="M864.78 369.036 L864.78 355.008 L869.04 355.008 L869.04 391.026 L864.78 391.026 L864.78 387.137 Q863.438 389.452 861.378 390.586 Q859.341 391.698 856.47 391.698 Q851.771 391.698 848.808 387.948 Q845.869 384.198 845.869 378.087 Q845.869 371.975 848.808 368.225 Q851.771 364.475 856.47 364.475 Q859.341 364.475 861.378 365.61 Q863.438 366.721 864.78 369.036 M850.267 378.087 Q850.267 382.786 852.188 385.471 Q854.132 388.133 857.512 388.133 Q860.892 388.133 862.836 385.471 Q864.78 382.786 864.78 378.087 Q864.78 373.387 862.836 370.725 Q860.892 368.04 857.512 368.04 Q854.132 368.04 852.188 370.725 Q850.267 373.387 850.267 378.087 Z" fill="#000000" fill-rule="nonzero" fill-opacity="1" /><path clip-path="url(#clip000)" d="M877.998 356.466 L882.674 356.466 L882.674 371.073 L898.183 356.466 L904.202 356.466 L887.049 372.577 L905.428 391.026 L899.271 391.026 L882.674 374.383 L882.674 391.026 L877.998 391.026 L877.998 356.466 Z" fill="#000000" fill-rule="nonzero" fill-opacity="1" /><path clip-path="url(#clip000)" d="M909.086 356.466 L913.762 356.466 L913.762 371.073 L929.271 356.466 L935.289 356.466 L918.137 372.577 L936.516 391.026 L930.359 391.026 L913.762 374.383 L913.762 391.026 L909.086 391.026 L909.086 356.466 Z" fill="#000000" fill-rule="nonzero" fill-opacity="1" /><path clip-path="url(#clip000)" d="M931.701 356.466 L960.937 356.466 L960.937 360.401 L948.669 360.401 L948.669 391.026 L943.97 391.026 L943.97 360.401 L931.701 360.401 L931.701 356.466 Z" fill="#000000" fill-rule="nonzero" fill-opacity="1" /><path clip-path="url(#clip000)" d="M990.567 355.054 Q987.465 360.378 985.96 365.587 Q984.456 370.795 984.456 376.142 Q984.456 381.489 985.96 386.744 Q987.488 391.975 990.567 397.276 L986.863 397.276 Q983.391 391.836 981.655 386.582 Q979.942 381.327 979.942 376.142 Q979.942 370.98 981.655 365.749 Q983.368 360.517 986.863 355.054 L990.567 355.054 Z" fill="#000000" fill-rule="nonzero" fill-opacity="1" /><path clip-path="url(#clip000)" d="M1022.58 386.096 L1022.58 376.813 L1014.94 376.813 L1014.94 372.971 L1027.21 372.971 L1027.21 387.809 Q1024.5 389.73 1021.24 390.725 Q1017.97 391.698 1014.27 391.698 Q1006.17 391.698 1001.59 386.975 Q997.025 382.23 997.025 373.781 Q997.025 365.309 1001.59 360.587 Q1006.17 355.841 1014.27 355.841 Q1017.65 355.841 1020.68 356.675 Q1023.74 357.508 1026.31 359.128 L1026.31 364.105 Q1023.71 361.906 1020.8 360.795 Q1017.88 359.684 1014.66 359.684 Q1008.32 359.684 1005.13 363.225 Q1001.96 366.767 1001.96 373.781 Q1001.96 380.772 1005.13 384.313 Q1008.32 387.855 1014.66 387.855 Q1017.14 387.855 1019.09 387.438 Q1021.03 386.999 1022.58 386.096 Z" fill="#000000" fill-rule="nonzero" fill-opacity="1" /><path clip-path="url(#clip000)" d="M1040.43 360.309 L1040.43 373.295 L1046.31 373.295 Q1049.57 373.295 1051.35 371.605 Q1053.14 369.915 1053.14 366.79 Q1053.14 363.688 1051.35 361.999 Q1049.57 360.309 1046.31 360.309 L1040.43 360.309 M1035.75 356.466 L1046.31 356.466 Q1052.12 356.466 1055.08 359.105 Q1058.07 361.721 1058.07 366.79 Q1058.07 371.906 1055.08 374.522 Q1052.12 377.137 1046.31 377.137 L1040.43 377.137 L1040.43 391.026 L1035.75 391.026 L1035.75 356.466 Z" fill="#000000" fill-rule="nonzero" fill-opacity="1" /><path clip-path="url(#clip000)" d="M1063.81 356.466 L1068.51 356.466 L1068.51 377.462 Q1068.51 383.017 1070.52 385.471 Q1072.53 387.901 1077.05 387.901 Q1081.54 387.901 1083.55 385.471 Q1085.57 383.017 1085.57 377.462 L1085.57 356.466 L1090.27 356.466 L1090.27 378.04 Q1090.27 384.799 1086.91 388.249 Q1083.58 391.698 1077.05 391.698 Q1070.5 391.698 1067.14 388.249 Q1063.81 384.799 1063.81 378.04 L1063.81 356.466 Z" fill="#000000" fill-rule="nonzero" fill-opacity="1" /><path clip-path="url(#clip000)" d="M1098.18 355.054 L1101.89 355.054 Q1105.36 360.517 1107.07 365.749 Q1108.81 370.98 1108.81 376.142 Q1108.81 381.327 1107.07 386.582 Q1105.36 391.836 1101.89 397.276 L1098.18 397.276 Q1101.26 391.975 1102.77 386.744 Q1104.29 381.489 1104.29 376.142 Q1104.29 370.795 1102.77 365.587 Q1101.26 360.378 1098.18 355.054 Z" fill="#000000" fill-rule="nonzero" fill-opacity="1" /><circle clip-path="url(#clip000)" cx="421.404" cy="425.586" r="20.48" fill="#ac8d18" fill-rule="evenodd" fill-opacity="1" stroke="#000000" stroke-opacity="1" stroke-width="4.55111"/>
<path clip-path="url(#clip000)" d="M514.481 408.306 L521.449 408.306 L530.268 431.825 L539.134 408.306 L546.102 408.306 L546.102 442.866 L541.541 442.866 L541.541 412.519 L532.629 436.223 L527.93 436.223 L519.018 412.519 L519.018 442.866 L514.481 442.866 L514.481 408.306 Z" fill="#000000" fill-rule="nonzero" fill-opacity="1" /><path clip-path="url(#clip000)" d="M566.981 429.834 Q561.819 429.834 559.828 431.014 Q557.838 432.195 557.838 435.042 Q557.838 437.311 559.319 438.653 Q560.824 439.973 563.393 439.973 Q566.935 439.973 569.064 437.473 Q571.217 434.95 571.217 430.783 L571.217 429.834 L566.981 429.834 M575.476 428.075 L575.476 442.866 L571.217 442.866 L571.217 438.931 Q569.759 441.292 567.583 442.426 Q565.407 443.538 562.259 443.538 Q558.277 443.538 555.916 441.315 Q553.578 439.07 553.578 435.32 Q553.578 430.945 556.495 428.723 Q559.435 426.501 565.245 426.501 L571.217 426.501 L571.217 426.084 Q571.217 423.144 569.273 421.547 Q567.351 419.927 563.856 419.927 Q561.634 419.927 559.527 420.459 Q557.421 420.991 555.477 422.056 L555.477 418.121 Q557.815 417.218 560.014 416.778 Q562.213 416.315 564.296 416.315 Q569.921 416.315 572.699 419.232 Q575.476 422.149 575.476 428.075 Z" fill="#000000" fill-rule="nonzero" fill-opacity="1" /><path clip-path="url(#clip000)" d="M601.31 420.876 L601.31 406.848 L605.569 406.848 L605.569 442.866 L601.31 442.866 L601.31 438.977 Q599.967 441.292 597.907 442.426 Q595.87 443.538 592.999 443.538 Q588.3 443.538 585.338 439.788 Q582.398 436.038 582.398 429.927 Q582.398 423.815 585.338 420.065 Q588.3 416.315 592.999 416.315 Q595.87 416.315 597.907 417.45 Q599.967 418.561 601.31 420.876 M586.796 429.927 Q586.796 434.626 588.717 437.311 Q590.662 439.973 594.041 439.973 Q597.421 439.973 599.365 437.311 Q601.31 434.626 601.31 429.927 Q601.31 425.227 599.365 422.565 Q597.421 419.88 594.041 419.88 Q590.662 419.88 588.717 422.565 Q586.796 425.227 586.796 429.927 Z" fill="#000000" fill-rule="nonzero" fill-opacity="1" /><path clip-path="url(#clip000)" d="M614.527 408.306 L620.823 408.306 L636.147 437.218 L636.147 408.306 L640.684 408.306 L640.684 442.866 L634.388 442.866 L619.064 413.954 L619.064 442.866 L614.527 442.866 L614.527 408.306 Z" fill="#000000" fill-rule="nonzero" fill-opacity="1" /><path clip-path="url(#clip000)" d="M675.869 410.968 L675.869 415.899 Q673.508 413.7 670.823 412.612 Q668.161 411.524 665.152 411.524 Q659.226 411.524 656.078 415.158 Q652.93 418.769 652.93 425.621 Q652.93 432.45 656.078 436.084 Q659.226 439.695 665.152 439.695 Q668.161 439.695 670.823 438.607 Q673.508 437.519 675.869 435.32 L675.869 440.204 Q673.416 441.871 670.661 442.704 Q667.93 443.538 664.874 443.538 Q657.027 443.538 652.513 438.746 Q647.999 433.931 647.999 425.621 Q647.999 417.288 652.513 412.496 Q657.027 407.681 664.874 407.681 Q667.976 407.681 670.707 408.515 Q673.462 409.325 675.869 410.968 Z" fill="#000000" fill-rule="nonzero" fill-opacity="1" /><path clip-path="url(#clip000)" d="M683.092 408.306 L687.768 408.306 L687.768 438.931 L704.596 438.931 L704.596 442.866 L683.092 442.866 L683.092 408.306 Z" fill="#000000" fill-rule="nonzero" fill-opacity="1" /><path clip-path="url(#clip000)" d="M734.619 406.894 Q731.517 412.218 730.013 417.427 Q728.508 422.635 728.508 427.982 Q728.508 433.329 730.013 438.584 Q731.54 443.815 734.619 449.116 L730.915 449.116 Q727.443 443.676 725.707 438.422 Q723.994 433.167 723.994 427.982 Q723.994 422.82 725.707 417.589 Q727.42 412.357 730.915 406.894 L734.619 406.894 Z" fill="#000000" fill-rule="nonzero" fill-opacity="1" /><path clip-path="url(#clip000)" d="M766.633 437.936 L766.633 428.653 L758.994 428.653 L758.994 424.811 L771.262 424.811 L771.262 439.649 Q768.554 441.57 765.29 442.565 Q762.026 443.538 758.323 443.538 Q750.221 443.538 745.638 438.815 Q741.077 434.07 741.077 425.621 Q741.077 417.149 745.638 412.427 Q750.221 407.681 758.323 407.681 Q761.702 407.681 764.735 408.515 Q767.79 409.348 770.36 410.968 L770.36 415.945 Q767.767 413.746 764.85 412.635 Q761.934 411.524 758.716 411.524 Q752.374 411.524 749.179 415.065 Q746.008 418.607 746.008 425.621 Q746.008 432.612 749.179 436.153 Q752.374 439.695 758.716 439.695 Q761.193 439.695 763.137 439.278 Q765.082 438.839 766.633 437.936 Z" fill="#000000" fill-rule="nonzero" fill-opacity="1" /><path clip-path="url(#clip000)" d="M784.48 412.149 L784.48 425.135 L790.36 425.135 Q793.623 425.135 795.406 423.445 Q797.188 421.755 797.188 418.63 Q797.188 415.528 795.406 413.839 Q793.623 412.149 790.36 412.149 L784.48 412.149 M779.804 408.306 L790.36 408.306 Q796.17 408.306 799.133 410.945 Q802.119 413.561 802.119 418.63 Q802.119 423.746 799.133 426.362 Q796.17 428.977 790.36 428.977 L784.48 428.977 L784.48 442.866 L779.804 442.866 L779.804 408.306 Z" fill="#000000" fill-rule="nonzero" fill-opacity="1" /><path clip-path="url(#clip000)" d="M807.859 408.306 L812.559 408.306 L812.559 429.302 Q812.559 434.857 814.572 437.311 Q816.586 439.741 821.1 439.741 Q825.591 439.741 827.605 437.311 Q829.619 434.857 829.619 429.302 L829.619 408.306 L834.318 408.306 L834.318 429.88 Q834.318 436.639 830.961 440.089 Q827.628 443.538 821.1 443.538 Q814.549 443.538 811.193 440.089 Q807.859 436.639 807.859 429.88 L807.859 408.306 Z" fill="#000000" fill-rule="nonzero" fill-opacity="1" /><path clip-path="url(#clip000)" d="M842.234 406.894 L845.938 406.894 Q849.41 412.357 851.123 417.589 Q852.859 422.82 852.859 427.982 Q852.859 433.167 851.123 438.422 Q849.41 443.676 845.938 449.116 L842.234 449.116 Q845.313 443.815 846.818 438.584 Q848.345 433.329 848.345 427.982 Q848.345 422.635 846.818 417.427 Q845.313 412.218 842.234 406.894 Z" fill="#000000" fill-rule="nonzero" fill-opacity="1" /></svg>
